<svg width="22" height="25" viewBox="0 0 22 25" fill="none" xmlns="http://www.w3.org/2000/svg">
<path d="M10.5421 13.4707C10.568 13.4707 10.5939 13.4707 10.6249 13.4707C10.6353 13.4707 10.6456 13.4707 10.656 13.4707C10.6715 13.4707 10.6922 13.4707 10.7078 13.4707C12.2246 13.4448 13.4516 12.9116 14.3576 11.8917C16.3508 9.64486 16.0194 5.79313 15.9832 5.42555C15.8538 2.66618 14.5491 1.34603 13.4723 0.729965C12.6699 0.269207 11.7328 0.0207082 10.6871 0H10.6508C10.6456 0 10.6353 0 10.6301 0H10.5991C10.0244 0 8.8958 0.093187 7.81379 0.709257C6.72661 1.32533 5.40129 2.64548 5.27186 5.42555C5.23562 5.79313 4.90429 9.64486 6.89746 11.8917C7.79826 12.9116 9.02523 13.4448 10.5421 13.4707ZM6.65413 5.55498C6.65413 5.53945 6.65931 5.52392 6.65931 5.51356C6.83015 1.80162 9.46527 1.40298 10.5939 1.40298H10.6146C10.6249 1.40298 10.6405 1.40298 10.656 1.40298C12.0538 1.43404 14.4301 2.00352 14.5906 5.51356C14.5906 5.5291 14.5906 5.54463 14.5957 5.55498C14.6009 5.59122 14.9633 9.11162 13.317 10.965C12.6647 11.7001 11.795 12.0625 10.6508 12.0729C10.6405 12.0729 10.6353 12.0729 10.6249 12.0729C10.6146 12.0729 10.6094 12.0729 10.5991 12.0729C9.4601 12.0625 8.58518 11.7001 7.93804 10.965C6.29692 9.12197 6.64896 5.58604 6.65413 5.55498Z" fill="white"/>
<path d="M21.2636 19.8594C21.2636 19.8542 21.2636 19.849 21.2636 19.8438C21.2636 19.8024 21.2584 19.761 21.2584 19.7144C21.2273 18.6893 21.16 16.2924 18.9132 15.5262C18.8977 15.521 18.877 15.5158 18.8614 15.5106C16.5266 14.9153 14.5852 13.5692 14.5645 13.5537C14.2487 13.3311 13.8138 13.4087 13.5912 13.7245C13.3686 14.0403 13.4462 14.4752 13.762 14.6978C13.85 14.76 15.9105 16.194 18.4887 16.8567C19.6949 17.2864 19.8295 18.5754 19.8658 19.7558C19.8658 19.8024 19.8658 19.8438 19.8709 19.8852C19.8761 20.3512 19.8451 21.0708 19.7622 21.485C18.9235 21.9612 15.6361 23.6075 10.6351 23.6075C5.65475 23.6075 2.34662 21.9561 1.50276 21.4798C1.41992 21.0656 1.38368 20.346 1.39404 19.8801C1.39404 19.8387 1.39921 19.7972 1.39921 19.7506C1.43545 18.5703 1.57006 17.2812 2.77631 16.8515C5.35448 16.1888 7.41495 14.7496 7.50296 14.6927C7.81876 14.47 7.89642 14.0352 7.67381 13.7194C7.45119 13.4036 7.01632 13.3259 6.70052 13.5485C6.67981 13.5641 4.74877 14.9101 2.40356 15.5055C2.38285 15.5106 2.36732 15.5158 2.35179 15.521C0.10495 16.2924 0.0376485 18.6893 0.00658618 19.7092C0.00658618 19.7558 0.00658607 19.7972 0.00140901 19.8387C0.00140901 19.8438 0.00140901 19.849 0.00140901 19.8542C-0.00376805 20.1234 -0.00894499 21.5057 0.265439 22.1994C0.31721 22.334 0.410397 22.4479 0.534646 22.5255C0.689958 22.6291 4.41226 25.0002 10.6403 25.0002C16.8683 25.0002 20.5906 22.6239 20.7459 22.5255C20.8649 22.4479 20.9633 22.334 21.0151 22.1994C21.2739 21.5108 21.2688 20.1286 21.2636 19.8594Z" fill="white"/>
</svg>
