<svg width="25" height="23" viewBox="0 0 25 23" fill="none" xmlns="http://www.w3.org/2000/svg">
<path d="M23.4848 0H1.51515C0.681818 0 0 0.681818 0 1.51515V16.6919C0 17.5253 0.681818 18.2071 1.51515 18.2071H9.0404V19.2929C9.0404 20.303 8.23232 21.1111 7.22222 21.1111H5.55556C5.22727 21.1111 4.97475 21.3636 4.97475 21.6919C4.97475 22.0202 5.22727 22.2727 5.55556 22.2727H19.4444C19.7727 22.2727 20.0253 22.0202 20.0253 21.6919C20.0253 21.3636 19.7727 21.1111 19.4444 21.1111H17.7778C16.7677 21.1111 15.9596 20.303 15.9596 19.2929V18.2071H23.4848C24.3182 18.2071 25 17.5253 25 16.6919V1.51515C25 0.681818 24.3182 0 23.4848 0ZM1.51515 1.16162H23.4848C23.6869 1.16162 23.8384 1.31313 23.8384 1.51515V12.5H1.16162V1.51515C1.16162 1.31313 1.31313 1.16162 1.51515 1.16162ZM14.798 19.2929C14.798 19.9748 15.0253 20.6061 15.4293 21.1111H9.57071C9.97475 20.6061 10.202 19.9748 10.202 19.2929V18.2071H14.8232L14.798 19.2929ZM23.4848 17.0455H1.51515C1.31313 17.0455 1.16162 16.8939 1.16162 16.6919V13.6616H23.8636V16.6919C23.8384 16.8939 23.6869 17.0455 23.4848 17.0455Z" fill="white"/>
<path d="M12.5005 15.985C12.8491 15.985 13.1318 15.7024 13.1318 15.3537C13.1318 15.0051 12.8491 14.7224 12.5005 14.7224C12.1518 14.7224 11.8691 15.0051 11.8691 15.3537C11.8691 15.7024 12.1518 15.985 12.5005 15.985Z" fill="white"/>
<path d="M9.01493 9.01553C9.16644 9.01553 9.31796 8.96503 9.41897 8.83876L13.4846 4.79836C13.7119 4.57109 13.7119 4.21755 13.4846 3.99028C13.2573 3.76301 12.9038 3.76301 12.6765 3.99028L8.61088 8.05593C8.38361 8.28321 8.38361 8.63674 8.61088 8.86402C8.71189 8.96503 8.86341 9.01553 9.01493 9.01553Z" fill="white"/>
<path d="M13.4595 8.76291C13.5605 8.86392 13.712 8.93968 13.8636 8.93968C14.0151 8.93968 14.1666 8.88917 14.2676 8.76291L15.8838 7.14675C16.111 6.91948 16.111 6.56594 15.8838 6.33867C15.6565 6.11139 15.303 6.11139 15.0757 6.33867L13.4595 7.95483C13.2322 8.1821 13.2322 8.53564 13.4595 8.76291Z" fill="white"/>
</svg>
