<svg width="25" height="25" viewBox="0 0 25 25" fill="none" xmlns="http://www.w3.org/2000/svg">
<path d="M17.5699 14.7158C17.368 14.413 17.1408 14.0848 16.8631 13.7567C17.7971 13.3276 18.731 12.9994 19.6397 12.8228C19.8921 12.7723 20.0688 12.5199 20.0183 12.2422C19.9678 11.9646 19.7154 11.8131 19.4377 11.8636C18.3776 12.0908 17.2922 12.4694 16.2321 12.9742C15.6263 12.2675 14.9448 11.5102 14.2128 10.7782C13.4303 9.99575 12.6226 9.26375 11.8654 8.63272C12.5217 7.79977 13.0517 6.86584 13.4556 5.8562C14.0866 4.266 14.4148 2.47388 14.4148 0.479826C14.4148 0.202173 14.1876 0.000244141 13.9352 0.000244141C13.6828 0.000244141 13.4556 0.227415 13.4556 0.479826C13.4556 3.53401 12.6731 6.05812 11.1082 8.02694C10.8053 7.79977 10.5276 7.59784 10.2752 7.42115C8.83646 6.43674 7.97826 6.20957 7.47343 6.68915C7.34723 6.81536 7.2715 6.96681 7.24626 7.1435L0.0525278 24.3075C-0.0484369 24.4842 0.00204546 24.7113 0.153492 24.8376C0.229216 24.9385 0.355422 24.989 0.481628 24.989C0.557351 24.989 0.607834 24.989 0.658316 24.9385L17.8476 17.7448C17.999 17.7195 18.1504 17.6438 18.2767 17.5429L18.3019 17.5176C18.7815 17.0128 18.5543 16.1546 17.5699 14.7158ZM10.0733 19.966C10.4014 19.234 10.7548 18.2749 10.9567 17.1895C11.1839 15.9779 11.2848 14.413 10.8557 12.6966C11.0829 12.949 11.3353 13.1761 11.5625 13.4285C12.2945 14.1605 13.0265 14.8421 13.7332 15.4226C13.6575 17.7195 12.5974 18.7797 12.3702 18.9816L10.0733 19.966ZM7.5744 21.0009C7.67536 20.7485 7.75109 20.4708 7.82681 20.1427C8.20543 18.1486 7.5744 15.675 5.93372 12.8228L6.46379 11.5607C6.89289 12.0655 7.34723 12.7723 7.54916 13.2266C7.62488 13.4033 7.80157 13.5295 8.0035 13.5295C8.07922 13.5295 8.1297 13.5043 8.20543 13.479C8.45784 13.3781 8.5588 13.0752 8.45784 12.848C8.18019 12.1917 7.44819 11.1568 6.89289 10.5763L7.7006 8.65796C7.85205 8.91038 8.02874 9.21327 8.23067 9.51616C8.38211 9.71809 8.53356 9.94526 8.71025 10.1724C10.3762 12.6966 10.3509 15.2964 10.0228 17.038C9.66941 18.8806 8.93742 20.2184 8.65977 20.597L7.5744 21.0009ZM5.45414 13.9586C6.96861 16.8361 7.09481 18.7544 6.89289 19.865C6.69096 20.9757 6.18613 21.531 6.03469 21.6572L4.74739 22.1872C5.02504 21.1776 5.10076 19.5621 4.01539 17.4419L5.45414 13.9586ZM14.6672 16.1798C14.9701 16.407 15.2477 16.6089 15.5254 16.7856C15.8283 16.9876 16.1312 17.1642 16.3836 17.3157L14.0866 18.2749C14.3138 17.7448 14.541 17.038 14.6672 16.1798ZM10.4771 8.75893C10.4519 8.78417 10.4014 8.83465 10.3762 8.85989C10.1742 9.06182 10.1742 9.36472 10.3762 9.54141C10.4771 9.64237 10.6033 9.69285 10.7295 9.69285C10.8557 9.69285 10.982 9.64237 11.0829 9.54141C11.1334 9.49092 11.2091 9.4152 11.2596 9.36472C11.9916 9.97051 12.7741 10.7025 13.5566 11.4597C14.2128 12.116 14.8439 12.7975 15.3992 13.4285C15.3234 13.479 15.2225 13.5295 15.1467 13.58C14.9196 13.7062 14.8439 14.0091 14.9701 14.2363C15.071 14.3877 15.2225 14.4887 15.3992 14.4887C15.4749 14.4887 15.5758 14.4634 15.6516 14.413C15.7778 14.3372 15.9292 14.2615 16.0554 14.1858C16.2574 14.4634 16.4593 14.7158 16.636 14.9683C17.368 16.0031 17.5699 16.508 17.6204 16.7351C17.3932 16.6847 16.8631 16.4827 15.8535 15.7507C14.7934 14.9935 13.5313 13.9081 12.3197 12.6966C11.1082 11.485 10.0228 10.2229 9.26556 9.16279C8.53356 8.1279 8.33163 7.62308 8.28115 7.39591C8.50832 7.44639 9.03838 7.64832 10.048 8.38031C10.149 8.53176 10.3257 8.63272 10.4771 8.75893ZM3.46009 18.6535C3.86394 19.6631 4.01539 20.6475 3.86394 21.5057C3.76298 22.1367 3.53581 22.5658 3.43484 22.7425L1.39031 23.6007L3.46009 18.6535Z" fill="white"/>
<path d="M8.83645 14.0846C8.73548 13.8321 8.43259 13.7312 8.18018 13.8321C7.95301 13.9331 7.8268 14.2108 7.92776 14.4632C8.00349 14.6651 8.18018 14.7661 8.38211 14.7661C8.43259 14.7661 8.48307 14.7661 8.53355 14.7408C8.78596 14.6399 8.91217 14.3622 8.83645 14.1098V14.0846Z" fill="white"/>
<path d="M18.2263 7.54732C18.3272 7.64829 18.4534 7.69877 18.5796 7.69877C18.7058 7.69877 18.8321 7.64829 18.933 7.54732C20.0184 6.46195 21.7853 5.95713 23.0726 5.85617C23.3502 5.83092 23.5522 5.60375 23.5269 5.3261C23.5017 5.04845 23.2745 4.84652 22.9968 4.87176C21.5329 4.99796 19.5136 5.57851 18.2263 6.84057C18.0496 7.0425 18.0496 7.37064 18.2263 7.54732Z" fill="white"/>
<path d="M24.637 4.97252C24.6118 4.97252 24.6118 4.97252 24.5865 4.97252C24.3341 4.8968 24.0565 5.07349 24.006 5.3259C23.9302 5.57831 24.1069 5.85596 24.3593 5.90644H24.3846C24.4351 5.90644 24.4603 5.93168 24.5108 5.93168C24.738 5.93168 24.9147 5.78024 24.9904 5.57831C25.0409 5.3259 24.8894 5.04824 24.637 4.97252Z" fill="white"/>
<path d="M3.58635 4.08898H4.06594V4.56857C4.06594 4.84622 4.29311 5.04815 4.54552 5.04815C4.82317 5.04815 5.0251 4.82098 5.0251 4.56857V4.08898H5.50468C5.78234 4.08898 5.98427 3.86181 5.98427 3.6094C5.98427 3.35699 5.75709 3.12982 5.50468 3.12982H5.05034V2.65024C5.05034 2.37258 4.82317 2.17065 4.57076 2.17065C4.29311 2.17065 4.09118 2.39782 4.09118 2.65024V3.12982H3.6116C3.33394 3.12982 3.13201 3.35699 3.13201 3.6094C3.10677 3.86181 3.3087 4.08898 3.58635 4.08898Z" fill="white"/>
<path d="M15.0196 8.8092H15.4992V9.28878C15.4992 9.56643 15.7263 9.76836 15.9788 9.76836C16.2564 9.76836 16.4583 9.54119 16.4583 9.28878V8.8092H16.9379C17.2156 8.8092 17.4175 8.58203 17.4175 8.32962C17.4175 8.05196 17.1903 7.85003 16.9379 7.85003H16.4583V7.37045C16.4583 7.0928 16.2312 6.89087 15.9788 6.89087C15.7011 6.89087 15.4992 7.11804 15.4992 7.37045V7.85003H15.0196C14.7419 7.85003 14.54 8.0772 14.54 8.32962C14.5148 8.60727 14.7419 8.8092 15.0196 8.8092Z" fill="white"/>
<path d="M21.7856 20.3947H21.306V19.9151C21.306 19.6375 21.0789 19.4355 20.8264 19.4355C20.5488 19.4355 20.3469 19.6627 20.3469 19.9151V20.3947H19.8673C19.5896 20.3947 19.3877 20.6219 19.3877 20.8743C19.3877 21.1519 19.6149 21.3539 19.8673 21.3539H20.3469V21.8335C20.3469 22.1111 20.574 22.313 20.8264 22.313C21.1041 22.313 21.306 22.0859 21.306 21.8335V21.3539H21.7856C22.0633 21.3539 22.2652 21.1267 22.2652 20.8743C22.2904 20.5966 22.0633 20.3947 21.7856 20.3947Z" fill="white"/>
<path d="M19.0333 2.92798C19.841 2.92798 20.4973 2.27171 20.4973 1.46399C20.4973 0.65627 19.841 0 19.0333 0C18.2256 0 17.5693 0.65627 17.5693 1.46399C17.5693 2.27171 18.2256 2.92798 19.0333 2.92798ZM19.0333 0.984406C19.311 0.984406 19.5129 1.21158 19.5129 1.46399C19.5129 1.7164 19.2857 1.94357 19.0333 1.94357C18.7809 1.94357 18.5537 1.7164 18.5537 1.46399C18.5537 1.21158 18.7557 0.984406 19.0333 0.984406Z" fill="white"/>
<path d="M22.088 8.4812C21.2803 8.4812 20.624 9.13747 20.624 9.94519C20.624 10.7529 21.2803 11.4092 22.088 11.4092C22.8957 11.4092 23.552 10.7529 23.552 9.94519C23.552 9.13747 22.8957 8.4812 22.088 8.4812ZM22.088 10.4248C21.8104 10.4248 21.6084 10.1976 21.6084 9.94519C21.6084 9.66754 21.8356 9.46561 22.088 9.46561C22.3404 9.46561 22.5676 9.69278 22.5676 9.94519C22.5676 10.1976 22.3657 10.4248 22.088 10.4248Z" fill="white"/>
<path d="M9.69543 4.66967C10.5032 4.66967 11.1594 4.0134 11.1594 3.20569C11.1594 2.39797 10.5032 1.7417 9.69543 1.7417C8.88772 1.7417 8.23145 2.39797 8.23145 3.20569C8.23145 4.0134 8.88772 4.66967 9.69543 4.66967ZM9.69543 2.7261C9.97309 2.7261 10.175 2.95328 10.175 3.20569C10.175 3.4581 9.94785 3.68527 9.69543 3.68527C9.41778 3.68527 9.21585 3.4581 9.21585 3.20569C9.19061 2.92803 9.41778 2.7261 9.69543 2.7261Z" fill="white"/>
<path d="M21.9357 14.3622C21.9357 14.0845 21.7086 13.8826 21.4561 13.8826C21.1785 13.8826 20.9766 14.1097 20.9766 14.3622C20.9766 14.6146 21.2037 14.8417 21.4561 14.8417C21.7086 14.8417 21.9357 14.6146 21.9357 14.3622Z" fill="white"/>
<path d="M16.3575 4.64422C16.6352 4.64422 16.8371 4.41705 16.8371 4.16464C16.8371 3.91223 16.6099 3.68506 16.3575 3.68506C16.0799 3.68506 15.8779 3.91223 15.8779 4.16464C15.8779 4.41705 16.0799 4.64422 16.3575 4.64422Z" fill="white"/>
<path d="M22.8966 17.5176C22.6189 17.5176 22.417 17.7447 22.417 17.9972C22.417 18.2748 22.6442 18.4767 22.8966 18.4767C23.1742 18.4767 23.3762 18.2496 23.3762 17.9972C23.4014 17.7447 23.1742 17.5176 22.8966 17.5176Z" fill="white"/>
<path d="M6.79208 1.46414C7.06974 1.46414 7.27166 1.23697 7.27166 0.98456C7.27166 0.732148 7.06974 0.479736 6.79208 0.479736C6.51443 0.479736 6.3125 0.706907 6.3125 0.98456C6.3125 1.26221 6.51443 1.46414 6.79208 1.46414Z" fill="white"/>
</svg>
