<svg width="26" height="25" viewBox="0 0 26 25" fill="none" xmlns="http://www.w3.org/2000/svg">
<path d="M13.988 10.7997L12.3221 10.6733L11.6787 12.3048L12.5404 12.638L13.7237 12.5518L13.988 10.7997Z" fill="white"/>
<path d="M13.6943 10.3745L12.7349 9.60474L12.4707 10.2826L13.6943 10.3745Z" fill="white"/>
<path d="M12.8906 9.21418L14.0855 10.1735L14.2865 8.84079L13.4478 7.78955L12.8906 9.21418Z" fill="white"/>
<path d="M14.6943 4.58987L14.5449 4.9805H14.8092L14.7517 4.56689L14.6943 4.58987Z" fill="white"/>
<path d="M15.0273 6.61756L15.079 6.74968L15.0446 6.51416L15.0273 6.61756Z" fill="white"/>
<path d="M4.76178 22.0071L4.80773 21.8118L4.61816 21.8405L4.76178 22.0071Z" fill="white"/>
<path d="M6.92796 1.25806C6.66372 1.39018 6.41096 1.52805 6.1582 1.6774L7.21519 2.18292L6.92796 1.25806Z" fill="white"/>
<path d="M22.0763 15.7629L21.7891 16.257L22.1222 16.3891L22.0763 15.7629Z" fill="white"/>
<path d="M24.7012 11.2132L24.9482 11.2304C24.9482 11.2189 24.9482 11.2074 24.9482 11.1959L24.7816 11.0811L24.7012 11.2132Z" fill="white"/>
<path d="M14.4816 6.31893L14.3782 6.06043L14.1599 5.95703L13.8555 6.74403L14.4816 6.31893Z" fill="white"/>
<path d="M11.621 12.7124L11.5348 12.678L11.5176 12.7182L11.621 12.7124Z" fill="white"/>
<path d="M10.1216 19.4393L9.02436 19.1003L8.77734 19.7265L8.89798 19.8529L9.7137 20.0367L10.1216 19.4393Z" fill="white"/>
<path d="M8.03613 9.32907L9.04716 8.06529L8.84036 7.39893L8.42676 7.59424L8.03613 9.32907Z" fill="white"/>
<path d="M8.55325 20.301L8.33496 20.8697L9.03579 20.7606L8.55325 20.301Z" fill="white"/>
<path d="M24.6262 12.1208L24.3447 12.1438L24.9709 13.4478C24.9881 13.1951 24.9996 12.9366 25.0053 12.6838L24.6262 12.1208Z" fill="white"/>
<path d="M9.47312 20.393L9.39844 20.3757L9.45014 20.4274L9.47312 20.393Z" fill="white"/>
<path d="M6.76132 21.1053L6.42814 19.7037L5.72731 19.5486L5.3252 21.3236L6.76132 21.1053Z" fill="white"/>
<path d="M24.8222 11.7015L24.9831 11.69C24.9831 11.6728 24.9831 11.6556 24.9773 11.6383L24.7705 11.6211L24.8222 11.7015Z" fill="white"/>
<path d="M5.0498 9.21986L5.63 9.75984L6.49742 9.82303L5.66446 8.92114L5.0498 9.21986Z" fill="white"/>
<path d="M10.3571 19.0946L11.3739 17.6125L10.943 15.7053L10.3858 15.6191L9.16797 18.7269L10.3571 19.0946Z" fill="white"/>
<path d="M0.396829 12.5632L0.21875 12.3909L0.253217 12.6034L0.327895 12.8045L0.396829 12.5632Z" fill="white"/>
<path d="M18.6874 6.91642L16.4987 5.42285L15.459 6.13517L18.2968 7.49661L18.6874 6.91642Z" fill="white"/>
<path d="M22.6562 17.0266L22.7367 17.0898L22.8803 17.1128L22.6562 17.0266Z" fill="white"/>
<path d="M14.8092 5.37695H14.5449L14.6943 5.76758L14.7517 5.79056L14.8092 5.37695Z" fill="white"/>
<path d="M15.2803 4.98043H15.849L15.332 4.62427L15.2803 4.98043Z" fill="white"/>
<path d="M23.4494 9.68515L24.65 10.5066L24.8108 10.2309C24.65 9.34048 24.3972 8.4788 24.0526 7.66309L22.6279 8.48455L23.4494 9.68515Z" fill="white"/>
<path d="M2.49294 5.49184L2.4757 5.47461L1.79785 6.21565L2.17699 6.56606L2.49294 5.49184Z" fill="white"/>
<path d="M7.87563 20.9385L8.20307 20.1056L7.37012 19.916L7.68032 20.9673L7.87563 20.9385Z" fill="white"/>
<path d="M14.7061 8.72589L15.539 9.77139L15.3552 8.55355L14.9071 7.4104L14.7061 8.72589Z" fill="white"/>
<path d="M13.6598 0.011489C13.6024 0.00574449 13.5449 0.00574449 13.4875 0L12.4707 0.0746784L12.7349 0.746784L13.6598 0.011489Z" fill="white"/>
<path d="M8.63919 18.9797L7.83496 18.7327L8.4726 19.4048L8.63919 18.9797Z" fill="white"/>
<path d="M16.0215 10.2539L16.0387 10.3975L16.1077 10.4779L16.0215 10.2539Z" fill="white"/>
<path d="M16.4355 10.2137L18.067 7.82969L15.459 6.57739L15.7462 8.4501L16.4355 10.2137Z" fill="white"/>
<path d="M0.873449 15.5103L0.844727 15.6424L0.907916 15.6022L0.873449 15.5103Z" fill="white"/>
<path d="M15.0273 3.73979L15.0446 3.84319L15.079 3.60767L15.0273 3.73979Z" fill="white"/>
<path d="M17.1475 4.9804H19.7382L18.9168 3.76831L17.1475 4.9804Z" fill="white"/>
<path d="M15.332 5.73311L15.849 5.37695H15.2803L15.332 5.73311Z" fill="white"/>
<path d="M6.78975 9.55311L7.21484 8.18018L6.04297 8.74314L6.78975 9.55311Z" fill="white"/>
<path d="M2.47053 14.5277L2.32692 14.3956L1.18377 14.2175L1.0459 14.7977L1.2527 15.3664L2.47053 14.5277Z" fill="white"/>
<path d="M7.25488 21.4385L7.38701 21.9957L7.47892 21.9555L7.52487 21.8406L7.3985 21.4155L7.25488 21.4385Z" fill="white"/>
<path d="M18.9168 6.58904L19.7382 5.37695H17.1475L18.9168 6.58904Z" fill="white"/>
<path d="M8.93268 21.1855L8.16291 21.3004L8.00781 21.6968L8.858 21.2889L8.93268 21.1855Z" fill="white"/>
<path d="M13.3386 13.3846L12.4827 13.0457L11.3568 13.1318L11.1787 13.5856L11.4602 14.4703L13.3386 13.3846Z" fill="white"/>
<path d="M15.7341 12.0061L15.7111 11.9832L15.6709 12.0406L15.7341 12.0061Z" fill="white"/>
<path d="M6.03763 18.1697L5.81934 19.152L6.31911 19.2669L6.0606 18.1812L6.03763 18.1697Z" fill="white"/>
<path d="M4.6412 7.22093L6.94474 5.37695H3.40039L3.56698 6.06055L4.6412 7.22093Z" fill="white"/>
<path d="M16.1768 11.2995L16.2399 11.7074L16.4755 11.5752L16.2112 11.2478L16.1768 11.2995Z" fill="white"/>
<path d="M16.4404 12.0577L16.7679 12.3162L16.8253 12.3104L16.6702 11.9255L16.4404 12.0577Z" fill="white"/>
<path d="M1.52246 8.76606L0.63781 8.42139C0.53441 8.73159 0.436753 9.04179 0.350586 9.35774L1.3214 9.43242L1.52246 8.76606Z" fill="white"/>
<path d="M23.7702 17.917C23.8104 17.8366 23.8448 17.7504 23.8851 17.67L23.3623 17.5896L23.7702 17.917Z" fill="white"/>
<path d="M6.92256 19.8185L6.85938 19.8013L7.15809 21.0478L7.28447 21.0306L6.92256 19.8185Z" fill="white"/>
<path d="M7.8237 19.6059L7.06543 18.8936L7.24351 19.4795L7.8237 19.6059Z" fill="white"/>
<path d="M17.5722 11.4028L17.0781 11.6901L17.3022 11.9715L17.5722 11.4028Z" fill="white"/>
<path d="M3.96938 7.76077L4.32554 7.47355L3.75684 6.85889L3.96938 7.76077Z" fill="white"/>
<path d="M11.9711 20.2437L11.7471 20.3471L11.9826 20.3126L11.9711 20.2437Z" fill="white"/>
<path d="M23.0643 19.1809C23.0988 19.1292 23.1333 19.0717 23.1677 19.02L22.9609 19.0545L23.0643 19.1809Z" fill="white"/>
<path d="M12.4879 20.6629V20.6399L12.4707 20.6456L12.4764 20.6571L12.4879 20.6629Z" fill="white"/>
<path d="M5.59473 18.3191L4.61816 18.8821L5.42814 19.0659L5.59473 18.3191Z" fill="white"/>
<path d="M14.9071 2.94704L15.3552 1.80388L15.539 0.591797L14.7061 1.63155L14.9071 2.94704Z" fill="white"/>
<path d="M22.7023 18.681L23.4318 18.5719C23.4835 18.4742 23.5352 18.3823 23.5869 18.2847L22.6104 17.5034L22.7023 18.681Z" fill="white"/>
<path d="M14.6885 13.4766L16.1935 14.0683L15.9982 12.7815L15.1193 12.8447L14.6885 13.4766Z" fill="white"/>
<path d="M8.84036 2.95847L9.04716 2.29211L8.03613 1.02832L8.42676 2.76316L8.84036 2.95847Z" fill="white"/>
<path d="M4.48047 9.48998L4.94577 9.6738L4.65855 9.40381L4.48047 9.48998Z" fill="white"/>
<path d="M16.8772 11.3455L17.3713 11.0583L16.7451 11.0066L16.8772 11.3455Z" fill="white"/>
<path d="M14.671 24.816C15.366 24.6954 16.0439 24.5173 16.693 24.2818L17.279 23.2708L14.5273 24.345L14.671 24.816Z" fill="white"/>
<path d="M7.24316 23.6443L7.34082 23.5122L7.32359 23.449L7.24316 23.6443Z" fill="white"/>
<path d="M7.77246 23.5926L7.90458 24.1441C8.01947 24.1901 8.12862 24.236 8.24351 24.2762L7.96203 23.3169L7.77246 23.5926Z" fill="white"/>
<path d="M22.4375 15.2229L22.5352 16.4809L24.7698 14.9529C24.8215 14.7059 24.8617 14.4589 24.8961 14.2061L24.833 14.074L22.4375 15.2229Z" fill="white"/>
<path d="M21.0188 4.21655L20.7373 4.63016L20.7833 4.71632L21.0188 4.21655Z" fill="white"/>
<path d="M17.291 24.0522C17.4231 23.9948 17.5553 23.9373 17.6874 23.8799L17.6242 23.4778L17.291 24.0522Z" fill="white"/>
<path d="M4.07227 8.19156L4.11822 8.35815L4.73288 8.92686L5.38201 8.61666L4.60076 7.77222L4.07227 8.19156Z" fill="white"/>
<path d="M24.0229 12.3909L22.7246 14.637L24.6548 13.7121L24.0229 12.3909Z" fill="white"/>
<path d="M21.1512 17.4229L21.1282 17.3999L21.0938 17.4631L21.1512 17.4229Z" fill="white"/>
<path d="M7.70927 22.4668L7.57715 22.7942L7.64608 23.0642L7.81267 22.8172L7.70927 22.4668Z" fill="white"/>
<path d="M16.8542 12.9021L16.6417 12.7297L16.4004 12.747L16.5268 13.5857L16.8542 12.9021Z" fill="white"/>
<path d="M15.8721 12.3851L15.9353 12.3793V12.3506L15.8721 12.3851Z" fill="white"/>
<path d="M8.40464 21.9553L8.03125 22.1334L8.10593 22.3919L8.40464 21.9553Z" fill="white"/>
<path d="M6.61816 18.7844L6.75603 19.3646L6.7905 19.3761L6.61816 18.7844Z" fill="white"/>
<path d="M12.8789 20.749L12.9995 20.7777L12.9364 20.5767H12.9076L12.8789 20.749Z" fill="white"/>
<path d="M4.61231 16.5614L3.56106 15.5676L2.65918 16.6993L4.39976 17.245L4.61231 16.5614Z" fill="white"/>
<path d="M20.123 5.53198L19.2441 6.813L19.6463 7.08874L20.2781 5.76751L20.123 5.53198Z" fill="white"/>
<path d="M24.1033 17.1587C24.3158 16.6302 24.4939 16.0844 24.6375 15.5215L22.9199 16.6991L24.1033 17.1587Z" fill="white"/>
<path d="M19.0603 8.30641L18.4284 8.00195L16.6533 10.5985L17.9114 10.6961L19.0603 8.30641Z" fill="white"/>
<path d="M19.4682 7.45045L19.0201 7.146L18.6582 7.66874L19.2327 7.94448L19.4682 7.45045Z" fill="white"/>
<path d="M0.780905 11.2649L0.763672 11.2764L0.775161 11.2879L0.780905 11.2649Z" fill="white"/>
<path d="M21.8805 16.9232L21.5588 16.6589L21.4209 16.8945L21.8345 16.9519L21.8805 16.9232Z" fill="white"/>
<path d="M9.9379 9.42666L11.3223 8.47882L10.047 7.4563L9.61621 8.00203L9.9379 9.42666Z" fill="white"/>
<path d="M19.0599 2.05087L18.9048 1.72343C18.4567 1.45919 17.9914 1.21792 17.5146 1.00537L18.4338 2.34958L19.0599 2.05087Z" fill="white"/>
<path d="M8.05957 9.94366L9.06486 10.0183L9.55314 9.6909L9.19123 8.53052L8.05957 9.94366Z" fill="white"/>
<path d="M18.067 2.5275L16.8377 0.735222C16.6538 0.666289 16.47 0.603099 16.2804 0.545654L15.7462 1.91284L15.459 3.78555L18.067 2.5275Z" fill="white"/>
<path d="M10.2998 7.1462L11.667 8.23765L13.0514 7.29555L11.9427 5.91113L10.8743 6.42239L10.2998 7.1462Z" fill="white"/>
<path d="M10.5186 14.1775L9.67412 13.2642L9.44434 13.2814L10.4898 14.2465L10.5186 14.1775Z" fill="white"/>
<path d="M11.6849 5.58947L11.6159 5.49756L11.4551 5.69862L11.6849 5.58947Z" fill="white"/>
<path d="M2.68296 8.78902L3.38379 8.22606L2.76338 7.65161L2.50488 8.71434L2.68296 8.78902Z" fill="white"/>
<path d="M2.49316 18.8132L2.74018 19.5026L3.52717 19.0488L2.49316 18.8132Z" fill="white"/>
<path d="M7.22047 10.9893L7.11133 11.1271L7.20324 11.2075L7.2492 11.0007L7.22047 10.9893Z" fill="white"/>
<path d="M6.68675 13.488L5.96869 13.5455L5.72168 14.344L5.76764 14.5106L6.434 14.614L6.68675 13.488Z" fill="white"/>
<path d="M2.02706 18.7099L1.96387 18.6926L2.06727 18.8133L2.02706 18.7099Z" fill="white"/>
<path d="M9.32313 12.8849L7.87552 11.3167L7.55957 11.5349L9.04165 12.9079L9.32313 12.8849Z" fill="white"/>
<path d="M20.0543 2.50464C19.9222 2.40698 19.79 2.30933 19.6522 2.21167L19.5947 2.24039L19.8015 2.67697L20.0543 2.50464Z" fill="white"/>
<path d="M4.91113 7.51958L5.75557 8.43295L7.38126 7.65744L7.96146 5.79048L7.51913 5.43433L4.91113 7.51958Z" fill="white"/>
<path d="M22.2025 17.4174L21.9325 17.3772L21.7314 17.5093L22.2599 18.1699L22.2025 17.4174Z" fill="white"/>
<path d="M12.057 4.94604L12.0283 4.98051H12.126L12.057 4.94604Z" fill="white"/>
<path d="M3.00982 6.61206L2.86621 7.20374L3.30279 7.6116L3.00982 6.61206Z" fill="white"/>
<path d="M6.9159 11.4891L6.8642 11.4431L6.71484 11.6269L6.9159 11.4891Z" fill="white"/>
<path d="M4.27993 17.6243L2.38999 17.0383L2.0166 17.4979L2.33255 18.3653L3.93526 18.733L4.27993 17.6243Z" fill="white"/>
<path d="M12.1202 5.37695H12.0283L12.057 5.41142L12.1202 5.37695Z" fill="white"/>
<path d="M21.3983 17.739L20.6745 18.2388L20.6113 19.0028L22.214 18.7558L21.3983 17.739Z" fill="white"/>
<path d="M11.0758 12.7526L11.1619 12.5344L10.8115 12.3965L10.9264 12.7641L11.0758 12.7526Z" fill="white"/>
<path d="M2.67722 6.29028L2.50488 6.87048L2.52786 6.89345L2.67722 6.29028Z" fill="white"/>
<path d="M0.384421 11.4546L0.0742188 11.6039L0.0971967 11.7246L0.522289 12.1324L0.642923 11.7303L0.384421 11.4546Z" fill="white"/>
<path d="M12.3164 5.73284L13.3274 6.99663L13.7985 5.78454L13.0057 5.39966L12.3164 5.73284Z" fill="white"/>
<path d="M10.0303 9.84599L10.059 9.97237L10.0992 10.0987L12.0523 10.2481L12.4085 9.34622L11.6502 8.7373L10.0303 9.84599Z" fill="white"/>
<path d="M11.903 10.6388L10.2256 10.5125L10.6622 11.9026L11.3056 12.1611L11.903 10.6388Z" fill="white"/>
<path d="M9.75971 10.4778L9.17377 10.4319L8.34082 11.0006L10.0297 11.6555L9.75971 10.4778Z" fill="white"/>
<path d="M7.75488 10.5929L7.93871 10.7939L8.53613 10.3803L7.81233 10.3286L7.75488 10.5929Z" fill="white"/>
<path d="M1.223 12.3391L0.958755 12.0691L0.849609 12.4425L1.13109 12.7067L1.223 12.3391Z" fill="white"/>
<path d="M11.9951 8.50184L12.5638 8.95565L13.0061 7.8125L11.9951 8.50184Z" fill="white"/>
<path d="M4.80251 12.9367L4.45209 11.4776L4.027 10.0357L3.43532 9.98975L2.03941 10.6619L1.66602 12.2244L2.76896 13.3847L4.31423 13.2699L4.80251 12.9367Z" fill="white"/>
<path d="M1.02867 13.1605L0.724207 12.8733L0.557617 13.4363L0.597829 13.5511L0.936753 13.5282L1.02867 13.1605Z" fill="white"/>
<path d="M14.6084 3.64212L14.3671 2.05664L13.6318 2.97576L14.6084 3.64212Z" fill="white"/>
<path d="M12.3164 4.62438L13.0057 4.95756L13.7985 4.57268L13.3274 3.3606L12.3164 4.62438Z" fill="white"/>
<path d="M15.2799 0.275707C15.0157 0.218262 14.7514 0.160817 14.4814 0.120605L14.6308 1.09142L15.2799 0.275707Z" fill="white"/>
<path d="M13.948 4.9519L13.8848 4.98063H13.9594L13.948 4.9519Z" fill="white"/>
<path d="M0.166016 14.7519C0.229205 15.0966 0.303883 15.4412 0.395795 15.7744L0.407284 15.7342L0.206227 14.614L0.166016 14.7519Z" fill="white"/>
<path d="M13.9594 5.37695H13.8848L13.948 5.40568L13.9594 5.37695Z" fill="white"/>
<path d="M14.3782 4.29688L14.4816 4.04412L13.8555 3.61328L14.1599 4.40028L14.3782 4.29688Z" fill="white"/>
<path d="M6.09473 13.1318L6.77832 13.0801L7.04831 11.8853L6.33025 12.3735L6.09473 13.1318Z" fill="white"/>
<path d="M14.0682 12.9252L14.0625 12.9654L14.1429 12.9194L14.0682 12.9252Z" fill="white"/>
<path d="M12.764 15.5732L13.4016 14.6426L13.5395 13.7292L11.6553 14.8207L12.2872 15.5043L12.764 15.5732Z" fill="white"/>
<path d="M5.89355 14.9358L6.1578 15.8262L6.34163 15.0047L5.89355 14.9358Z" fill="white"/>
<path d="M13.6608 12.9595L13.4023 12.9767L13.6436 13.0686L13.6608 12.9595Z" fill="white"/>
<path d="M1.37845 13.4938L1.36121 13.4766L1.35547 13.4938H1.37845Z" fill="white"/>
<path d="M13.9248 13.8845L14.0684 13.6719L13.965 13.626L13.9248 13.8845Z" fill="white"/>
<path d="M20.1572 19.7324L20.1745 19.4739L20.0596 19.4911L20.1572 19.7324Z" fill="white"/>
<path d="M1.0918 11.621L1.33307 11.8738L1.57433 10.8857L1.26988 11.0351L1.0918 11.621Z" fill="white"/>
<path d="M12.2123 16.3833L11.9883 16.1765L12.1032 16.5442L12.2123 16.3833Z" fill="white"/>
<path d="M2.04481 6.99108L1.52206 6.50854L1.40717 6.63492C1.1659 7.08874 0.953355 7.55979 0.769531 8.04232L1.63695 8.38125L2.04481 6.99108Z" fill="white"/>
<path d="M14.2637 13.3157L14.3039 13.3272L14.3441 13.2698L14.2637 13.3157Z" fill="white"/>
<path d="M21.7946 6.83031L22.4207 8.14005L23.8798 7.29561C23.5754 6.62351 23.2077 5.98012 22.7941 5.37695H21.6797L21.7946 6.83031Z" fill="white"/>
<path d="M20.4562 21.5994L20.4218 21.5132L20.416 21.6166L20.4562 21.5994Z" fill="white"/>
<path d="M15.7173 10.9317L14.959 10.8743L15.6196 11.4028L15.7575 11.2017L15.7173 10.9317Z" fill="white"/>
<path d="M14.3671 8.30081L14.6084 6.71533L13.6318 7.38169L14.3671 8.30081Z" fill="white"/>
<path d="M15.6306 10.5239L14.6253 9.26587L14.4473 10.432L15.6306 10.5239Z" fill="white"/>
<path d="M14.1318 12.5171L14.8959 12.4597L15.3956 11.7359L14.3731 10.9202L14.1318 12.5171Z" fill="white"/>
<path d="M21.7545 4.06128L21.6855 4.9804H22.5128C22.2772 4.65871 22.0245 4.35425 21.7545 4.06128Z" fill="white"/>
<path d="M8.78912 18.6063L9.86334 15.8547L6.79004 17.6298L7.27258 18.1353L8.78912 18.6063Z" fill="white"/>
<path d="M9.66217 15.5102L6.74397 15.0679L6.39355 16.6131L6.58887 17.2795L9.66217 15.5102Z" fill="white"/>
<path d="M10.3342 14.6485L8.89809 13.3215L7.10581 13.4594L6.83008 14.6715L10.1274 15.177L10.3342 14.6485Z" fill="white"/>
<path d="M2.25195 13.4247L1.55113 12.6895L1.4707 13.0284L1.91877 13.4535L2.25195 13.4247Z" fill="white"/>
<path d="M4.66498 17.7449L4.41797 18.5376L5.39453 17.9747L4.66498 17.7449Z" fill="white"/>
<path d="M4.6412 3.13647L3.56698 4.29686L3.40039 4.98046H6.94474L4.6412 3.13647Z" fill="white"/>
<path d="M4.21094 19.2039L3.72266 20.7778L4.31434 21.4787L4.90028 21.3925L5.33686 19.4566L4.21094 19.2039Z" fill="white"/>
<path d="M10.3809 13.2065L10.1855 13.2238L10.4498 13.511L10.3809 13.2065Z" fill="white"/>
<path d="M20.5425 4.2108L21.0997 3.39508C20.8699 3.17679 20.6344 2.96424 20.3874 2.76318L19.9795 3.03892L20.5425 4.2108Z" fill="white"/>
<path d="M10.2881 12.8101L10.133 12.1322L8.62793 11.5405L9.83427 12.8445L10.2881 12.8101Z" fill="white"/>
<path d="M5.75023 17.6413L4.93451 16.8716L4.78516 17.3599L5.74449 17.6586L5.75023 17.6413Z" fill="white"/>
<path d="M5.06641 16.4407L5.50873 16.8601L5.0779 16.4062L5.06641 16.4407Z" fill="white"/>
<path d="M3.56738 21.2776C3.65929 21.3696 3.75695 21.4615 3.84886 21.5534H3.85461L3.58462 21.2317L3.56738 21.2776Z" fill="white"/>
<path d="M11.8162 16.9692L11.4428 15.78L11.3682 15.7686L11.6841 17.1587L11.8162 16.9692Z" fill="white"/>
<path d="M15.459 4.22215L16.4987 4.93447L18.6874 3.4409L18.2968 2.86646L15.459 4.22215Z" fill="white"/>
<path d="M19.2441 3.54429L20.123 4.82531L20.2781 4.58979L19.6463 3.26855L19.2441 3.54429Z" fill="white"/>
<path d="M7.96146 4.56678L7.38126 2.69982L5.75557 1.92432L4.91113 2.83769L7.51913 4.92294L7.96146 4.56678Z" fill="white"/>
<path d="M7.43853 11.9773L7.19727 13.0515L8.49552 12.9481L7.43853 11.9773Z" fill="white"/>
<path d="M5.3939 15.4011L5.21582 15.9698L5.63517 16.4122L5.3939 15.4011Z" fill="white"/>
<path d="M6.85915 21.5017L5.23346 21.7487L5.08984 22.3921L5.50345 22.8861C5.50919 22.8919 5.51494 22.8919 5.52068 22.8976L7.01999 22.1796L6.85915 21.5017Z" fill="white"/>
<path d="M5.91699 23.1501C6.20996 23.3282 6.50867 23.4948 6.81888 23.6556L7.16355 22.771L7.11759 22.5757L5.91699 23.1501Z" fill="white"/>
<path d="M8.08278 3.03882L7.87598 2.94116L8.29532 4.30261L8.35277 4.25091L8.08278 3.03882Z" fill="white"/>
<path d="M19.0201 3.21108L19.4682 2.90662L19.2327 2.4126L18.6582 2.68833L19.0201 3.21108Z" fill="white"/>
<path d="M21.9841 9.26587L22.4322 9.47841L21.9727 9.16821L21.9841 9.26587Z" fill="white"/>
<path d="M18.313 21.4728L19.3987 19.5886L18.491 19.7322L17.5547 20.3641L17.6294 20.8409L18.313 21.4728Z" fill="white"/>
<path d="M19.4625 19.0603L19.25 19.2097L19.5085 19.1694L19.4625 19.0603Z" fill="white"/>
<path d="M17.1247 20.1803L17.0902 19.9448L16.7168 20.0023L16.9983 20.2608L17.1247 20.1803Z" fill="white"/>
<path d="M17.957 23.0066L18.0604 23.6959C18.3419 23.5523 18.6234 23.403 18.8934 23.2421L18.4855 22.7998L17.957 23.0066Z" fill="white"/>
<path d="M19.8008 18.8305L19.818 18.8707L19.864 18.7903L19.8008 18.8305Z" fill="white"/>
<path d="M17.0264 19.5485L16.7794 17.9343L15.2686 18.6581L16.337 19.6519L17.0264 19.5485Z" fill="white"/>
<path d="M19.4219 8.47876L18.4971 10.4089L20.7374 9.11065L19.4219 8.47876Z" fill="white"/>
<path d="M3.10742 14.5797L3.52103 14.976L3.61294 14.8611L3.30848 14.5452L3.18784 14.5222L3.10742 14.5797Z" fill="white"/>
<path d="M1.4248 10.5125L1.6948 10.3861L1.78096 10.0242L1.49948 10.2482L1.4248 10.5125Z" fill="white"/>
<path d="M0.011489 13.5973H0.022978L0 13.4595C0.00574449 13.5054 0.00574449 13.5514 0.011489 13.5973Z" fill="white"/>
<path d="M20.8184 16.3086V16.366L21.0769 16.6935L21.209 16.458L20.8184 16.3086Z" fill="white"/>
<path d="M6.81336 10.834L6.80762 10.8455L6.81911 10.857L6.8306 10.8397L6.81336 10.834Z" fill="white"/>
<path d="M18.7328 14.4015L17.7734 13.6375L18.256 14.8783L19.4968 15.3608L18.7328 14.4015Z" fill="white"/>
<path d="M1.73438 9.46114L1.83203 9.46688L1.92969 9.3922L2.03309 8.96137L1.89522 8.90967L1.73438 9.46114Z" fill="white"/>
<path d="M18.8877 22.6447L19.2439 23.0296C19.2783 23.0066 19.307 22.9894 19.3415 22.9664L18.9624 22.616L18.8877 22.6447Z" fill="white"/>
<path d="M1.30388 16.6991L0.970703 16.5957L1.18325 17.7676L1.23495 17.8365L1.56239 17.4229L1.30388 16.6991Z" fill="white"/>
<path d="M20.7835 17.1989L20.7548 17.1931L20.749 17.262L20.7835 17.1989Z" fill="white"/>
<path d="M21.0136 8.50763L19.8015 7.68042L19.5947 8.117L20.9906 8.78911L21.0136 8.50763Z" fill="white"/>
<path d="M16.9584 21.1454L16.7516 20.9214L16.585 21.0305L16.9584 21.1454Z" fill="white"/>
<path d="M20.3816 22.0588L20.3701 22.2082H20.3759C20.4563 22.145 20.5367 22.0761 20.6171 22.0071L20.6056 21.9727L20.3816 22.0588Z" fill="white"/>
<path d="M5.15275 14.8208L4.2681 14.6887L4.14746 14.8381L4.89999 15.6366L5.15275 14.8208Z" fill="white"/>
<path d="M17.9457 15.1826L16.6934 14.6943L16.9231 16.2051L18.4397 16.4407L17.9457 15.1826Z" fill="white"/>
<path d="M2.41797 9.51291L3.36007 9.58185L3.47495 9.53014L2.75689 9.24292L2.41797 9.51291Z" fill="white"/>
<path d="M16.4751 20.6228L15.9983 20.1116L14.4014 20.3528L16.096 20.8813L16.4751 20.6228Z" fill="white"/>
<path d="M11.9951 1.85543L13.0061 2.55051L12.5638 1.40161L11.9951 1.85543Z" fill="white"/>
<path d="M12.8564 25.0001C12.9196 25.0001 12.9771 25.0001 13.0403 24.9943L13.0288 24.9312L12.8564 25.0001Z" fill="white"/>
<path d="M9.01855 4.9804H11.1957L10.6213 4.25659L9.60449 3.76831L9.22536 4.07277L9.01855 4.9804Z" fill="white"/>
<path d="M18.457 15.3838L18.8879 16.481L19.9506 15.9697L18.457 15.3838Z" fill="white"/>
<path d="M19.6747 22.7368C19.6862 22.7253 19.7035 22.7195 19.715 22.708L19.623 22.6851L19.6747 22.7368Z" fill="white"/>
<path d="M11.5117 24.9654C11.6036 24.9712 11.6955 24.9827 11.7875 24.9884L11.8334 24.9712L11.9483 24.2014L11.8392 24.2761L11.5117 24.9654Z" fill="white"/>
<path d="M16.9863 16.6245L17.0955 17.3368L18.2042 16.8083L16.9863 16.6245Z" fill="white"/>
<path d="M9.22536 6.29033L9.60449 6.58904L10.6213 6.10076L11.1957 5.37695H9.01855L9.22536 6.29033Z" fill="white"/>
<path d="M18.1523 11.1155L17.6123 12.2529L20.7431 12.0116L20.8005 11.3165L18.1523 11.1155Z" fill="white"/>
<path d="M17.1592 17.7504L17.4234 19.4853L18.3368 19.3474L19.3134 18.681L18.67 17.0266L17.1592 17.7504Z" fill="white"/>
<path d="M17.4921 19.9276L17.5725 19.8701L17.4863 19.8816L17.4921 19.9276Z" fill="white"/>
<path d="M20.4048 16.4926L20.2324 16.28L19.5488 16.6075L20.3875 16.7338L20.4048 16.4926Z" fill="white"/>
<path d="M7.96703 2.53911L7.60512 0.942139C7.50172 0.988095 7.39832 1.03405 7.29492 1.08001L7.70852 2.41273L7.96703 2.53911Z" fill="white"/>
<path d="M21.9214 8.43288L22.0478 8.3582L21.8984 8.12842L21.9214 8.43288Z" fill="white"/>
<path d="M23.9665 11.1557L23.6562 10.7019L23.8688 11.15L23.9665 11.1557Z" fill="white"/>
<path d="M3.27482 15.2917L2.7693 14.8149L1.39062 15.757L1.61466 16.3774L2.24655 16.5728L3.27482 15.2917Z" fill="white"/>
<path d="M21.714 10.9835L21.5991 9.52444L21.3463 9.40381L21.2314 10.9491L21.714 10.9835Z" fill="white"/>
<path d="M1.97668 16.9118L1.78711 16.8486L1.86179 17.0554L1.97668 16.9118Z" fill="white"/>
<path d="M22.0186 9.72534L22.1162 11.0179L23.4087 11.1155L22.9549 10.1734L22.0186 9.72534Z" fill="white"/>
<path d="M10.2998 3.21108L10.8743 3.93489L11.9427 4.44615L13.0514 3.06173L11.667 2.11963L10.2998 3.21108Z" fill="white"/>
<path d="M12.2646 24.7991L12.8334 24.5808L12.3738 24.0925L12.2646 24.7991Z" fill="white"/>
<path d="M24.4316 10.88L24.1846 10.7651L24.3569 11.0122L24.4316 10.88Z" fill="white"/>
<path d="M5.15884 14.4187L5.00373 13.7695L4.55566 14.3267L5.15884 14.4187Z" fill="white"/>
<path d="M21.4671 7.8125L21.4326 8.30653L21.513 8.36397L21.4671 7.8125Z" fill="white"/>
<path d="M22.1162 8.77756L22.369 8.94989L22.2483 8.70288L22.1162 8.77756Z" fill="white"/>
<path d="M11.3223 1.8785L9.9379 0.930664L9.61621 2.3553L10.047 2.90102L11.3223 1.8785Z" fill="white"/>
<path d="M9.50121 2.85498L9.41504 3.23412L9.54716 3.29731L9.73673 3.14795L9.50121 2.85498Z" fill="white"/>
<path d="M9.94922 3.49259L10.0411 3.5328L9.98369 3.46387L9.94922 3.49259Z" fill="white"/>
<path d="M1.04561 15.9871L0.884766 16.102L0.89051 16.1537L1.13178 16.2283L1.04561 15.9871Z" fill="white"/>
<path d="M2.30957 13.8269L2.51063 14.0165L2.86104 14.0682L2.60828 13.804L2.30957 13.8269Z" fill="white"/>
<path d="M21.1164 12.3852L20.8809 15.5217L22.0183 14.976L21.8115 12.3335L21.1164 12.3852Z" fill="white"/>
<path d="M19.9795 7.3186L21.048 8.04816L21.1284 7.0084L20.5425 6.14673L19.9795 7.3186Z" fill="white"/>
<path d="M0.787109 10.8169L0.936466 10.748L0.9537 10.6848L0.787109 10.8169Z" fill="white"/>
<path d="M20.3468 15.6939L20.1572 15.5388L20.2434 15.6537L20.3468 15.6939Z" fill="white"/>
<path d="M2.94141 19.8529L3.41245 20.4101L3.7284 19.3933L2.94141 19.8529Z" fill="white"/>
<path d="M21.7318 15.5618L21.1631 15.8318L21.4446 16.0558L21.7318 15.5618Z" fill="white"/>
<path d="M20.9386 9.46118L18.6982 10.7537L20.8294 10.9203L20.9386 9.46118Z" fill="white"/>
<path d="M20.7149 12.4197L17.8369 12.638L19.0203 14.1143L20.4966 15.2977L20.7149 12.4197Z" fill="white"/>
<path d="M17.4806 12.8905L17.5955 12.9767L17.4404 12.7871L17.4806 12.8905Z" fill="white"/>
<path d="M21.2547 5.37695H21.0996L21.2317 5.65269L21.2547 5.37695Z" fill="white"/>
<path d="M11.4551 4.65894L11.6159 4.85999L11.6849 4.76808L11.4551 4.65894Z" fill="white"/>
<path d="M22.1445 11.4199L22.1847 11.9025L23.73 11.7876L23.6094 11.5348L22.1445 11.4199Z" fill="white"/>
<path d="M1.8152 13.9131L1.76924 13.8672L1.6084 13.8787L1.8152 13.9131Z" fill="white"/>
<path d="M23.673 12.1897L22.2139 12.3046L22.3747 14.4358L23.673 12.1897Z" fill="white"/>
<path d="M21.1973 11.3511L21.1514 11.983L21.7833 11.937L21.743 11.3913L21.1973 11.3511Z" fill="white"/>
<path d="M21.0245 6.14088L20.7833 5.64111L20.7373 5.72728L21.0245 6.14088Z" fill="white"/>
<path d="M19.6523 18.4455L20.29 18.0147L20.3532 17.1357L19.0664 16.9404L19.6523 18.4455Z" fill="white"/>
<path d="M15.6766 21.1685L13.6373 20.5366L13.4707 20.887L15.4411 21.3294L15.6766 21.1685Z" fill="white"/>
<path d="M8.72007 7.01392L8.62816 6.72095L8.54199 7.10008L8.72007 7.01392Z" fill="white"/>
<path d="M9.94922 6.86467L9.98369 6.8934L10.0411 6.82446L9.94922 6.86467Z" fill="white"/>
<path d="M12.4085 1.01102L12.0523 0.109131L10.0992 0.258488L10.059 0.384866L10.0303 0.511245L11.6502 1.61993L12.4085 1.01102Z" fill="white"/>
<path d="M13.6494 15.7112L15.3785 15.9755L16.1023 14.4647L14.4536 13.8213L13.7873 14.7979L13.6494 15.7112Z" fill="white"/>
<path d="M5.49219 13.5798L5.51517 13.6545L5.53814 13.5798H5.49219Z" fill="white"/>
<path d="M13.0227 17.1357L12.5114 16.6589L12.2529 17.0323L12.7814 18.7327L13.0227 17.1357Z" fill="white"/>
<path d="M2.16016 10.162L2.63695 9.93217L2.22335 9.89771L2.16016 10.162Z" fill="white"/>
<path d="M13.2645 15.5562L13.207 15.6423L13.253 15.6481L13.2645 15.5562Z" fill="white"/>
<path d="M9.89235 20.4849L9.7832 20.6457L10.2772 20.571L9.89235 20.4849Z" fill="white"/>
<path d="M14.8497 18.8647L14.3155 19.1175L13.8789 20.0251L15.6712 19.7551L14.8497 18.8647Z" fill="white"/>
<path d="M4.58439 13.6489L4.45226 13.6604L3.67676 14.1947L4.09611 14.2578L4.58439 13.6489Z" fill="white"/>
<path d="M14.4705 17.8652L15.2 16.3487L13.5858 16.1074L13.4824 16.791L14.4705 17.8652Z" fill="white"/>
<path d="M12.5974 19.4968L11.9655 17.4575L11.8047 17.693L12.247 19.6634L12.5974 19.4968Z" fill="white"/>
<path d="M20.5831 19.4106L20.4912 20.5882L20.8301 21.4499L21.4793 21.1972C21.8124 20.8582 22.1226 20.4963 22.4156 20.1172L22.3409 19.1406L20.5831 19.4106Z" fill="white"/>
<path d="M11.4941 18.147L10.7588 19.2212L11.81 19.5486L11.4941 18.147Z" fill="white"/>
<path d="M11.6964 19.9278L10.5245 19.5659L10.1396 20.1289L10.9094 20.307L11.6964 19.9278Z" fill="white"/>
<path d="M8.54199 3.25708L8.62816 3.63622L8.72007 3.34325L8.54199 3.25708Z" fill="white"/>
<path d="M22.7713 19.623C22.7942 19.5943 22.8115 19.5656 22.8344 19.5369L22.7598 19.4392L22.7713 19.623Z" fill="white"/>
<path d="M12.8215 21.1511L12.7812 21.3866L12.8904 21.1626L12.8215 21.1511Z" fill="white"/>
<path d="M13.7295 24.6611L13.9995 24.9196C14.0914 24.9081 14.1833 24.8966 14.2752 24.8851L14.1546 24.5002L13.7295 24.6611Z" fill="white"/>
<path d="M12.1383 20.9962L11.3455 20.8181L10.5126 20.9445L10.1162 21.1341L11.0353 22.0991L12.0004 23.0183L12.19 22.6219L12.3163 21.7832L12.1383 20.9962Z" fill="white"/>
<path d="M6.55423 10.2998L6.57721 10.2309L6.33594 10.2136L6.55423 10.2998Z" fill="white"/>
<path d="M3.11914 8.9558L3.77976 9.2143L3.59019 8.57666L3.11914 8.9558Z" fill="white"/>
<path d="M4.28516 9.05908L4.30239 9.13376L4.3426 9.11078L4.28516 9.05908Z" fill="white"/>
<path d="M9.41504 7.123L9.50121 7.50214L9.73673 7.20917L9.54716 7.05981L9.41504 7.123Z" fill="white"/>
<path d="M12.5518 20.2264L12.5575 20.1977L12.3564 20.1345L12.3852 20.2552L12.5518 20.2264Z" fill="white"/>
<path d="M7.11167 10.4896L6.96806 10.3345L6.93359 10.4494L7.09444 10.5126L7.11167 10.4896Z" fill="white"/>
<path d="M7.11133 9.86914L7.49621 9.89786L7.96726 7.81836L7.70875 7.94474L7.11133 9.86914Z" fill="white"/>
<path d="M13.1664 19.9678L13.4249 20.0482L13.7408 19.3933L13.0859 19.7093L13.1664 19.9678Z" fill="white"/>
<path d="M8.08278 7.31848L8.35277 6.10639L8.29532 6.05469L7.87598 7.41613L8.08278 7.31848Z" fill="white"/>
<path d="M9.55262 0.672206L9.16774 0.407959C8.86903 0.488382 8.57031 0.580294 8.27734 0.683694L9.19072 1.82685L9.55262 0.672206Z" fill="white"/>
<path d="M14.2698 18.2848L13.3794 17.4634L13.1094 19.2499L14.017 18.8133L14.2698 18.2848Z" fill="white"/>
<path d="M13.5682 22.6104L13.2005 21.4385L12.8271 22.2197L12.9995 22.9952L13.5682 22.6104Z" fill="white"/>
<path d="M1.49902 18.147L1.53349 18.1872L1.86667 18.2618L1.72306 17.8655L1.49902 18.147Z" fill="white"/>
<path d="M13.4478 2.5678L14.2865 1.51656L14.0855 0.183838L12.8906 1.14317L13.4478 2.5678Z" fill="white"/>
<path d="M3.125 13.7638L3.30882 13.9592L3.65349 13.7236L3.125 13.7638Z" fill="white"/>
<path d="M4.52637 10.0757L4.83657 11.3739L5.21571 12.6492L5.57761 12.4022L6.11185 11.7416L6.34737 10.9661L5.75569 10.4204L4.96295 10.1102L4.52637 10.0757Z" fill="white"/>
<path d="M1.15476 10.0125L1.2122 9.82297L0.264361 9.74829C0.201172 10.024 0.149472 10.2998 0.103516 10.5755L0.252872 10.7306L1.15476 10.0125Z" fill="white"/>
<path d="M13.189 16.0442L12.9535 16.0098L12.873 16.1304L13.1315 16.4176L13.189 16.0442Z" fill="white"/>
<path d="M17.3543 21.691L16.1652 21.3176L15.9756 21.4497L17.3658 21.7657L17.3543 21.691Z" fill="white"/>
<path d="M12.7587 23.7363L12.7415 23.6616L12.707 23.6846L12.7587 23.7363Z" fill="white"/>
<path d="M14.9532 18.3652L16.7168 17.5208L16.5732 16.5615L15.6139 16.4121L14.7637 18.1814L14.8556 18.2791L14.9532 18.3652Z" fill="white"/>
<path d="M21.2317 4.70483L21.0996 4.98057H21.2547L21.2317 4.70483Z" fill="white"/>
<path d="M14.9876 21.6394L13.5859 21.3235L13.9134 22.3747L14.9876 21.6394Z" fill="white"/>
<path d="M12.5571 22.8572L12.4824 23.3512L12.6433 23.2421L12.5571 22.8572Z" fill="white"/>
<path d="M5.78481 12.793L5.47461 13.1778L5.66418 13.1664L5.78481 12.793Z" fill="white"/>
<path d="M2.01074 8.52473L2.12563 8.57069L2.42435 7.34137L2.37839 7.29541L2.01074 8.52473Z" fill="white"/>
<path d="M15.7969 16.0386L16.5092 16.142L16.3254 14.9299L15.7969 16.0386Z" fill="white"/>
<path d="M17.1646 13.1836L16.6533 14.2463L17.7505 14.6772L17.1646 13.1836Z" fill="white"/>
<path d="M17.4283 22.1908L15.5211 21.76L14.0391 22.7768L14.4067 23.9602L17.5145 22.7481L17.4283 22.1908Z" fill="white"/>
<path d="M18.6641 21.674L19.5487 21.9497L20.0025 21.7774L20.0887 20.6515L19.7498 19.7898L18.6641 21.674Z" fill="white"/>
<path d="M13.6893 23.0125L13.0977 23.4146L13.2815 24.236L13.4079 24.3509L14.034 24.1096L13.6893 23.0125Z" fill="white"/>
<path d="M3.2519 20.9272L3.27487 20.864L3.2002 20.7778L3.2519 20.9272Z" fill="white"/>
<path d="M11.7818 23.472L10.7478 22.3863L9.65631 21.3523L9.12207 21.6051L8.24316 22.8861L8.69698 24.4256L9.1393 24.5577C9.52993 24.6669 9.92056 24.753 10.3227 24.822L11.5175 24.0062L11.7818 23.472Z" fill="white"/>
<path d="M11.0807 24.931L11.1783 24.73L10.9141 24.9081C10.9715 24.9138 11.029 24.9253 11.0807 24.931Z" fill="white"/>
<path d="M2.29239 19.761L2.32686 19.7438L2.06836 19.4336C2.13729 19.5485 2.21772 19.6519 2.29239 19.761Z" fill="white"/>
<path d="M4.76229 16.0732L3.89488 15.1541L3.81445 15.2517L4.74506 16.1364L4.76229 16.0732Z" fill="white"/>
<path d="M20.2092 19.0659L20.2149 18.9912L20.1689 19.0716L20.2092 19.0659Z" fill="white"/>
</svg>
