<svg width="40" height="27" viewBox="0 0 40 27" fill="none" xmlns="http://www.w3.org/2000/svg">
<g clip-path="url(#clip0)">
<path d="M1.94059 3.86746C0.831683 3.86746 0 3.04182 0 1.95546C0 0.869091 0.831683 0 1.94059 0H37.9802C39.0891 0 39.9604 0.869091 39.9604 1.95546C39.9604 3.04182 39.0891 3.86746 37.9802 3.86746H1.94059Z" fill="white"/>
<path d="M1.94059 26C0.831683 26 0 25.1744 0 24.088C0 23.0017 0.831683 22.1326 1.94059 22.1326H37.9802C39.0891 22.1326 39.9604 23.0017 39.9604 24.088C39.9604 25.1744 39.0891 26 37.9802 26H1.94059Z" fill="white"/>
<path d="M38.0193 7.39038C39.1282 7.39038 39.9995 8.25947 39.9995 9.34584C39.9995 10.4322 39.1282 11.2578 38.0193 11.2578H1.97966C0.870746 11.2578 0.0390625 10.4322 0.0390625 9.34584C0.0390625 8.25947 0.870746 7.39038 1.97966 7.39038H38.0193Z" fill="white"/>
<path d="M38.0193 14.7805C39.1282 14.7805 39.9995 15.6062 39.9995 16.6925C39.9995 17.7789 39.1282 18.648 38.0193 18.648H1.97966C0.870746 18.648 0.0390625 17.7789 0.0390625 16.6925C0.0390625 15.6062 0.870746 14.7805 1.97966 14.7805H38.0193Z" fill="white"/>
</g>
<defs>
<clipPath id="clip0">
<rect width="40" height="26.4158" fill="white"/>
</clipPath>
</defs>
</svg>
