<svg width="19" height="25" viewBox="0 0 19 25" fill="none" xmlns="http://www.w3.org/2000/svg">
<path d="M3.40939 0.988121C3.68112 0.988121 3.90345 0.765794 3.90345 0.49406C3.90345 0.222327 3.68112 0 3.40939 0H3.38469C3.11295 0 2.89062 0.222327 2.89062 0.49406C2.91533 0.790497 3.13766 0.988121 3.40939 0.988121Z" fill="white"/>
<path d="M1.95109 1.48193C1.67936 1.48193 1.45703 1.70426 1.45703 1.97599C1.45703 2.24773 1.67936 2.47005 1.95109 2.47005C2.22282 2.47005 2.44515 2.24773 2.44515 1.97599C2.44515 1.70426 2.22282 1.48193 1.95109 1.48193Z" fill="white"/>
<path d="M16.5761 2.47005C16.8478 2.47005 17.0702 2.24773 17.0702 1.97599C17.0702 1.70426 16.8478 1.48193 16.5761 1.48193C16.3044 1.48193 16.082 1.70426 16.082 1.97599C16.082 2.24773 16.3044 2.47005 16.5761 2.47005Z" fill="white"/>
<path d="M1.95109 22.5542C1.67936 22.5542 1.45703 22.7765 1.45703 23.0483C1.45703 23.32 1.67936 23.5423 1.95109 23.5423C2.22282 23.5423 2.44515 23.32 2.44515 23.0483C2.44515 22.7765 2.22282 22.5542 1.95109 22.5542Z" fill="white"/>
<path d="M18.5273 0.519496C18.5273 0.247763 18.3049 0.0254354 18.0332 0.0254354H5.36056C5.08882 0.0254354 4.86649 0.247763 4.86649 0.519496C4.86649 0.791229 5.08882 1.01356 5.36056 1.01356H9.14012L0.963418 9.19025V0.988853H2.00094C2.27268 0.988853 2.495 0.766526 2.495 0.494793C2.495 0.22306 2.27268 0.000732422 2.00094 0.000732422H0.49406C0.222327 0.0254354 0 0.247763 0 0.519496V24.5061C0 24.7779 0.222327 25.0002 0.49406 25.0002H18.0332C18.3049 25.0002 18.5273 24.7779 18.5273 24.5061V0.519496ZM6.32397 12.6981C5.7558 12.1299 4.81709 12.1299 4.24892 12.6981L0.963418 15.9589V14.6002L9.88121 5.68243C9.98002 5.58361 10.1035 5.53421 10.227 5.53421C10.3506 5.53421 10.4741 5.58361 10.5729 5.68243C10.7705 5.88005 10.7705 6.17649 10.5729 6.37411L8.152 8.79501C7.88026 9.06674 7.73204 9.43728 7.73204 9.83253C7.73204 10.2278 7.88026 10.5983 8.152 10.8701C8.42373 11.1418 8.79427 11.29 9.18952 11.29C9.58477 11.29 9.95532 11.1418 10.227 10.8701L17.5391 3.55797V4.94134L4.59476 17.861C4.49595 17.9598 4.37243 18.0092 4.24892 18.0092C4.1254 18.0092 4.00189 17.9598 3.90308 17.861C3.80426 17.7622 3.75486 17.6387 3.75486 17.5152C3.75486 17.3917 3.80426 17.2681 3.90308 17.1693L6.32397 14.7484C6.89214 14.1803 6.89214 13.2663 6.32397 12.6981ZM10.5235 0.988853H17.5391V2.12519L9.56007 10.1537C9.46126 10.2525 9.33774 10.3019 9.21423 10.3019C9.09071 10.3019 8.9672 10.2525 8.86838 10.1537C8.76957 10.0549 8.72017 9.93134 8.72017 9.80783C8.72017 9.68431 8.76957 9.5608 8.86838 9.46199L11.2893 7.04109C11.8574 6.47292 11.8574 5.53421 11.2893 4.96604C11.0175 4.69431 10.647 4.54609 10.2518 4.54609C9.8565 4.54609 9.48596 4.69431 9.21423 4.96604L0.963418 13.2168V10.5489L10.5235 0.988853ZM0.963418 17.3422L4.9159 13.3898C5.11352 13.1921 5.40996 13.1921 5.60759 13.3898C5.80521 13.5874 5.80521 13.8838 5.60759 14.0815L3.21139 16.4776C2.93966 16.7494 2.79144 17.1199 2.79144 17.5152C2.79144 17.9104 2.93966 18.281 3.21139 18.5527C3.48313 18.8244 3.85367 18.9726 4.24892 18.9726C4.64417 18.9726 5.01471 18.8244 5.28645 18.5527L17.5638 6.2753V16.2059L13.389 20.3807C13.2902 20.4795 13.1667 20.5289 13.0432 20.5289C12.9197 20.5289 12.7962 20.4795 12.6974 20.3807C12.5985 20.2819 12.5491 20.1584 12.5491 20.0349C12.5491 19.9114 12.5985 19.7878 12.6974 19.689L15.1182 17.2681C15.6864 16.7 15.6864 15.7613 15.1182 15.1931C14.5501 14.6249 13.6114 14.6249 13.0432 15.1931L4.24892 24.0121H0.963418V17.3422ZM5.63229 24.0121L13.7596 15.8848C13.9572 15.6871 14.2536 15.6871 14.4513 15.8848C14.6489 16.0824 14.6489 16.3788 14.4513 16.5765L12.0304 18.9974C11.7586 19.2691 11.6104 19.6396 11.6104 20.0349C11.6104 20.4301 11.7586 20.8007 12.0304 21.0724C12.3021 21.3441 12.6726 21.4924 13.0679 21.4924C13.4631 21.4924 13.8337 21.3441 14.1054 21.0724L17.5638 17.614V24.0368H5.63229V24.0121Z" fill="white"/>
<path d="M16.5761 22.5542C16.3044 22.5542 16.082 22.7765 16.082 23.0483C16.082 23.32 16.3044 23.5423 16.5761 23.5423C16.8478 23.5423 17.0702 23.32 17.0702 23.0483C17.0702 22.7765 16.8478 22.5542 16.5761 22.5542Z" fill="white"/>
<path d="M15.1679 22.5542H13.1669C12.8952 22.5542 12.6729 22.7765 12.6729 23.0483C12.6729 23.32 12.8952 23.5423 13.1669 23.5423H15.1679C15.4396 23.5423 15.6619 23.32 15.6619 23.0483C15.6619 22.7765 15.4396 22.5542 15.1679 22.5542Z" fill="white"/>
</svg>
