<svg width="48" height="48" viewBox="0 0 48 48" fill="none" xmlns="http://www.w3.org/2000/svg">
<g filter="url(#filter0_d)">
<path d="M4 20C4 31.0282 12.9703 40 24.0034 40C35.0365 40 44 31.0282 44 20C44 8.97178 35.0297 -7.84206e-07 24.0034 -1.74816e-06C12.977 -2.71212e-06 4 8.96505 4 20ZM24.5543 9.62366L34.5527 24.2876C34.6266 24.4019 34.6669 24.5296 34.6669 24.664C34.6669 24.7715 34.64 24.879 34.5863 24.9731C34.472 25.1949 34.2436 25.3293 33.995 25.3293L13.9983 25.3293C13.7497 25.3293 13.5212 25.1949 13.407 24.9731C13.2928 24.7513 13.3062 24.4892 13.4473 24.2876L23.4524 9.61694C23.5733 9.43548 23.7816 9.32796 24.0034 9.32796C24.2184 9.32796 24.4267 9.43548 24.5543 9.62366Z" fill="#220033"/>
</g>
<defs>
<filter id="filter0_d" x="0" y="0" width="48" height="48" filterUnits="userSpaceOnUse" color-interpolation-filters="sRGB">
<feFlood flood-opacity="0" result="BackgroundImageFix"/>
<feColorMatrix in="SourceAlpha" type="matrix" values="0 0 0 0 0 0 0 0 0 0 0 0 0 0 0 0 0 0 127 0"/>
<feOffset dy="4"/>
<feGaussianBlur stdDeviation="2"/>
<feColorMatrix type="matrix" values="0 0 0 0 0 0 0 0 0 0 0 0 0 0 0 0 0 0 0.25 0"/>
<feBlend mode="normal" in2="BackgroundImageFix" result="effect1_dropShadow"/>
<feBlend mode="normal" in="SourceGraphic" in2="effect1_dropShadow" result="shape"/>
</filter>
</defs>
</svg>
