<svg width="25" height="21" viewBox="0 0 25 21" fill="none" xmlns="http://www.w3.org/2000/svg">
<path d="M4.48027 16.9462C4.20256 17.0219 4.02584 17.2744 4.10157 17.5268C4.15207 17.754 4.35404 17.9055 4.58125 17.9055C4.6065 17.9055 4.65699 17.9055 4.68224 17.8803H4.70748C4.95994 17.8298 5.13667 17.5521 5.06093 17.2996C5.01044 17.0471 4.75797 16.8704 4.48027 16.9462Z" fill="white"/>
<path d="M24.9811 9.9028C24.2489 7.9841 23.0371 6.2926 21.4466 4.92931L21.7748 4.60111L21.8001 4.57587C21.8001 4.55062 21.8253 4.55062 21.8253 4.52537C21.8253 4.52537 21.8253 4.52537 21.8253 4.50013L21.8505 4.47488C21.8505 4.47488 21.8505 4.47488 21.8505 4.44963C21.8505 4.42439 21.8505 4.42439 21.8758 4.39914L23.0624 0.637465C23.1129 0.460742 23.0624 0.284019 22.9614 0.157788C22.8351 0.0315577 22.6584 -0.0189346 22.4817 0.00631154L18.4676 0.965665C18.4423 0.965665 18.4423 0.965665 18.4171 0.990911C18.4171 0.990911 18.4171 0.990911 18.3918 0.990911C18.3666 0.990911 18.3666 1.01616 18.3413 1.01616C18.3413 1.0414 18.3161 1.0414 18.3161 1.0414C18.3161 1.0414 18.3161 1.0414 18.2908 1.0414L18.2656 1.06665L16.978 2.3542C15.5643 1.87453 14.0747 1.64731 12.5347 1.64731C10.7927 1.64731 9.07599 1.97551 7.48548 2.58142L5.97071 1.06665L5.94547 1.0414C5.94547 1.0414 5.94547 1.0414 5.92022 1.0414L5.89498 1.01616C5.89498 1.01616 5.89498 1.01616 5.86973 1.01616C5.84448 1.01616 5.84448 0.990911 5.81924 0.990911C5.79399 0.990911 5.79399 0.990911 5.76874 0.965665L2.00707 0.0568038C1.83035 0.00631154 1.67887 0.0568038 1.55264 0.183035C1.42641 0.284019 1.37592 0.460742 1.42641 0.637465L2.31002 4.39914C2.31002 4.42439 2.31002 4.42439 2.33527 4.44963C2.33527 4.47488 2.36052 4.47488 2.36052 4.50013C2.36052 4.52537 2.38576 4.52537 2.38576 4.55062C2.38576 4.55062 2.38576 4.55062 2.38576 4.57587L2.41101 4.60111L3.1179 5.308C1.75461 6.6208 0.719515 8.18606 0.0378692 9.9028C-0.0126231 10.0038 -0.0126231 10.13 0.0378692 10.2562C0.8205 12.2759 2.1333 14.0684 3.85004 15.4822L3.4461 15.8861C2.96642 16.3658 2.71396 16.9717 2.71396 17.6534C2.71396 18.3098 2.96642 18.9409 3.4461 19.4206C3.92578 19.9003 4.58218 20.1527 5.21333 20.1527C5.84448 20.1527 6.50088 19.9003 6.98056 19.4206L8.09139 18.3098L8.47008 17.9311C9.75764 18.3098 11.1209 18.5117 12.4842 18.5117C13.6455 18.5117 14.7816 18.3603 15.8672 18.1078L16.0692 18.3098L17.18 19.4206C17.6597 19.9003 18.2656 20.1527 18.9472 20.1527C19.6036 20.1527 20.2348 19.9003 20.7145 19.4206C21.1941 18.9409 21.4466 18.335 21.4466 17.6534C21.4466 16.997 21.1941 16.3658 20.7145 15.8861L20.6892 15.8609C22.6584 14.4219 24.1227 12.5032 24.9811 10.2815C25.0063 10.1553 25.0063 10.029 24.9811 9.9028ZM20.1843 3.9952C20.0581 3.91947 19.9318 3.84373 19.8056 3.74274L19.9823 3.56602L20.7145 4.29816L20.6892 4.3234C20.5125 4.22242 20.361 4.09619 20.1843 3.9952ZM21.8758 1.19288L21.1941 3.36405L19.5531 1.72305L21.8758 1.19288ZM18.5938 2.15223L19.3259 2.88437L18.9472 3.23782C18.619 3.0611 18.2908 2.90962 17.9626 2.75814L18.5938 2.15223ZM5.61727 2.15223L6.50088 3.03585C6.17268 3.18733 5.86973 3.36405 5.54153 3.54077L4.88513 2.88437L5.61727 2.15223ZM3.06741 3.31356L2.56248 1.19288L4.65791 1.72305L3.06741 3.31356ZM3.47135 4.27291L4.20348 3.54077L4.70841 4.0457C4.4307 4.24766 4.15299 4.44963 3.87528 4.67685L3.47135 4.27291ZM0.997223 10.0795C1.62838 8.51427 2.58773 7.15097 3.79955 6.0149C4.05201 5.78768 4.30447 5.58571 4.55693 5.38374C4.83464 5.15653 5.11234 4.95456 5.39005 4.77783C5.66776 4.60111 5.94547 4.42439 6.24842 4.24767C6.55138 4.07094 6.87958 3.91947 7.20778 3.76799C7.28351 3.74274 7.35925 3.69225 7.46024 3.667C7.3845 3.7175 7.33401 3.76799 7.25827 3.81848C7.00581 4.0457 6.75335 4.27291 6.50088 4.52537C6.27367 4.75259 6.0717 5.00505 5.86973 5.28276C5.66776 5.56046 5.46579 5.86342 5.31431 6.16637C5.13759 6.46933 5.01136 6.77228 4.85988 7.10048C4.50644 8.03459 4.30447 9.04443 4.30447 10.0795C4.30447 11.4933 4.65791 12.8314 5.31431 13.9927C5.46579 14.2956 5.64251 14.5733 5.84448 14.851C6.04645 15.1288 6.27367 15.4065 6.50088 15.6589C6.7281 15.8861 6.95531 16.1134 7.20778 16.3406C7.28351 16.4163 7.35925 16.4668 7.46024 16.5425C7.35925 16.4921 7.25827 16.4416 7.15728 16.4163C6.22318 15.9871 5.33956 15.457 4.53168 14.8258C2.99167 13.5382 1.75461 11.9477 0.997223 10.0795ZM7.0563 17.9563L6.42514 18.5875L6.17268 18.3098C5.99596 18.1078 5.66776 18.1078 5.49104 18.2845C5.28907 18.4613 5.28907 18.7894 5.46579 18.9662L5.59202 19.0924C5.0871 19.2186 4.55693 19.0672 4.17824 18.6885C3.90053 18.4108 3.72381 18.0321 3.72381 17.6281C3.72381 17.2242 3.87528 16.8455 4.17824 16.5678L4.68316 16.0629C4.73365 16.1134 4.78415 16.1386 4.85988 16.1891C5.23858 16.4416 5.64251 16.6688 6.04645 16.896L7.0563 17.9563ZM12.5095 17.2999C11.4996 17.2999 10.5403 17.098 9.6819 16.7193C9.3537 16.593 9.05074 16.4163 8.77304 16.2396C8.47008 16.0629 8.19238 15.8609 7.93991 15.6337C7.68745 15.4317 7.46024 15.2045 7.23302 14.952C7.10679 14.8006 6.98056 14.6491 6.85433 14.4976C6.7281 14.3209 6.60187 14.1442 6.47564 13.9674C5.7435 12.8314 5.31431 11.4933 5.31431 10.0543C5.31431 8.99394 5.54153 8.00934 5.94547 7.10048C6.02121 6.949 6.09694 6.77228 6.17268 6.6208C6.29891 6.39359 6.45039 6.16637 6.60187 5.93916C6.77859 5.66145 7.00581 5.40899 7.20778 5.18177C7.43499 4.92931 7.68745 4.7021 7.96516 4.47488C8.21762 4.27291 8.49533 4.07094 8.77304 3.89422C9.85862 3.23782 11.1462 2.85913 12.5095 2.85913C13.6708 2.85913 14.7564 3.13683 15.7157 3.61651C16.0187 3.76799 16.3216 3.94471 16.5993 4.12143C16.8771 4.3234 17.1548 4.52537 17.4072 4.77783C17.6344 5.00505 17.8617 5.23226 18.0889 5.48473C18.3161 5.73719 18.5181 6.04014 18.6948 6.31785C18.7958 6.49457 18.8967 6.69654 18.9977 6.87327C19.4774 7.83262 19.7299 8.9182 19.7299 10.0543C19.7299 11.569 19.2502 13.0081 18.4423 14.1694C18.3413 14.3209 18.2403 14.4724 18.1141 14.5986C17.8869 14.8763 17.6597 15.1035 17.4072 15.356C17.1548 15.5832 16.9023 15.7852 16.6498 15.9619C16.3721 16.1638 16.0692 16.3406 15.741 16.492C15.4128 16.694 15.0846 16.8202 14.7564 16.9465C14.0495 17.1737 13.2921 17.2999 12.5095 17.2999ZM20.0328 18.7137C19.7551 18.9914 19.3764 19.1681 18.9725 19.1681C18.5685 19.1681 18.1899 19.0167 17.9121 18.7137L17.1548 17.9563L17.5082 17.6029C18.3413 17.2747 19.124 16.896 19.8813 16.4163L20.0581 16.593C20.3358 16.8707 20.5125 17.2494 20.5125 17.6534C20.4872 18.0321 20.3105 18.4108 20.0328 18.7137ZM20.0076 15.154C19.2502 15.7094 18.4171 16.1638 17.5587 16.5425C18.2656 15.9871 18.8967 15.3055 19.4017 14.5481C20.2348 13.2605 20.7145 11.7458 20.7145 10.13C20.7145 8.86771 20.4115 7.6559 19.9066 6.57031C19.7551 6.26736 19.6036 5.9644 19.4017 5.6867C19.2249 5.40899 18.9977 5.13128 18.7958 4.85357C18.5938 4.60111 18.3666 4.3739 18.1141 4.14668C17.9374 3.9952 17.7607 3.84373 17.5839 3.69225C17.8112 3.79323 18.0384 3.89422 18.2656 3.9952C18.5685 4.14668 18.8715 4.29816 19.1492 4.47488C19.4522 4.6516 19.7299 4.85357 20.0328 5.05554C20.3105 5.25751 20.563 5.45948 20.8155 5.66145C22.2292 6.87326 23.3653 8.38803 24.0722 10.1048C23.1886 12.1245 21.7748 13.8664 20.0076 15.154Z" fill="white"/>
<path d="M17.2301 14.1689C18.1895 13.0834 18.7701 11.6443 18.7701 10.0791C18.7701 8.91774 18.4672 7.8574 17.9118 6.92329C17.5836 6.39312 17.2049 5.8882 16.7252 5.45902C16.4727 5.2318 16.195 5.00458 15.8921 4.82786C15.6144 4.65114 15.3114 4.47442 14.9832 4.34818C14.2258 4.01998 13.3927 3.84326 12.5091 3.84326C11.4235 3.84326 10.3884 4.12097 9.47955 4.62589C9.1766 4.77737 8.89889 4.97934 8.64643 5.18131C8.36872 5.38328 8.11626 5.63574 7.88905 5.8882C7.56085 6.26689 7.25789 6.67083 7.00543 7.12526C6.52575 8.00888 6.24805 9.01872 6.24805 10.1043C6.24805 11.5938 6.77822 12.9571 7.63659 14.0427C7.93954 14.4214 8.31823 14.7748 8.69692 15.0778C8.92414 15.2545 9.1766 15.4312 9.45431 15.5827C9.75726 15.7594 10.0855 15.8857 10.4137 16.0119C11.0701 16.2391 11.777 16.3654 12.5091 16.3654C13.014 16.3654 13.4937 16.3149 13.9734 16.1886C14.3268 16.1129 14.6803 15.9867 15.0085 15.8352C15.3367 15.6837 15.6649 15.5322 15.9426 15.3303C16.4222 14.9768 16.8514 14.5981 17.2301 14.1689ZM12.5091 15.3808C11.171 15.3808 9.93398 14.8758 8.99988 14.0427C7.91429 13.0834 7.23265 11.6696 7.23265 10.1043C7.23265 8.99348 7.58609 7.95838 8.16675 7.10002C8.67168 6.34263 9.37857 5.73672 10.2117 5.35803C10.9186 5.00458 11.7012 4.82786 12.5343 4.82786C13.1402 4.82786 13.7209 4.92885 14.2763 5.13082C14.6045 5.25705 14.9327 5.38328 15.2104 5.56C15.3114 5.61049 15.4124 5.68623 15.5134 5.76197C15.9931 6.09017 16.4222 6.51935 16.7757 6.97378C17.4321 7.8574 17.8108 8.94298 17.8108 10.1043C17.8108 11.7453 17.0534 13.2096 15.8921 14.1689C14.958 14.9263 13.7966 15.3808 12.5091 15.3808Z" fill="white"/>
<path d="M16.3459 10.5592C16.6236 10.5592 16.8256 10.332 16.8256 10.0795C16.8256 9.80182 16.5983 9.59985 16.3459 9.59985C16.0682 9.59985 15.8662 9.82707 15.8662 10.0795C15.8662 10.3572 16.0934 10.5592 16.3459 10.5592Z" fill="white"/>
<path d="M16.2454 9.09446C16.4979 8.99347 16.5989 8.71576 16.5231 8.4633C16.2959 7.88264 15.9425 7.37772 15.5133 6.97378C14.7306 6.21639 13.6703 5.76196 12.509 5.76196C12.2313 5.76196 12.0293 5.98918 12.0293 6.24164C12.0293 6.51935 12.2565 6.72132 12.509 6.72132C12.9634 6.72132 13.4178 6.8223 13.8218 6.99902C14.6297 7.35247 15.2861 7.98362 15.6143 8.84199C15.69 9.01872 15.8667 9.14495 16.0687 9.14495C16.1444 9.1197 16.1949 9.1197 16.2454 9.09446Z" fill="white"/>
</svg>
