<svg width="296" height="395" viewBox="0 0 296 395" fill="none" xmlns="http://www.w3.org/2000/svg">
<path d="M56.602 305.26H55.198V300.652H57.088L56.602 305.26ZM53.398 305.26H51.994V300.652H53.884L53.398 305.26ZM73.2883 304L70.2823 313H68.1763L65.9083 306.196L63.7483 313H61.6423L58.6363 304H60.7243L62.7583 311.2L65.0083 304H66.9163L69.1483 311.2L71.2003 304H73.2883ZM80.13 303.82C81.126 303.82 81.936 304.108 82.56 304.684C83.196 305.26 83.514 306.088 83.514 307.168V313H81.588V307.78C81.588 306.196 80.946 305.404 79.662 305.404C78.99 305.404 78.414 305.638 77.934 306.106C77.454 306.574 77.214 307.288 77.214 308.248V313H75.288V299.95H77.214V305.44C77.514 304.888 77.91 304.48 78.402 304.216C78.906 303.952 79.482 303.82 80.13 303.82ZM94.4785 308.23C94.4785 308.578 94.4545 308.908 94.4065 309.22H87.8185C87.9265 310.012 88.2085 310.618 88.6645 311.038C89.1205 311.446 89.7085 311.65 90.4285 311.65C91.0165 311.65 91.5025 311.548 91.8865 311.344C92.2825 311.128 92.5525 310.822 92.6965 310.426L94.2985 311.092C93.6265 312.484 92.3365 313.18 90.4285 313.18C89.0125 313.18 87.9025 312.766 87.0985 311.938C86.3065 311.11 85.9105 309.964 85.9105 308.5C85.9105 307.024 86.2945 305.878 87.0625 305.062C87.8305 304.234 88.9105 303.82 90.3025 303.82C91.6225 303.82 92.6485 304.222 93.3805 305.026C94.1125 305.83 94.4785 306.898 94.4785 308.23ZM90.3025 305.35C89.6065 305.35 89.0425 305.554 88.6105 305.962C88.1905 306.37 87.9265 306.964 87.8185 307.744H92.6785C92.5825 306.988 92.3245 306.4 91.9045 305.98C91.4965 305.56 90.9625 305.35 90.3025 305.35ZM101.733 303.82C102.729 303.82 103.539 304.108 104.163 304.684C104.799 305.26 105.117 306.088 105.117 307.168V313H103.191V307.78C103.191 306.196 102.549 305.404 101.265 305.404C100.593 305.404 100.017 305.638 99.5375 306.106C99.0575 306.562 98.8175 307.27 98.8175 308.23V313H96.8915V304H98.6015L98.6915 305.494C98.9915 304.93 99.4055 304.51 99.9335 304.234C100.461 303.958 101.061 303.82 101.733 303.82ZM127.165 304L124.159 313H122.053L119.785 306.196L117.625 313H115.519L112.513 304H114.601L116.635 311.2L118.885 304H120.793L123.025 311.2L125.077 304H127.165ZM136.947 308.23C136.947 308.578 136.923 308.908 136.875 309.22H130.287C130.395 310.012 130.677 310.618 131.133 311.038C131.589 311.446 132.177 311.65 132.897 311.65C133.485 311.65 133.971 311.548 134.355 311.344C134.751 311.128 135.021 310.822 135.165 310.426L136.767 311.092C136.095 312.484 134.805 313.18 132.897 313.18C131.481 313.18 130.371 312.766 129.567 311.938C128.775 311.11 128.379 309.964 128.379 308.5C128.379 307.024 128.763 305.878 129.531 305.062C130.299 304.234 131.379 303.82 132.771 303.82C134.091 303.82 135.117 304.222 135.849 305.026C136.581 305.83 136.947 306.898 136.947 308.23ZM132.771 305.35C132.075 305.35 131.511 305.554 131.079 305.962C130.659 306.37 130.395 306.964 130.287 307.744H135.147C135.051 306.988 134.793 306.4 134.373 305.98C133.965 305.56 133.431 305.35 132.771 305.35ZM156.068 303.82C156.668 303.82 157.22 303.946 157.724 304.198C158.228 304.438 158.63 304.81 158.93 305.314C159.23 305.818 159.38 306.436 159.38 307.168V313H157.454V307.474C157.454 306.766 157.286 306.244 156.95 305.908C156.614 305.572 156.164 305.404 155.6 305.404C154.94 305.404 154.382 305.644 153.926 306.124C153.482 306.604 153.26 307.264 153.26 308.104V313H151.334V307.474C151.334 306.766 151.166 306.244 150.83 305.908C150.494 305.572 150.044 305.404 149.48 305.404C149.096 305.404 148.724 305.506 148.364 305.71C148.004 305.902 147.71 306.208 147.482 306.628C147.254 307.048 147.14 307.576 147.14 308.212V313H145.214V304H146.924L147.014 305.494C147.314 304.942 147.722 304.528 148.238 304.252C148.754 303.964 149.318 303.82 149.93 303.82C150.602 303.82 151.208 303.976 151.748 304.288C152.3 304.588 152.708 305.032 152.972 305.62C153.248 305.032 153.668 304.588 154.232 304.288C154.808 303.976 155.42 303.82 156.068 303.82ZM170.076 311.74C170.34 311.74 170.562 311.716 170.742 311.668L170.616 312.964C170.292 313.108 169.92 313.18 169.5 313.18C168.984 313.18 168.57 313.078 168.258 312.874C167.958 312.67 167.76 312.328 167.664 311.848C167.388 312.268 166.98 312.598 166.44 312.838C165.9 313.066 165.294 313.18 164.622 313.18C163.746 313.18 163.038 312.976 162.498 312.568C161.958 312.16 161.688 311.578 161.688 310.822C161.688 310.114 161.982 309.52 162.57 309.04C163.158 308.548 164.034 308.2 165.198 307.996L167.484 307.6V307.114C167.484 306.562 167.322 306.13 166.998 305.818C166.674 305.494 166.224 305.332 165.648 305.332C164.46 305.332 163.686 305.872 163.326 306.952L161.832 306.16C162.048 305.44 162.486 304.87 163.146 304.45C163.818 304.03 164.64 303.82 165.612 303.82C166.776 303.82 167.7 304.09 168.384 304.63C169.068 305.17 169.41 305.962 169.41 307.006V311.074C169.41 311.302 169.458 311.47 169.554 311.578C169.662 311.686 169.836 311.74 170.076 311.74ZM165.036 311.722C165.684 311.722 166.254 311.566 166.746 311.254C167.238 310.942 167.484 310.528 167.484 310.012V308.932L165.522 309.328C164.898 309.448 164.436 309.616 164.136 309.832C163.836 310.048 163.686 310.336 163.686 310.696C163.686 311.032 163.8 311.29 164.028 311.47C164.268 311.638 164.604 311.722 165.036 311.722ZM176.273 308.77L174.491 310.606V313H172.565V299.95H174.491V308.41L178.793 304H181.061L177.623 307.528L181.277 313H179.045L176.273 308.77ZM190.719 308.23C190.719 308.578 190.695 308.908 190.647 309.22H184.059C184.167 310.012 184.449 310.618 184.905 311.038C185.361 311.446 185.949 311.65 186.669 311.65C187.257 311.65 187.743 311.548 188.127 311.344C188.523 311.128 188.793 310.822 188.937 310.426L190.539 311.092C189.867 312.484 188.577 313.18 186.669 313.18C185.253 313.18 184.143 312.766 183.339 311.938C182.547 311.11 182.151 309.964 182.151 308.5C182.151 307.024 182.535 305.878 183.303 305.062C184.071 304.234 185.151 303.82 186.543 303.82C187.863 303.82 188.889 304.222 189.621 305.026C190.353 305.83 190.719 306.898 190.719 308.23ZM186.543 305.35C185.847 305.35 185.283 305.554 184.851 305.962C184.431 306.37 184.167 306.964 184.059 307.744H188.919C188.823 306.988 188.565 306.4 188.145 305.98C187.737 305.56 187.203 305.35 186.543 305.35ZM203.827 303.82C205.063 303.82 206.035 304.234 206.743 305.062C207.451 305.878 207.805 307.018 207.805 308.482C207.805 309.946 207.451 311.098 206.743 311.938C206.035 312.766 205.063 313.18 203.827 313.18C203.179 313.18 202.597 313.036 202.081 312.748C201.577 312.46 201.187 312.064 200.911 311.56V316.78H198.985V304H200.677L200.767 305.674C201.031 305.11 201.427 304.66 201.955 304.324C202.495 303.988 203.119 303.82 203.827 303.82ZM203.395 311.614C204.175 311.614 204.781 311.344 205.213 310.804C205.657 310.252 205.879 309.484 205.879 308.5C205.879 307.516 205.657 306.748 205.213 306.196C204.781 305.644 204.175 305.368 203.395 305.368C202.663 305.368 202.075 305.614 201.631 306.106C201.199 306.598 200.959 307.282 200.911 308.158V308.842C200.959 309.706 201.199 310.384 201.631 310.876C202.075 311.368 202.663 311.614 203.395 311.614ZM212.178 310.372C212.178 310.816 212.244 311.128 212.376 311.308C212.508 311.476 212.754 311.56 213.114 311.56C213.342 311.56 213.534 311.548 213.69 311.524C213.858 311.488 214.062 311.422 214.302 311.326L214.086 312.874C213.678 313.078 213.18 313.18 212.592 313.18C211.788 313.18 211.194 312.976 210.81 312.568C210.438 312.16 210.252 311.518 210.252 310.642V299.95H212.178V310.372ZM223.707 311.74C223.971 311.74 224.193 311.716 224.373 311.668L224.247 312.964C223.923 313.108 223.551 313.18 223.131 313.18C222.615 313.18 222.201 313.078 221.889 312.874C221.589 312.67 221.391 312.328 221.295 311.848C221.019 312.268 220.611 312.598 220.071 312.838C219.531 313.066 218.925 313.18 218.253 313.18C217.377 313.18 216.669 312.976 216.129 312.568C215.589 312.16 215.319 311.578 215.319 310.822C215.319 310.114 215.613 309.52 216.201 309.04C216.789 308.548 217.665 308.2 218.829 307.996L221.115 307.6V307.114C221.115 306.562 220.953 306.13 220.629 305.818C220.305 305.494 219.855 305.332 219.279 305.332C218.091 305.332 217.317 305.872 216.957 306.952L215.463 306.16C215.679 305.44 216.117 304.87 216.777 304.45C217.449 304.03 218.271 303.82 219.243 303.82C220.407 303.82 221.331 304.09 222.015 304.63C222.699 305.17 223.041 305.962 223.041 307.006V311.074C223.041 311.302 223.089 311.47 223.185 311.578C223.293 311.686 223.467 311.74 223.707 311.74ZM218.667 311.722C219.315 311.722 219.885 311.566 220.377 311.254C220.869 310.942 221.115 310.528 221.115 310.012V308.932L219.153 309.328C218.529 309.448 218.067 309.616 217.767 309.832C217.467 310.048 217.317 310.336 217.317 310.696C217.317 311.032 217.431 311.29 217.659 311.47C217.899 311.638 218.235 311.722 218.667 311.722ZM231.038 303.82C232.034 303.82 232.844 304.108 233.468 304.684C234.104 305.26 234.422 306.088 234.422 307.168V313H232.496V307.78C232.496 306.196 231.854 305.404 230.57 305.404C229.898 305.404 229.322 305.638 228.842 306.106C228.362 306.562 228.122 307.27 228.122 308.23V313H226.196V304H227.906L227.996 305.494C228.296 304.93 228.71 304.51 229.238 304.234C229.766 303.958 230.366 303.82 231.038 303.82ZM240.599 313.18C239.687 313.18 238.877 313.024 238.169 312.712C237.473 312.4 236.945 311.926 236.585 311.29L237.881 310.174C238.109 310.69 238.463 311.068 238.943 311.308C239.423 311.548 239.999 311.668 240.671 311.668C241.283 311.668 241.757 311.572 242.093 311.38C242.429 311.176 242.597 310.912 242.597 310.588C242.597 310.3 242.441 310.072 242.129 309.904C241.817 309.724 241.277 309.556 240.509 309.4C239.177 309.148 238.241 308.812 237.701 308.392C237.161 307.972 236.891 307.378 236.891 306.61C236.891 306.118 237.041 305.662 237.341 305.242C237.641 304.81 238.073 304.468 238.637 304.216C239.213 303.952 239.891 303.82 240.671 303.82C241.667 303.82 242.465 303.988 243.065 304.324C243.665 304.648 244.127 305.158 244.451 305.854L243.083 306.862C242.867 306.334 242.561 305.95 242.165 305.71C241.781 305.458 241.289 305.332 240.689 305.332C240.149 305.332 239.699 305.446 239.339 305.674C238.991 305.89 238.817 306.142 238.817 306.43C238.817 306.754 238.973 307.012 239.285 307.204C239.609 307.396 240.191 307.57 241.031 307.726C242.303 307.954 243.203 308.278 243.731 308.698C244.259 309.118 244.523 309.706 244.523 310.462C244.523 311.266 244.175 311.92 243.479 312.424C242.783 312.928 241.823 313.18 240.599 313.18ZM81.8664 333L78.8604 342H76.7544L74.4864 335.196L72.3264 342H70.2204L67.2144 333H69.3024L71.3364 340.2L73.5864 333H75.4944L77.7264 340.2L79.7784 333H81.8664ZM91.6484 337.23C91.6484 337.578 91.6244 337.908 91.5764 338.22H84.9884C85.0964 339.012 85.3784 339.618 85.8344 340.038C86.2904 340.446 86.8784 340.65 87.5984 340.65C88.1864 340.65 88.6724 340.548 89.0564 340.344C89.4524 340.128 89.7224 339.822 89.8664 339.426L91.4684 340.092C90.7964 341.484 89.5064 342.18 87.5984 342.18C86.1824 342.18 85.0724 341.766 84.2684 340.938C83.4764 340.11 83.0804 338.964 83.0804 337.5C83.0804 336.024 83.4644 334.878 84.2324 334.062C85.0004 333.234 86.0804 332.82 87.4724 332.82C88.7924 332.82 89.8184 333.222 90.5504 334.026C91.2824 334.83 91.6484 335.898 91.6484 337.23ZM87.4724 334.35C86.7764 334.35 86.2124 334.554 85.7804 334.962C85.3604 335.37 85.0964 335.964 84.9884 336.744H89.8484C89.7524 335.988 89.4944 335.4 89.0744 334.98C88.6664 334.56 88.1324 334.35 87.4724 334.35ZM107.691 340.74C107.955 340.74 108.177 340.716 108.357 340.668L108.231 341.964C107.907 342.108 107.535 342.18 107.115 342.18C106.599 342.18 106.185 342.078 105.873 341.874C105.573 341.67 105.375 341.328 105.279 340.848C105.003 341.268 104.595 341.598 104.055 341.838C103.515 342.066 102.909 342.18 102.237 342.18C101.361 342.18 100.653 341.976 100.113 341.568C99.5729 341.16 99.3029 340.578 99.3029 339.822C99.3029 339.114 99.5969 338.52 100.185 338.04C100.773 337.548 101.649 337.2 102.813 336.996L105.099 336.6V336.114C105.099 335.562 104.937 335.13 104.613 334.818C104.289 334.494 103.839 334.332 103.263 334.332C102.075 334.332 101.301 334.872 100.941 335.952L99.4469 335.16C99.6629 334.44 100.101 333.87 100.761 333.45C101.433 333.03 102.255 332.82 103.227 332.82C104.391 332.82 105.315 333.09 105.999 333.63C106.683 334.17 107.025 334.962 107.025 336.006V340.074C107.025 340.302 107.073 340.47 107.169 340.578C107.277 340.686 107.451 340.74 107.691 340.74ZM102.651 340.722C103.299 340.722 103.869 340.566 104.361 340.254C104.853 339.942 105.099 339.528 105.099 339.012V337.932L103.137 338.328C102.513 338.448 102.051 338.616 101.751 338.832C101.451 339.048 101.301 339.336 101.301 339.696C101.301 340.032 101.415 340.29 101.643 340.47C101.883 340.638 102.219 340.722 102.651 340.722ZM112.053 339.372C112.053 339.816 112.119 340.128 112.251 340.308C112.383 340.476 112.629 340.56 112.989 340.56C113.217 340.56 113.409 340.548 113.565 340.524C113.733 340.488 113.937 340.422 114.177 340.326L113.961 341.874C113.553 342.078 113.055 342.18 112.467 342.18C111.663 342.18 111.069 341.976 110.685 341.568C110.313 341.16 110.127 340.518 110.127 339.642V328.95H112.053V339.372ZM129.187 333L126.181 342H124.075L121.807 335.196L119.647 342H117.541L114.535 333H116.623L118.657 340.2L120.907 333H122.815L125.047 340.2L127.099 333H129.187ZM138.787 340.74C139.051 340.74 139.273 340.716 139.453 340.668L139.327 341.964C139.003 342.108 138.631 342.18 138.211 342.18C137.695 342.18 137.281 342.078 136.969 341.874C136.669 341.67 136.471 341.328 136.375 340.848C136.099 341.268 135.691 341.598 135.151 341.838C134.611 342.066 134.005 342.18 133.333 342.18C132.457 342.18 131.749 341.976 131.209 341.568C130.669 341.16 130.399 340.578 130.399 339.822C130.399 339.114 130.693 338.52 131.281 338.04C131.869 337.548 132.745 337.2 133.909 336.996L136.195 336.6V336.114C136.195 335.562 136.033 335.13 135.709 334.818C135.385 334.494 134.935 334.332 134.359 334.332C133.171 334.332 132.397 334.872 132.037 335.952L130.543 335.16C130.759 334.44 131.197 333.87 131.857 333.45C132.529 333.03 133.351 332.82 134.323 332.82C135.487 332.82 136.411 333.09 137.095 333.63C137.779 334.17 138.121 334.962 138.121 336.006V340.074C138.121 340.302 138.169 340.47 138.265 340.578C138.373 340.686 138.547 340.74 138.787 340.74ZM133.747 340.722C134.395 340.722 134.965 340.566 135.457 340.254C135.949 339.942 136.195 339.528 136.195 339.012V337.932L134.233 338.328C133.609 338.448 133.147 338.616 132.847 338.832C132.547 339.048 132.397 339.336 132.397 339.696C132.397 340.032 132.511 340.29 132.739 340.47C132.979 340.638 133.315 340.722 133.747 340.722ZM144.889 343.062C144.493 344.094 144.043 344.82 143.539 345.24C143.035 345.66 142.375 345.87 141.559 345.87C141.091 345.87 140.683 345.81 140.335 345.69C139.999 345.582 139.699 345.402 139.435 345.15L139.993 343.674C140.353 344.106 140.845 344.322 141.469 344.322C141.829 344.322 142.129 344.226 142.369 344.034C142.621 343.854 142.843 343.518 143.035 343.026L143.431 342.054L142.495 339.822L139.687 333H141.847L143.827 338.652L144.349 340.344L144.961 338.49L146.833 333H148.831L144.889 343.062ZM153.605 342.18C152.693 342.18 151.883 342.024 151.175 341.712C150.479 341.4 149.951 340.926 149.591 340.29L150.887 339.174C151.115 339.69 151.469 340.068 151.949 340.308C152.429 340.548 153.005 340.668 153.677 340.668C154.289 340.668 154.763 340.572 155.099 340.38C155.435 340.176 155.603 339.912 155.603 339.588C155.603 339.3 155.447 339.072 155.135 338.904C154.823 338.724 154.283 338.556 153.515 338.4C152.183 338.148 151.247 337.812 150.707 337.392C150.167 336.972 149.897 336.378 149.897 335.61C149.897 335.118 150.047 334.662 150.347 334.242C150.647 333.81 151.079 333.468 151.643 333.216C152.219 332.952 152.897 332.82 153.677 332.82C154.673 332.82 155.471 332.988 156.071 333.324C156.671 333.648 157.133 334.158 157.457 334.854L156.089 335.862C155.873 335.334 155.567 334.95 155.171 334.71C154.787 334.458 154.295 334.332 153.695 334.332C153.155 334.332 152.705 334.446 152.345 334.674C151.997 334.89 151.823 335.142 151.823 335.43C151.823 335.754 151.979 336.012 152.291 336.204C152.615 336.396 153.197 336.57 154.037 336.726C155.309 336.954 156.209 337.278 156.737 337.698C157.265 338.118 157.529 338.706 157.529 339.462C157.529 340.266 157.181 340.92 156.485 341.424C155.789 341.928 154.829 342.18 153.605 342.18ZM170.569 332.82C171.805 332.82 172.777 333.234 173.485 334.062C174.193 334.878 174.547 336.018 174.547 337.482C174.547 338.946 174.193 340.098 173.485 340.938C172.777 341.766 171.805 342.18 170.569 342.18C169.921 342.18 169.339 342.036 168.823 341.748C168.319 341.46 167.929 341.064 167.653 340.56V345.78H165.727V333H167.419L167.509 334.674C167.773 334.11 168.169 333.66 168.697 333.324C169.237 332.988 169.861 332.82 170.569 332.82ZM170.137 340.614C170.917 340.614 171.523 340.344 171.955 339.804C172.399 339.252 172.621 338.484 172.621 337.5C172.621 336.516 172.399 335.748 171.955 335.196C171.523 334.644 170.917 334.368 170.137 334.368C169.405 334.368 168.817 334.614 168.373 335.106C167.941 335.598 167.701 336.282 167.653 337.158V337.842C167.701 338.706 167.941 339.384 168.373 339.876C168.817 340.368 169.405 340.614 170.137 340.614ZM185.202 333V342H183.492L183.42 340.542C182.808 341.634 181.74 342.18 180.216 342.18C179.244 342.18 178.458 341.916 177.858 341.388C177.27 340.848 176.976 340.026 176.976 338.922V333H178.902V338.418C178.902 339.21 179.058 339.774 179.37 340.11C179.682 340.434 180.144 340.596 180.756 340.596C181.488 340.596 182.088 340.368 182.556 339.912C183.036 339.444 183.276 338.76 183.276 337.86V333H185.202ZM194.024 341.406C193.736 341.646 193.382 341.838 192.962 341.982C192.554 342.114 192.11 342.18 191.63 342.18C190.802 342.18 190.136 341.976 189.632 341.568C189.14 341.148 188.888 340.5 188.876 339.624V334.512H187.166V333H188.876V330.894L190.802 330.354V333H193.952V334.512H190.802V339.3C190.802 339.732 190.916 340.056 191.144 340.272C191.384 340.476 191.708 340.578 192.116 340.578C192.668 340.578 193.154 340.386 193.574 340.002L194.024 341.406ZM205.635 332.82C207.039 332.82 208.137 333.234 208.929 334.062C209.721 334.89 210.117 336.036 210.117 337.5C210.117 338.964 209.721 340.11 208.929 340.938C208.137 341.766 207.039 342.18 205.635 342.18C204.231 342.18 203.133 341.766 202.341 340.938C201.549 340.11 201.153 338.964 201.153 337.5C201.153 336.036 201.549 334.89 202.341 334.062C203.133 333.234 204.231 332.82 205.635 332.82ZM205.635 334.332C204.819 334.332 204.189 334.608 203.745 335.16C203.313 335.7 203.097 336.48 203.097 337.5C203.097 338.52 203.313 339.306 203.745 339.858C204.189 340.398 204.819 340.668 205.635 340.668C206.451 340.668 207.081 340.392 207.525 339.84C207.969 339.288 208.191 338.508 208.191 337.5C208.191 336.492 207.969 335.712 207.525 335.16C207.081 334.608 206.451 334.332 205.635 334.332ZM220.745 333V342H219.035L218.963 340.542C218.351 341.634 217.283 342.18 215.759 342.18C214.787 342.18 214.001 341.916 213.401 341.388C212.813 340.848 212.519 340.026 212.519 338.922V333H214.445V338.418C214.445 339.21 214.601 339.774 214.913 340.11C215.225 340.434 215.687 340.596 216.299 340.596C217.031 340.596 217.631 340.368 218.099 339.912C218.579 339.444 218.819 338.76 218.819 337.86V333H220.745ZM228.379 332.82C228.799 332.82 229.129 332.88 229.369 333L229.063 334.764C228.787 334.608 228.409 334.53 227.929 334.53C227.545 334.53 227.179 334.632 226.831 334.836C226.495 335.04 226.213 335.346 225.985 335.754C225.769 336.162 225.661 336.654 225.661 337.23V342H223.735V333H225.373L225.535 334.62C226.039 333.42 226.987 332.82 228.379 332.82ZM68.912 362.82C70.88 362.82 72.182 363.66 72.818 365.34L71.018 366.06C70.706 364.92 70.004 364.35 68.912 364.35C68.108 364.35 67.484 364.626 67.04 365.178C66.596 365.73 66.374 366.51 66.374 367.518C66.374 368.526 66.596 369.3 67.04 369.84C67.484 370.38 68.108 370.65 68.912 370.65C69.524 370.65 70.016 370.5 70.388 370.2C70.76 369.9 71.006 369.468 71.126 368.904L72.89 369.498C72.626 370.338 72.158 370.998 71.486 371.478C70.814 371.946 69.968 372.18 68.948 372.18C67.532 372.18 66.422 371.766 65.618 370.938C64.826 370.11 64.43 368.964 64.43 367.5C64.43 366.036 64.826 364.89 65.618 364.062C66.41 363.234 67.508 362.82 68.912 362.82ZM79.9894 362.82C80.9854 362.82 81.7954 363.108 82.4194 363.684C83.0554 364.26 83.3734 365.088 83.3734 366.168V372H81.4474V366.78C81.4474 365.196 80.8054 364.404 79.5214 364.404C78.8494 364.404 78.2734 364.638 77.7934 365.106C77.3134 365.574 77.0734 366.288 77.0734 367.248V372H75.1474V358.95H77.0734V364.44C77.3734 363.888 77.7694 363.48 78.2614 363.216C78.7654 362.952 79.3414 362.82 79.9894 362.82ZM87.2639 361.488C86.8559 361.488 86.5379 361.386 86.3099 361.182C86.0819 360.966 85.9679 360.666 85.9679 360.282C85.9679 359.898 86.0819 359.604 86.3099 359.4C86.5379 359.196 86.8559 359.094 87.2639 359.094C87.6719 359.094 87.9839 359.196 88.1999 359.4C88.4279 359.604 88.5419 359.898 88.5419 360.282C88.5419 360.666 88.4279 360.966 88.1999 361.182C87.9839 361.386 87.6719 361.488 87.2639 361.488ZM88.2179 372H86.2919V363H88.2179V372ZM93.1033 369.372C93.1033 369.816 93.1693 370.128 93.3013 370.308C93.4333 370.476 93.6793 370.56 94.0393 370.56C94.2673 370.56 94.4593 370.548 94.6153 370.524C94.7833 370.488 94.9873 370.422 95.2273 370.326L95.0113 371.874C94.6033 372.078 94.1053 372.18 93.5173 372.18C92.7133 372.18 92.1193 371.976 91.7353 371.568C91.3633 371.16 91.1773 370.518 91.1773 369.642V358.95H93.1033V369.372ZM105.173 358.95V372H103.481L103.373 370.398C103.109 370.938 102.707 371.37 102.167 371.694C101.639 372.018 101.033 372.18 100.349 372.18C99.1128 372.18 98.1348 371.772 97.4148 370.956C96.7068 370.128 96.3528 368.982 96.3528 367.518C96.3528 366.054 96.7068 364.908 97.4148 364.08C98.1348 363.24 99.1128 362.82 100.349 362.82C101.009 362.82 101.591 362.97 102.095 363.27C102.599 363.558 102.983 363.954 103.247 364.458V358.95H105.173ZM100.781 370.632C101.537 370.632 102.137 370.362 102.581 369.822C103.025 369.282 103.247 368.544 103.247 367.608V367.392C103.247 366.456 103.025 365.724 102.581 365.196C102.137 364.656 101.537 364.386 100.781 364.386C100.001 364.386 99.3888 364.662 98.9448 365.214C98.5128 365.754 98.2968 366.516 98.2968 367.5C98.2968 368.484 98.5128 369.252 98.9448 369.804C99.3888 370.356 100.001 370.632 100.781 370.632ZM112.803 362.82C113.223 362.82 113.553 362.88 113.793 363L113.487 364.764C113.211 364.608 112.833 364.53 112.353 364.53C111.969 364.53 111.603 364.632 111.255 364.836C110.919 365.04 110.637 365.346 110.409 365.754C110.193 366.162 110.085 366.654 110.085 367.23V372H108.159V363H109.797L109.959 364.62C110.463 363.42 111.411 362.82 112.803 362.82ZM123.43 367.23C123.43 367.578 123.406 367.908 123.358 368.22H116.77C116.878 369.012 117.16 369.618 117.616 370.038C118.072 370.446 118.66 370.65 119.38 370.65C119.968 370.65 120.454 370.548 120.838 370.344C121.234 370.128 121.504 369.822 121.648 369.426L123.25 370.092C122.578 371.484 121.288 372.18 119.38 372.18C117.964 372.18 116.854 371.766 116.05 370.938C115.258 370.11 114.862 368.964 114.862 367.5C114.862 366.024 115.246 364.878 116.014 364.062C116.782 363.234 117.862 362.82 119.254 362.82C120.574 362.82 121.6 363.222 122.332 364.026C123.064 364.83 123.43 365.898 123.43 367.23ZM119.254 364.35C118.558 364.35 117.994 364.554 117.562 364.962C117.142 365.37 116.878 365.964 116.77 366.744H121.63C121.534 365.988 121.276 365.4 120.856 364.98C120.448 364.56 119.914 364.35 119.254 364.35ZM130.685 362.82C131.681 362.82 132.491 363.108 133.115 363.684C133.751 364.26 134.069 365.088 134.069 366.168V372H132.143V366.78C132.143 365.196 131.501 364.404 130.217 364.404C129.545 364.404 128.969 364.638 128.489 365.106C128.009 365.562 127.769 366.27 127.769 367.23V372H125.843V363H127.553L127.643 364.494C127.943 363.93 128.357 363.51 128.885 363.234C129.413 362.958 130.013 362.82 130.685 362.82ZM147.683 362.82C148.919 362.82 149.891 363.24 150.599 364.08C151.307 364.908 151.661 366.054 151.661 367.518C151.661 368.982 151.307 370.128 150.599 370.956C149.891 371.772 148.919 372.18 147.683 372.18C146.975 372.18 146.351 372.012 145.811 371.676C145.283 371.34 144.887 370.89 144.623 370.326L144.533 372H142.841V358.95H144.767V364.44C145.043 363.936 145.433 363.54 145.937 363.252C146.453 362.964 147.035 362.82 147.683 362.82ZM147.251 370.632C148.031 370.632 148.637 370.356 149.069 369.804C149.513 369.252 149.735 368.484 149.735 367.5C149.735 366.516 149.513 365.754 149.069 365.214C148.637 364.662 148.031 364.386 147.251 364.386C146.519 364.386 145.931 364.632 145.487 365.124C145.055 365.616 144.815 366.294 144.767 367.158V367.842C144.815 368.718 145.055 369.402 145.487 369.894C145.931 370.386 146.519 370.632 147.251 370.632ZM162.207 367.23C162.207 367.578 162.183 367.908 162.135 368.22H155.547C155.655 369.012 155.937 369.618 156.393 370.038C156.849 370.446 157.437 370.65 158.157 370.65C158.745 370.65 159.231 370.548 159.615 370.344C160.011 370.128 160.281 369.822 160.425 369.426L162.027 370.092C161.355 371.484 160.065 372.18 158.157 372.18C156.741 372.18 155.631 371.766 154.827 370.938C154.035 370.11 153.639 368.964 153.639 367.5C153.639 366.024 154.023 364.878 154.791 364.062C155.559 363.234 156.639 362.82 158.031 362.82C159.351 362.82 160.377 363.222 161.109 364.026C161.841 364.83 162.207 365.898 162.207 367.23ZM158.031 364.35C157.335 364.35 156.771 364.554 156.339 364.962C155.919 365.37 155.655 365.964 155.547 366.744H160.407C160.311 365.988 160.053 365.4 159.633 364.98C159.225 364.56 158.691 364.35 158.031 364.35ZM167.106 363H170.022V364.512H167.16V372H165.234V364.512H163.542V363H165.234V361.704C165.234 360.792 165.51 360.084 166.062 359.58C166.614 359.076 167.388 358.824 168.384 358.824C168.744 358.824 169.074 358.866 169.374 358.95C169.674 359.022 169.908 359.124 170.076 359.256L169.716 360.66C169.44 360.48 169.098 360.39 168.69 360.39C167.634 360.39 167.106 360.876 167.106 361.848V363ZM175.523 362.82C176.927 362.82 178.025 363.234 178.817 364.062C179.609 364.89 180.005 366.036 180.005 367.5C180.005 368.964 179.609 370.11 178.817 370.938C178.025 371.766 176.927 372.18 175.523 372.18C174.119 372.18 173.021 371.766 172.229 370.938C171.437 370.11 171.041 368.964 171.041 367.5C171.041 366.036 171.437 364.89 172.229 364.062C173.021 363.234 174.119 362.82 175.523 362.82ZM175.523 364.332C174.707 364.332 174.077 364.608 173.633 365.16C173.201 365.7 172.985 366.48 172.985 367.5C172.985 368.52 173.201 369.306 173.633 369.858C174.077 370.398 174.707 370.668 175.523 370.668C176.339 370.668 176.969 370.392 177.413 369.84C177.857 369.288 178.079 368.508 178.079 367.5C178.079 366.492 177.857 365.712 177.413 365.16C176.969 364.608 176.339 364.332 175.523 364.332ZM187.123 362.82C187.543 362.82 187.873 362.88 188.113 363L187.807 364.764C187.531 364.608 187.153 364.53 186.673 364.53C186.289 364.53 185.923 364.632 185.575 364.836C185.239 365.04 184.957 365.346 184.729 365.754C184.513 366.162 184.405 366.654 184.405 367.23V372H182.479V363H184.117L184.279 364.62C184.783 363.42 185.731 362.82 187.123 362.82ZM197.75 367.23C197.75 367.578 197.726 367.908 197.678 368.22H191.09C191.198 369.012 191.48 369.618 191.936 370.038C192.392 370.446 192.98 370.65 193.7 370.65C194.288 370.65 194.774 370.548 195.158 370.344C195.554 370.128 195.824 369.822 195.968 369.426L197.57 370.092C196.898 371.484 195.608 372.18 193.7 372.18C192.284 372.18 191.174 371.766 190.37 370.938C189.578 370.11 189.182 368.964 189.182 367.5C189.182 366.024 189.566 364.878 190.334 364.062C191.102 363.234 192.182 362.82 193.574 362.82C194.894 362.82 195.92 363.222 196.652 364.026C197.384 364.83 197.75 365.898 197.75 367.23ZM193.574 364.35C192.878 364.35 192.314 364.554 191.882 364.962C191.462 365.37 191.198 365.964 191.09 366.744H195.95C195.854 365.988 195.596 365.4 195.176 364.98C194.768 364.56 194.234 364.35 193.574 364.35ZM214.17 363V372H212.46L212.388 370.542C211.776 371.634 210.708 372.18 209.184 372.18C208.212 372.18 207.426 371.916 206.826 371.388C206.238 370.848 205.944 370.026 205.944 368.922V363H207.87V368.418C207.87 369.21 208.026 369.774 208.338 370.11C208.65 370.434 209.112 370.596 209.724 370.596C210.456 370.596 211.056 370.368 211.524 369.912C212.004 369.444 212.244 368.76 212.244 367.86V363H214.17ZM220.419 372.18C219.507 372.18 218.697 372.024 217.989 371.712C217.293 371.4 216.765 370.926 216.405 370.29L217.701 369.174C217.929 369.69 218.283 370.068 218.763 370.308C219.243 370.548 219.819 370.668 220.491 370.668C221.103 370.668 221.577 370.572 221.913 370.38C222.249 370.176 222.417 369.912 222.417 369.588C222.417 369.3 222.261 369.072 221.949 368.904C221.637 368.724 221.097 368.556 220.329 368.4C218.997 368.148 218.061 367.812 217.521 367.392C216.981 366.972 216.711 366.378 216.711 365.61C216.711 365.118 216.861 364.662 217.161 364.242C217.461 363.81 217.893 363.468 218.457 363.216C219.033 362.952 219.711 362.82 220.491 362.82C221.487 362.82 222.285 362.988 222.885 363.324C223.485 363.648 223.947 364.158 224.271 364.854L222.903 365.862C222.687 365.334 222.381 364.95 221.985 364.71C221.601 364.458 221.109 364.332 220.509 364.332C219.969 364.332 219.519 364.446 219.159 364.674C218.811 364.89 218.637 365.142 218.637 365.43C218.637 365.754 218.793 366.012 219.105 366.204C219.429 366.396 220.011 366.57 220.851 366.726C222.123 366.954 223.023 367.278 223.551 367.698C224.079 368.118 224.343 368.706 224.343 369.462C224.343 370.266 223.995 370.92 223.299 371.424C222.603 371.928 221.643 372.18 220.419 372.18ZM231.03 364.26H229.626V359.652H231.516L231.03 364.26ZM227.826 364.26H226.422V359.652H228.312L227.826 364.26Z" fill="#220033"/>
<rect x="1" y="1" width="294" height="393" rx="9" stroke="url(#paint0_linear)" stroke-width="2"/>
<path d="M108.203 48.244V52.164H115.819V55.888H108.203V63H103.387V44.52H117.751V48.244H108.203ZM132.434 60.284C132.789 60.284 133.078 60.2467 133.302 60.172L132.938 62.832C132.397 63.1307 131.762 63.28 131.034 63.28C129.018 63.28 127.814 62.5613 127.422 61.124C126.582 62.5613 124.921 63.28 122.438 63.28C121.038 63.28 119.965 62.9813 119.218 62.384C118.471 61.7867 118.098 60.9187 118.098 59.78C118.098 58.5853 118.518 57.624 119.358 56.896C120.217 56.1493 121.617 55.58 123.558 55.188L126.722 54.572V54.068C126.722 53.4333 126.545 52.9293 126.19 52.556C125.835 52.1827 125.35 51.996 124.734 51.996C124.025 51.996 123.446 52.164 122.998 52.5C122.55 52.836 122.261 53.3867 122.13 54.152L118.266 53.032C118.509 51.6693 119.181 50.6147 120.282 49.868C121.383 49.1027 122.867 48.72 124.734 48.72C126.918 48.72 128.579 49.168 129.718 50.064C130.857 50.96 131.426 52.304 131.426 54.096V59.192C131.426 59.92 131.762 60.284 132.434 60.284ZM124.174 60.2C124.827 60.2 125.415 60.0227 125.938 59.668C126.461 59.2947 126.722 58.8093 126.722 58.212V57.008L124.454 57.54C123.857 57.6893 123.427 57.876 123.166 58.1C122.923 58.3053 122.802 58.604 122.802 58.996C122.802 59.388 122.923 59.6867 123.166 59.892C123.409 60.0973 123.745 60.2 124.174 60.2ZM153.408 48.72C154.826 48.72 155.974 49.1493 156.852 50.008C157.748 50.8667 158.196 52.0893 158.196 53.676V63H153.436V54.768C153.436 53.1627 152.801 52.36 151.532 52.36C150.785 52.36 150.188 52.6307 149.74 53.172C149.292 53.7133 149.068 54.4973 149.068 55.524V63H144.308V54.768C144.308 53.1627 143.673 52.36 142.404 52.36C141.694 52.36 141.106 52.6307 140.64 53.172C140.173 53.7133 139.94 54.5253 139.94 55.608V63H135.18V49H139.436L139.576 51.688C140.024 50.7173 140.649 49.98 141.452 49.476C142.254 48.972 143.197 48.72 144.28 48.72C145.344 48.72 146.258 48.9627 147.024 49.448C147.808 49.9333 148.368 50.6333 148.704 51.548C149.152 50.6333 149.786 49.9333 150.608 49.448C151.448 48.9627 152.381 48.72 153.408 48.72ZM163.919 47.376C162.948 47.376 162.239 47.1987 161.791 46.844C161.362 46.4707 161.147 45.892 161.147 45.108C161.147 44.3053 161.362 43.7267 161.791 43.372C162.239 42.9987 162.948 42.812 163.919 42.812C164.89 42.812 165.59 42.9987 166.019 43.372C166.467 43.7267 166.691 44.3053 166.691 45.108C166.691 45.892 166.467 46.4707 166.019 46.844C165.59 47.1987 164.89 47.376 163.919 47.376ZM166.299 63H161.539V49H166.299V63ZM174.391 58.156C174.391 58.7907 174.485 59.2387 174.671 59.5C174.858 59.7613 175.194 59.892 175.679 59.892C176.127 59.892 176.603 59.808 177.107 59.64L176.799 62.58C176.463 62.7853 176.025 62.9533 175.483 63.084C174.942 63.2147 174.41 63.28 173.887 63.28C172.394 63.28 171.311 62.9347 170.639 62.244C169.967 61.5347 169.631 60.4053 169.631 58.856V43.064H174.391V58.156ZM187.511 63C186.988 64.4933 186.419 65.6787 185.803 66.556C185.187 67.4333 184.459 68.0587 183.619 68.432C182.779 68.824 181.761 69.02 180.567 69.02C178.98 69.02 177.711 68.6747 176.759 67.984L177.767 64.792C178.065 65.072 178.392 65.2587 178.747 65.352C179.12 65.464 179.596 65.52 180.175 65.52C180.753 65.52 181.211 65.4173 181.547 65.212C181.883 65.0253 182.153 64.68 182.359 64.176L182.695 63.308L181.071 59.5L176.899 49H182.135L184.291 56.98L184.963 59.948L185.719 56.868L187.875 49H192.635L187.511 63Z" fill="#32004A"/>
<path d="M190.249 245.678L174.08 229.563C173.514 229 172.723 228.662 171.931 228.662H163.225C163.225 228.662 163.225 228.662 163.112 228.662C158.362 228.662 153.5 227.76 149.091 226.07L154.292 222.577C156.44 221.112 157.797 218.971 158.362 216.491C158.815 214.012 158.249 211.42 156.779 209.392C154.97 206.8 152.03 205.335 148.977 205.335H148.864L160.963 193.503C164.581 189.896 164.581 184.037 160.963 180.43C160.059 179.529 159.041 178.853 157.91 178.402C158.702 177.05 159.154 175.359 159.154 173.669C159.154 171.19 158.136 168.823 156.44 167.133C154.631 165.33 152.37 164.428 149.882 164.428C148.186 164.428 146.603 164.879 145.133 165.668C144.681 164.541 144.002 163.527 143.098 162.625C141.289 160.822 139.027 159.921 136.54 159.921C134.052 159.921 131.677 160.935 129.981 162.625L125.685 166.908C125.232 165.893 124.554 164.992 123.762 164.203C121.953 162.4 119.692 161.498 117.204 161.498C114.717 161.498 112.342 162.513 110.646 164.203L108.724 166.119L101.035 158.456C98.7734 156.202 98.7734 152.596 101.035 150.342C103.183 148.201 106.462 148.088 108.724 149.891L116.186 157.329C116.752 157.892 117.543 158.23 118.335 158.23C119.126 158.23 119.918 157.892 120.483 157.329C121.614 156.202 121.614 154.286 120.483 153.047L107.48 140.313C105.218 138.059 105.218 134.453 107.48 132.199C109.741 129.945 113.36 129.945 115.621 132.199L138.236 154.85C138.801 155.413 139.592 155.751 140.384 155.751C141.175 155.751 141.967 155.413 142.532 154.85C143.663 153.723 143.663 151.807 142.532 150.568L125.345 133.326C123.536 131.072 123.649 127.691 125.798 125.663C128.059 123.409 131.677 123.409 133.939 125.663L140.271 131.974C141.402 133.101 143.324 133.101 144.568 131.974C145.698 130.847 145.698 128.931 144.568 127.691L138.123 121.381C133.6 116.873 126.137 116.873 121.501 121.381C120.031 122.846 119.013 124.761 118.448 126.677C116.413 125.212 114.038 124.423 111.551 124.423C108.385 124.423 105.445 125.663 103.183 127.804C98.9995 131.974 98.6603 138.397 101.939 142.905C100.017 143.468 98.208 144.482 96.625 145.947C92.3282 150.229 92.1021 157.104 95.9465 161.724C94.0243 162.287 92.2152 163.189 90.7452 164.766C86.1092 169.387 86.1092 176.824 90.7452 181.332L92.1021 182.684C87.0138 188.77 84.3001 196.32 84.3001 204.321V209.279L72.0883 221.675C70.9576 222.802 70.9576 224.718 72.0883 225.957C72.6536 226.521 73.4451 226.859 74.2367 226.859C75.0282 226.859 75.8197 226.521 76.385 225.957L89.6145 212.773C90.1799 212.209 90.5191 211.42 90.5191 210.631V204.433C90.5191 196.996 93.459 190.009 98.6603 184.713L113.586 169.838L115.056 168.373C115.734 167.696 116.526 167.358 117.43 167.358C118.335 167.358 119.126 167.696 119.805 168.373C120.483 169.049 120.822 169.838 120.822 170.739C120.822 171.528 120.596 172.204 120.144 172.768L116.186 176.712C115.056 177.839 115.056 179.754 116.186 180.994C116.752 181.557 117.543 181.895 118.335 181.895C119.126 181.895 119.918 181.557 120.483 180.994L134.617 166.908C135.296 166.231 136.087 165.893 136.992 165.893C137.896 165.893 138.688 166.231 139.366 166.908C140.61 168.147 140.61 169.95 139.592 171.303L124.78 185.727C123.649 186.854 123.649 188.77 124.78 190.009C125.345 190.573 126.137 190.911 126.928 190.911C127.72 190.911 128.511 190.573 129.077 190.009L147.621 171.528C148.299 170.852 149.091 170.514 149.995 170.514C150.9 170.514 151.691 170.852 152.37 171.528C153.613 172.768 153.613 174.909 152.37 176.148L133.6 194.517C132.469 195.644 132.469 197.559 133.6 198.799C134.73 199.926 136.653 199.926 137.896 198.799L152.37 184.487C153.613 183.473 155.536 183.586 156.779 184.713C158.023 185.952 158.023 188.093 156.779 189.333L136.426 209.505C134.957 210.97 134.843 213.111 136.087 214.688C137.331 216.266 139.479 216.717 141.175 215.59L147.281 211.871C148.864 210.97 150.9 211.308 151.917 212.885C152.483 213.674 152.596 214.576 152.483 215.477C152.257 216.379 151.804 217.168 151.013 217.731L136.879 227.197C132.243 230.24 126.928 231.93 121.388 231.93H111.777C110.985 231.93 110.194 232.268 109.628 232.831L96.3988 246.016C95.2681 247.143 95.2681 249.059 96.3988 250.298C96.9642 250.862 97.7557 251.2 98.5472 251.2C99.3387 251.2 100.13 250.862 100.696 250.298L113.02 238.015H121.388C128.172 238.015 134.617 235.987 140.271 232.268L143.324 230.24C149.543 233.17 156.44 234.747 163.338 234.747C163.338 234.747 163.338 234.747 163.451 234.747H170.914L186.178 249.96C186.744 250.524 187.535 250.862 188.327 250.862C189.118 250.862 189.91 250.524 190.475 249.96C191.38 248.721 191.38 246.805 190.249 245.678ZM102.505 172.317L96.2858 178.515L95.042 177.275C92.7805 175.021 92.7805 171.415 95.042 169.161C97.1903 167.02 100.469 166.908 102.731 168.711L104.427 170.401L102.505 172.317Z" fill="url(#paint1_linear)"/>
<path d="M224.058 211.984C223.492 211.42 222.701 211.082 221.909 211.082C221.118 211.082 220.326 211.42 219.761 211.984C219.196 212.547 218.856 213.336 218.856 214.125C218.856 214.914 219.196 215.702 219.761 216.266C220.326 216.829 221.118 217.167 221.909 217.167C222.701 217.167 223.492 216.829 224.058 216.266C224.623 215.702 224.962 214.914 224.962 214.125C224.962 213.223 224.623 212.547 224.058 211.984Z" fill="url(#paint2_linear)"/>
<path d="M216.03 203.87L208.907 196.77V184.713C208.907 175.585 206.193 166.682 201.105 159.132L187.875 139.411C186.066 136.706 183.352 134.903 180.186 134.34C177.02 133.776 173.741 134.453 171.141 136.256C166.844 139.298 165.035 144.82 166.618 149.666L158.816 141.89C157.685 140.763 155.763 140.763 154.519 141.89C153.388 143.017 153.388 144.933 154.519 146.172L171.367 162.963C172.95 164.541 175.324 164.654 177.02 163.301C178.716 161.949 179.169 159.583 178.038 157.667L172.837 149.215C171.254 146.51 171.932 143.017 174.533 141.214C175.89 140.313 177.473 139.974 179.056 140.2C180.639 140.538 181.996 141.439 182.9 142.679L196.13 162.287C200.539 168.936 202.914 176.599 202.914 184.487V197.785C202.914 198.573 203.253 199.362 203.818 199.926L211.847 207.927C212.412 208.49 213.204 208.828 213.995 208.828C214.787 208.828 215.578 208.49 216.143 207.927C217.161 206.913 217.161 205.109 216.03 203.87Z" fill="url(#paint3_linear)"/>
<path d="M151.578 134.791C151.013 134.228 150.221 133.89 149.43 133.89C148.638 133.89 147.847 134.228 147.282 134.791C146.716 135.355 146.377 136.143 146.377 136.932C146.377 137.721 146.716 138.51 147.282 139.073C147.847 139.637 148.638 139.975 149.43 139.975C150.221 139.975 151.013 139.637 151.578 139.073C152.144 138.51 152.483 137.721 152.483 136.932C152.483 136.143 152.144 135.355 151.578 134.791Z" fill="url(#paint4_linear)"/>
<path d="M179.508 181.219C180.639 180.092 180.639 178.177 179.508 176.937C178.377 175.81 176.455 175.81 175.211 176.937L173.854 178.289C168.201 183.924 168.201 192.939 173.854 198.574C174.42 199.137 175.211 199.475 176.003 199.475C176.794 199.475 177.586 199.137 178.151 198.574C179.282 197.447 179.282 195.531 178.151 194.291C174.872 191.023 174.872 185.727 178.151 182.459L179.508 181.219Z" fill="url(#paint5_linear)"/>
<defs>
<linearGradient id="paint0_linear" x1="3.42172e-05" y1="394.846" x2="185.801" y2="-46.4027" gradientUnits="userSpaceOnUse">
<stop offset="0.481859" stop-color="#32004A"/>
<stop offset="1" stop-color="#BB32FF"/>
</linearGradient>
<linearGradient id="paint1_linear" x1="71.2402" y1="251.148" x2="125.932" y2="95.1438" gradientUnits="userSpaceOnUse">
<stop offset="0.481859" stop-color="#32004A"/>
<stop offset="1" stop-color="#BB32FF"/>
</linearGradient>
<linearGradient id="paint2_linear" x1="218.856" y1="217.165" x2="221.147" y2="209.882" gradientUnits="userSpaceOnUse">
<stop offset="0.481859" stop-color="#32004A"/>
<stop offset="1" stop-color="#BB32FF"/>
</linearGradient>
<linearGradient id="paint3_linear" x1="153.671" y1="208.799" x2="185.815" y2="122.562" gradientUnits="userSpaceOnUse">
<stop offset="0.481859" stop-color="#32004A"/>
<stop offset="1" stop-color="#BB32FF"/>
</linearGradient>
<linearGradient id="paint4_linear" x1="146.377" y1="139.973" x2="148.667" y2="132.69" gradientUnits="userSpaceOnUse">
<stop offset="0.481859" stop-color="#32004A"/>
<stop offset="1" stop-color="#BB32FF"/>
</linearGradient>
<linearGradient id="paint5_linear" x1="169.614" y1="199.466" x2="183.966" y2="178.572" gradientUnits="userSpaceOnUse">
<stop offset="0.481859" stop-color="#32004A"/>
<stop offset="1" stop-color="#BB32FF"/>
</linearGradient>
</defs>
</svg>
