<svg width="1036" height="68" viewBox="0 0 1036 68" fill="none" xmlns="http://www.w3.org/2000/svg">
<path d="M7.63033 35.2968C10.7399 35.2968 13.2607 32.776 13.2607 29.6665C13.2607 26.5569 10.7399 24.0361 7.63033 24.0361C4.52078 24.0361 2 26.5569 2 29.6665C2 32.776 4.52078 35.2968 7.63033 35.2968Z" stroke="url(#paint0_linear)" stroke-width="3" stroke-miterlimit="10"/>
<path d="M243.133 15.8817C246.243 15.8817 248.764 13.361 248.764 10.2514C248.764 7.14188 246.243 4.62109 243.133 4.62109C240.024 4.62109 237.503 7.14188 237.503 10.2514C237.503 13.361 240.024 15.8817 243.133 15.8817Z" stroke="url(#paint1_linear)" stroke-width="3" stroke-miterlimit="10"/>
<path d="M321.666 15.8817C324.776 15.8817 327.297 13.361 327.297 10.2514C327.297 7.14188 324.776 4.62109 321.666 4.62109C318.557 4.62109 316.036 7.14188 316.036 10.2514C316.036 13.361 318.557 15.8817 321.666 15.8817Z" stroke="url(#paint2_linear)" stroke-width="3" stroke-miterlimit="10"/>
<path d="M871.303 24.2304C874.413 24.2304 876.933 21.7096 876.933 18.6001C876.933 15.4905 874.413 12.9697 871.303 12.9697C868.194 12.9697 865.673 15.4905 865.673 18.6001C865.673 21.7096 868.194 24.2304 871.303 24.2304Z" stroke="url(#paint3_linear)" stroke-width="3" stroke-miterlimit="10"/>
<path d="M949.835 43.6449C952.945 43.6449 955.466 41.1241 955.466 38.0146C955.466 34.9051 952.945 32.3843 949.835 32.3843C946.726 32.3843 944.205 34.9051 944.205 38.0146C944.205 41.1241 946.726 43.6449 949.835 43.6449Z" stroke="url(#paint4_linear)" stroke-width="3" stroke-miterlimit="10"/>
<path d="M86.0668 13.2607C89.1764 13.2607 91.6972 10.7399 91.6972 7.63033C91.6972 4.52078 89.1764 2 86.0668 2C82.9573 2 80.4365 4.52078 80.4365 7.63033C80.4365 10.7399 82.9573 13.2607 86.0668 13.2607Z" stroke="url(#paint5_linear)" stroke-width="3" stroke-miterlimit="10"/>
<path d="M635.799 13.2607C638.909 13.2607 641.43 10.7399 641.43 7.63033C641.43 4.52078 638.909 2 635.799 2C632.69 2 630.169 4.52078 630.169 7.63033C630.169 10.7399 632.69 13.2607 635.799 13.2607Z" stroke="url(#paint6_linear)" stroke-width="3" stroke-miterlimit="10"/>
<path d="M1028.37 13.2607C1031.48 13.2607 1034 10.7399 1034 7.63033C1034 4.52078 1031.48 2 1028.37 2C1025.26 2 1022.74 4.52078 1022.74 7.63033C1022.74 10.7399 1025.26 13.2607 1028.37 13.2607Z" stroke="url(#paint7_linear)" stroke-width="3" stroke-miterlimit="10"/>
<path d="M400.201 65.7782C403.31 65.7782 405.831 63.2575 405.831 60.1479C405.831 57.0384 403.31 54.5176 400.201 54.5176C397.091 54.5176 394.57 57.0384 394.57 60.1479C394.57 63.2575 397.091 65.7782 400.201 65.7782Z" stroke="url(#paint8_linear)" stroke-width="3" stroke-miterlimit="10"/>
<path d="M557.267 26.9482C560.377 26.9482 562.897 24.4274 562.897 21.3178C562.897 18.2083 560.377 15.6875 557.267 15.6875C554.157 15.6875 551.637 18.2083 551.637 21.3178C551.637 24.4274 554.157 26.9482 557.267 26.9482Z" stroke="url(#paint9_linear)" stroke-width="3" stroke-miterlimit="10"/>
<path d="M792.769 36.6557C795.879 36.6557 798.399 34.1349 798.399 31.0253C798.399 27.9158 795.879 25.395 792.769 25.395C789.659 25.395 787.139 27.9158 787.139 31.0253C787.139 34.1349 789.659 36.6557 792.769 36.6557Z" stroke="url(#paint10_linear)" stroke-width="3" stroke-miterlimit="10"/>
<path d="M164.6 57.3329C167.71 57.3329 170.23 54.8121 170.23 51.7026C170.23 48.593 167.71 46.0723 164.6 46.0723C161.491 46.0723 158.97 48.593 158.97 51.7026C158.97 54.8121 161.491 57.3329 164.6 57.3329Z" stroke="url(#paint11_linear)" stroke-width="3" stroke-miterlimit="10"/>
<path d="M478.733 57.3324C481.842 57.3324 484.363 54.8116 484.363 51.7021C484.363 48.5926 481.842 46.0718 478.733 46.0718C475.623 46.0718 473.103 48.5926 473.103 51.7021C473.103 54.8116 475.623 57.3324 478.733 57.3324Z" stroke="url(#paint12_linear)" stroke-width="3" stroke-miterlimit="10"/>
<path d="M714.237 47.6249C717.346 47.6249 719.867 45.1041 719.867 41.9946C719.867 38.885 717.346 36.3643 714.237 36.3643C711.127 36.3643 708.606 38.885 708.606 41.9946C708.606 45.1041 711.127 47.6249 714.237 47.6249Z" stroke="url(#paint13_linear)" stroke-width="3" stroke-miterlimit="10"/>
<path d="M12.6777 27.4331L80.5329 7.62988" stroke="url(#paint14_linear)" stroke-width="3" stroke-miterlimit="10"/>
<path d="M91.5996 8.21289L159.066 51.7994" stroke="url(#paint15_linear)" stroke-width="3" stroke-miterlimit="10"/>
<path d="M170.23 51.7989L237.6 10.251" stroke="url(#paint16_linear)" stroke-width="3" stroke-miterlimit="10"/>
<path d="M248.764 10.251H316.133" stroke="url(#paint17_linear)" stroke-width="3" stroke-miterlimit="10"/>
<path d="M327.297 10.251L394.57 60.1473" stroke="url(#paint18_linear)" stroke-width="3" stroke-miterlimit="10"/>
<path d="M405.733 60.1472L473.103 51.7988" stroke="url(#paint19_linear)" stroke-width="3" stroke-miterlimit="10"/>
<path d="M484.267 51.7993L551.636 21.3179" stroke="url(#paint20_linear)" stroke-width="3" stroke-miterlimit="10"/>
<path d="M562.8 21.3174L630.17 7.62988" stroke="url(#paint21_linear)" stroke-width="3" stroke-miterlimit="10"/>
<path d="M641.333 7.63086L708.703 42.0923" stroke="url(#paint22_linear)" stroke-width="3" stroke-miterlimit="10"/>
<path d="M719.866 42.0919L787.236 31.0254" stroke="url(#paint23_linear)" stroke-width="3" stroke-miterlimit="10"/>
<path d="M798.4 31.0252L865.77 18.5996" stroke="url(#paint24_linear)" stroke-width="3" stroke-miterlimit="10"/>
<path d="M876.934 18.5996L944.303 38.0145" stroke="url(#paint25_linear)" stroke-width="3" stroke-miterlimit="10"/>
<path d="M955.467 38.0152L1022.74 7.63086" stroke="url(#paint26_linear)" stroke-width="3" stroke-miterlimit="10"/>
<defs>
<linearGradient id="paint0_linear" x1="2" y1="35.2924" x2="6.24988" y2="21.8239" gradientUnits="userSpaceOnUse">
<stop offset="0.481859" stop-color="#32004A"/>
<stop offset="1" stop-color="#BB32FF"/>
</linearGradient>
<linearGradient id="paint1_linear" x1="237.503" y1="15.8774" x2="241.753" y2="2.4089" gradientUnits="userSpaceOnUse">
<stop offset="0.481859" stop-color="#32004A"/>
<stop offset="1" stop-color="#BB32FF"/>
</linearGradient>
<linearGradient id="paint2_linear" x1="316.036" y1="15.8774" x2="320.286" y2="2.40889" gradientUnits="userSpaceOnUse">
<stop offset="0.481859" stop-color="#32004A"/>
<stop offset="1" stop-color="#BB32FF"/>
</linearGradient>
<linearGradient id="paint3_linear" x1="865.673" y1="24.226" x2="869.923" y2="10.7575" gradientUnits="userSpaceOnUse">
<stop offset="0.481859" stop-color="#32004A"/>
<stop offset="1" stop-color="#BB32FF"/>
</linearGradient>
<linearGradient id="paint4_linear" x1="944.205" y1="43.6405" x2="948.455" y2="30.1721" gradientUnits="userSpaceOnUse">
<stop offset="0.481859" stop-color="#32004A"/>
<stop offset="1" stop-color="#BB32FF"/>
</linearGradient>
<linearGradient id="paint5_linear" x1="80.4365" y1="13.2563" x2="84.6864" y2="-0.2122" gradientUnits="userSpaceOnUse">
<stop offset="0.481859" stop-color="#32004A"/>
<stop offset="1" stop-color="#BB32FF"/>
</linearGradient>
<linearGradient id="paint6_linear" x1="630.169" y1="13.2563" x2="634.419" y2="-0.212208" gradientUnits="userSpaceOnUse">
<stop offset="0.481859" stop-color="#32004A"/>
<stop offset="1" stop-color="#BB32FF"/>
</linearGradient>
<linearGradient id="paint7_linear" x1="1022.74" y1="13.2563" x2="1026.99" y2="-0.212195" gradientUnits="userSpaceOnUse">
<stop offset="0.481859" stop-color="#32004A"/>
<stop offset="1" stop-color="#BB32FF"/>
</linearGradient>
<linearGradient id="paint8_linear" x1="394.57" y1="65.7738" x2="398.82" y2="52.3054" gradientUnits="userSpaceOnUse">
<stop offset="0.481859" stop-color="#32004A"/>
<stop offset="1" stop-color="#BB32FF"/>
</linearGradient>
<linearGradient id="paint9_linear" x1="551.637" y1="26.9438" x2="555.887" y2="13.4753" gradientUnits="userSpaceOnUse">
<stop offset="0.481859" stop-color="#32004A"/>
<stop offset="1" stop-color="#BB32FF"/>
</linearGradient>
<linearGradient id="paint10_linear" x1="787.139" y1="36.6513" x2="791.389" y2="23.1828" gradientUnits="userSpaceOnUse">
<stop offset="0.481859" stop-color="#32004A"/>
<stop offset="1" stop-color="#BB32FF"/>
</linearGradient>
<linearGradient id="paint11_linear" x1="158.97" y1="57.3285" x2="163.22" y2="43.8601" gradientUnits="userSpaceOnUse">
<stop offset="0.481859" stop-color="#32004A"/>
<stop offset="1" stop-color="#BB32FF"/>
</linearGradient>
<linearGradient id="paint12_linear" x1="473.103" y1="57.328" x2="477.352" y2="43.8596" gradientUnits="userSpaceOnUse">
<stop offset="0.481859" stop-color="#32004A"/>
<stop offset="1" stop-color="#BB32FF"/>
</linearGradient>
<linearGradient id="paint13_linear" x1="708.606" y1="47.6205" x2="712.856" y2="34.1521" gradientUnits="userSpaceOnUse">
<stop offset="0.481859" stop-color="#32004A"/>
<stop offset="1" stop-color="#BB32FF"/>
</linearGradient>
<linearGradient id="paint14_linear" x1="12.6777" y1="27.4254" x2="15.056" y2="1.60013" gradientUnits="userSpaceOnUse">
<stop offset="0.481859" stop-color="#32004A"/>
<stop offset="1" stop-color="#BB32FF"/>
</linearGradient>
<linearGradient id="paint15_linear" x1="91.5996" y1="51.7824" x2="102.819" y2="-3.25341" gradientUnits="userSpaceOnUse">
<stop offset="0.481859" stop-color="#32004A"/>
<stop offset="1" stop-color="#BB32FF"/>
</linearGradient>
<linearGradient id="paint16_linear" x1="170.23" y1="51.7827" x2="180.476" y2="-0.865434" gradientUnits="userSpaceOnUse">
<stop offset="0.481859" stop-color="#32004A"/>
<stop offset="1" stop-color="#BB32FF"/>
</linearGradient>
<linearGradient id="paint17_linear" x1="248.764" y1="11.2506" x2="248.77" y2="9.93546" gradientUnits="userSpaceOnUse">
<stop offset="0.481859" stop-color="#32004A"/>
<stop offset="1" stop-color="#BB32FF"/>
</linearGradient>
<linearGradient id="paint18_linear" x1="327.297" y1="60.1279" x2="341.857" y2="-2.08575" gradientUnits="userSpaceOnUse">
<stop offset="0.481859" stop-color="#32004A"/>
<stop offset="1" stop-color="#BB32FF"/>
</linearGradient>
<linearGradient id="paint19_linear" x1="405.733" y1="60.144" x2="406.162" y2="49.1813" gradientUnits="userSpaceOnUse">
<stop offset="0.481859" stop-color="#32004A"/>
<stop offset="1" stop-color="#BB32FF"/>
</linearGradient>
<linearGradient id="paint20_linear" x1="484.267" y1="51.7874" x2="489.875" y2="12.5004" gradientUnits="userSpaceOnUse">
<stop offset="0.481859" stop-color="#32004A"/>
<stop offset="1" stop-color="#BB32FF"/>
</linearGradient>
<linearGradient id="paint21_linear" x1="562.8" y1="21.3121" x2="563.949" y2="3.38457" gradientUnits="userSpaceOnUse">
<stop offset="0.481859" stop-color="#32004A"/>
<stop offset="1" stop-color="#BB32FF"/>
</linearGradient>
<linearGradient id="paint22_linear" x1="641.333" y1="42.0789" x2="648.463" y2="-2.09243" gradientUnits="userSpaceOnUse">
<stop offset="0.481859" stop-color="#32004A"/>
<stop offset="1" stop-color="#BB32FF"/>
</linearGradient>
<linearGradient id="paint23_linear" x1="719.866" y1="42.0876" x2="720.619" y2="27.5724" gradientUnits="userSpaceOnUse">
<stop offset="0.481859" stop-color="#32004A"/>
<stop offset="1" stop-color="#BB32FF"/>
</linearGradient>
<linearGradient id="paint24_linear" x1="798.4" y1="31.0203" x2="799.348" y2="14.734" gradientUnits="userSpaceOnUse">
<stop offset="0.481859" stop-color="#32004A"/>
<stop offset="1" stop-color="#BB32FF"/>
</linearGradient>
<linearGradient id="paint25_linear" x1="876.934" y1="38.007" x2="879.236" y2="12.6828" gradientUnits="userSpaceOnUse">
<stop offset="0.481859" stop-color="#32004A"/>
<stop offset="1" stop-color="#BB32FF"/>
</linearGradient>
<linearGradient id="paint26_linear" x1="955.467" y1="38.0034" x2="961.048" y2="-1.16122" gradientUnits="userSpaceOnUse">
<stop offset="0.481859" stop-color="#32004A"/>
<stop offset="1" stop-color="#BB32FF"/>
</linearGradient>
</defs>
</svg>
