<svg width="1036" height="59" viewBox="0 0 1036 59" fill="none" xmlns="http://www.w3.org/2000/svg">
<path d="M7.63033 35.2968C10.7399 35.2968 13.2607 32.776 13.2607 29.6665C13.2607 26.5569 10.7399 24.0361 7.63033 24.0361C4.52078 24.0361 2 26.5569 2 29.6665C2 32.776 4.52078 35.2968 7.63033 35.2968Z" stroke="url(#paint0_linear)" stroke-width="3" stroke-miterlimit="10"/>
<path d="M243.133 35.2968C246.243 35.2968 248.764 32.776 248.764 29.6665C248.764 26.5569 246.243 24.0361 243.133 24.0361C240.024 24.0361 237.503 26.5569 237.503 29.6665C237.503 32.776 240.024 35.2968 243.133 35.2968Z" stroke="url(#paint1_linear)" stroke-width="3" stroke-miterlimit="10"/>
<path d="M321.666 35.2968C324.776 35.2968 327.297 32.776 327.297 29.6665C327.297 26.5569 324.776 24.0361 321.666 24.0361C318.557 24.0361 316.036 26.5569 316.036 29.6665C316.036 32.776 318.557 35.2968 321.666 35.2968Z" stroke="url(#paint2_linear)" stroke-width="3" stroke-miterlimit="10"/>
<path d="M871.303 24.2299C874.413 24.2299 876.933 21.7091 876.933 18.5996C876.933 15.49 874.413 12.9692 871.303 12.9692C868.194 12.9692 865.673 15.49 865.673 18.5996C865.673 21.7091 868.194 24.2299 871.303 24.2299Z" stroke="url(#paint3_linear)" stroke-width="3" stroke-miterlimit="10"/>
<path d="M949.835 24.2299C952.945 24.2299 955.466 21.7091 955.466 18.5996C955.466 15.49 952.945 12.9692 949.835 12.9692C946.726 12.9692 944.205 15.49 944.205 18.5996C944.205 21.7091 946.726 24.2299 949.835 24.2299Z" stroke="url(#paint4_linear)" stroke-width="3" stroke-miterlimit="10"/>
<path d="M86.0668 13.2607C89.1764 13.2607 91.6972 10.7399 91.6972 7.63033C91.6972 4.52078 89.1764 2 86.0668 2C82.9573 2 80.4365 4.52078 80.4365 7.63033C80.4365 10.7399 82.9573 13.2607 86.0668 13.2607Z" stroke="url(#paint5_linear)" stroke-width="3" stroke-miterlimit="10"/>
<path d="M635.799 13.2607C638.909 13.2607 641.43 10.7399 641.43 7.63033C641.43 4.52078 638.909 2 635.799 2C632.69 2 630.169 4.52078 630.169 7.63033C630.169 10.7399 632.69 13.2607 635.799 13.2607Z" stroke="url(#paint6_linear)" stroke-width="3" stroke-miterlimit="10"/>
<path d="M1028.37 13.2607C1031.48 13.2607 1034 10.7399 1034 7.63033C1034 4.52078 1031.48 2 1028.37 2C1025.26 2 1022.74 4.52078 1022.74 7.63033C1022.74 10.7399 1025.26 13.2607 1028.37 13.2607Z" stroke="url(#paint7_linear)" stroke-width="3" stroke-miterlimit="10"/>
<path d="M400.201 46.3632C403.31 46.3632 405.831 43.8424 405.831 40.7329C405.831 37.6233 403.31 35.1025 400.201 35.1025C397.091 35.1025 394.57 37.6233 394.57 40.7329C394.57 43.8424 397.091 46.3632 400.201 46.3632Z" stroke="url(#paint8_linear)" stroke-width="3" stroke-miterlimit="10"/>
<path d="M557.267 46.3632C560.377 46.3632 562.897 43.8424 562.897 40.7329C562.897 37.6233 560.377 35.1025 557.267 35.1025C554.157 35.1025 551.637 37.6233 551.637 40.7329C551.637 43.8424 554.157 46.3632 557.267 46.3632Z" stroke="url(#paint9_linear)" stroke-width="3" stroke-miterlimit="10"/>
<path d="M792.769 46.3632C795.879 46.3632 798.399 43.8424 798.399 40.7329C798.399 37.6233 795.879 35.1025 792.769 35.1025C789.659 35.1025 787.139 37.6233 787.139 40.7329C787.139 43.8424 789.659 46.3632 792.769 46.3632Z" stroke="url(#paint10_linear)" stroke-width="3" stroke-miterlimit="10"/>
<path d="M164.6 57.3324C167.71 57.3324 170.23 54.8116 170.23 51.7021C170.23 48.5926 167.71 46.0718 164.6 46.0718C161.491 46.0718 158.97 48.5926 158.97 51.7021C158.97 54.8116 161.491 57.3324 164.6 57.3324Z" stroke="url(#paint11_linear)" stroke-width="3" stroke-miterlimit="10"/>
<path d="M478.733 57.3324C481.842 57.3324 484.363 54.8116 484.363 51.7021C484.363 48.5926 481.842 46.0718 478.733 46.0718C475.623 46.0718 473.103 48.5926 473.103 51.7021C473.103 54.8116 475.623 57.3324 478.733 57.3324Z" stroke="url(#paint12_linear)" stroke-width="3" stroke-miterlimit="10"/>
<path d="M714.237 57.3324C717.346 57.3324 719.867 54.8116 719.867 51.7021C719.867 48.5926 717.346 46.0718 714.237 46.0718C711.127 46.0718 708.606 48.5926 708.606 51.7021C708.606 54.8116 711.127 57.3324 714.237 57.3324Z" stroke="url(#paint13_linear)" stroke-width="3" stroke-miterlimit="10"/>
<path d="M12.6777 27.4331L80.5329 7.62988" stroke="url(#paint14_linear)" stroke-width="3" stroke-miterlimit="10"/>
<path d="M91.5996 8.21289L159.066 51.7994" stroke="url(#paint15_linear)" stroke-width="3" stroke-miterlimit="10"/>
<path d="M170.23 51.799L237.6 29.666" stroke="url(#paint16_linear)" stroke-width="3" stroke-miterlimit="10"/>
<path d="M248.764 29.666H316.133" stroke="url(#paint17_linear)" stroke-width="3" stroke-miterlimit="10"/>
<path d="M327.297 29.666L394.57 40.7325" stroke="url(#paint18_linear)" stroke-width="3" stroke-miterlimit="10"/>
<path d="M405.733 40.7324L473.103 51.7989" stroke="url(#paint19_linear)" stroke-width="3" stroke-miterlimit="10"/>
<path d="M484.267 51.7989L551.636 40.7324" stroke="url(#paint20_linear)" stroke-width="3" stroke-miterlimit="10"/>
<path d="M562.8 40.7323L630.17 7.62988" stroke="url(#paint21_linear)" stroke-width="3" stroke-miterlimit="10"/>
<path d="M641.333 7.63037L708.703 51.7993" stroke="url(#paint22_linear)" stroke-width="3" stroke-miterlimit="10"/>
<path d="M719.866 51.7989L787.236 40.7324" stroke="url(#paint23_linear)" stroke-width="3" stroke-miterlimit="10"/>
<path d="M798.4 40.7326L865.77 18.5996" stroke="url(#paint24_linear)" stroke-width="3" stroke-miterlimit="10"/>
<path d="M876.934 18.5996H944.303" stroke="url(#paint25_linear)" stroke-width="3" stroke-miterlimit="10"/>
<path d="M955.467 18.5998L1022.74 7.63037" stroke="url(#paint26_linear)" stroke-width="3" stroke-miterlimit="10"/>
<defs>
<linearGradient id="paint0_linear" x1="2" y1="35.2924" x2="6.24988" y2="21.8239" gradientUnits="userSpaceOnUse">
<stop offset="0.481859" stop-color="#32004A"/>
<stop offset="1" stop-color="#BB32FF"/>
</linearGradient>
<linearGradient id="paint1_linear" x1="237.503" y1="35.2924" x2="241.753" y2="21.8239" gradientUnits="userSpaceOnUse">
<stop offset="0.481859" stop-color="#32004A"/>
<stop offset="1" stop-color="#BB32FF"/>
</linearGradient>
<linearGradient id="paint2_linear" x1="316.036" y1="35.2924" x2="320.286" y2="21.8239" gradientUnits="userSpaceOnUse">
<stop offset="0.481859" stop-color="#32004A"/>
<stop offset="1" stop-color="#BB32FF"/>
</linearGradient>
<linearGradient id="paint3_linear" x1="865.673" y1="24.2255" x2="869.923" y2="10.757" gradientUnits="userSpaceOnUse">
<stop offset="0.481859" stop-color="#32004A"/>
<stop offset="1" stop-color="#BB32FF"/>
</linearGradient>
<linearGradient id="paint4_linear" x1="944.205" y1="24.2255" x2="948.455" y2="10.757" gradientUnits="userSpaceOnUse">
<stop offset="0.481859" stop-color="#32004A"/>
<stop offset="1" stop-color="#BB32FF"/>
</linearGradient>
<linearGradient id="paint5_linear" x1="80.4365" y1="13.2563" x2="84.6864" y2="-0.2122" gradientUnits="userSpaceOnUse">
<stop offset="0.481859" stop-color="#32004A"/>
<stop offset="1" stop-color="#BB32FF"/>
</linearGradient>
<linearGradient id="paint6_linear" x1="630.169" y1="13.2563" x2="634.419" y2="-0.212208" gradientUnits="userSpaceOnUse">
<stop offset="0.481859" stop-color="#32004A"/>
<stop offset="1" stop-color="#BB32FF"/>
</linearGradient>
<linearGradient id="paint7_linear" x1="1022.74" y1="13.2563" x2="1026.99" y2="-0.212195" gradientUnits="userSpaceOnUse">
<stop offset="0.481859" stop-color="#32004A"/>
<stop offset="1" stop-color="#BB32FF"/>
</linearGradient>
<linearGradient id="paint8_linear" x1="394.57" y1="46.3588" x2="398.82" y2="32.8903" gradientUnits="userSpaceOnUse">
<stop offset="0.481859" stop-color="#32004A"/>
<stop offset="1" stop-color="#BB32FF"/>
</linearGradient>
<linearGradient id="paint9_linear" x1="551.637" y1="46.3588" x2="555.887" y2="32.8903" gradientUnits="userSpaceOnUse">
<stop offset="0.481859" stop-color="#32004A"/>
<stop offset="1" stop-color="#BB32FF"/>
</linearGradient>
<linearGradient id="paint10_linear" x1="787.139" y1="46.3588" x2="791.389" y2="32.8903" gradientUnits="userSpaceOnUse">
<stop offset="0.481859" stop-color="#32004A"/>
<stop offset="1" stop-color="#BB32FF"/>
</linearGradient>
<linearGradient id="paint11_linear" x1="158.97" y1="57.328" x2="163.22" y2="43.8596" gradientUnits="userSpaceOnUse">
<stop offset="0.481859" stop-color="#32004A"/>
<stop offset="1" stop-color="#BB32FF"/>
</linearGradient>
<linearGradient id="paint12_linear" x1="473.103" y1="57.328" x2="477.352" y2="43.8596" gradientUnits="userSpaceOnUse">
<stop offset="0.481859" stop-color="#32004A"/>
<stop offset="1" stop-color="#BB32FF"/>
</linearGradient>
<linearGradient id="paint13_linear" x1="708.606" y1="57.328" x2="712.856" y2="43.8596" gradientUnits="userSpaceOnUse">
<stop offset="0.481859" stop-color="#32004A"/>
<stop offset="1" stop-color="#BB32FF"/>
</linearGradient>
<linearGradient id="paint14_linear" x1="12.6777" y1="27.4254" x2="15.056" y2="1.60013" gradientUnits="userSpaceOnUse">
<stop offset="0.481859" stop-color="#32004A"/>
<stop offset="1" stop-color="#BB32FF"/>
</linearGradient>
<linearGradient id="paint15_linear" x1="91.5996" y1="51.7824" x2="102.819" y2="-3.25341" gradientUnits="userSpaceOnUse">
<stop offset="0.481859" stop-color="#32004A"/>
<stop offset="1" stop-color="#BB32FF"/>
</linearGradient>
<linearGradient id="paint16_linear" x1="170.23" y1="51.7904" x2="173.216" y2="22.9916" gradientUnits="userSpaceOnUse">
<stop offset="0.481859" stop-color="#32004A"/>
<stop offset="1" stop-color="#BB32FF"/>
</linearGradient>
<linearGradient id="paint17_linear" x1="248.764" y1="30.6656" x2="248.77" y2="29.3505" gradientUnits="userSpaceOnUse">
<stop offset="0.481859" stop-color="#32004A"/>
<stop offset="1" stop-color="#BB32FF"/>
</linearGradient>
<linearGradient id="paint18_linear" x1="327.297" y1="40.7282" x2="328.05" y2="26.2132" gradientUnits="userSpaceOnUse">
<stop offset="0.481859" stop-color="#32004A"/>
<stop offset="1" stop-color="#BB32FF"/>
</linearGradient>
<linearGradient id="paint19_linear" x1="405.733" y1="51.7946" x2="406.486" y2="37.2795" gradientUnits="userSpaceOnUse">
<stop offset="0.481859" stop-color="#32004A"/>
<stop offset="1" stop-color="#BB32FF"/>
</linearGradient>
<linearGradient id="paint20_linear" x1="484.267" y1="51.7946" x2="485.019" y2="37.2795" gradientUnits="userSpaceOnUse">
<stop offset="0.481859" stop-color="#32004A"/>
<stop offset="1" stop-color="#BB32FF"/>
</linearGradient>
<linearGradient id="paint21_linear" x1="562.8" y1="40.7194" x2="569.391" y2="-1.79341" gradientUnits="userSpaceOnUse">
<stop offset="0.481859" stop-color="#32004A"/>
<stop offset="1" stop-color="#BB32FF"/>
</linearGradient>
<linearGradient id="paint22_linear" x1="641.333" y1="51.7821" x2="652.857" y2="-3.92278" gradientUnits="userSpaceOnUse">
<stop offset="0.481859" stop-color="#32004A"/>
<stop offset="1" stop-color="#BB32FF"/>
</linearGradient>
<linearGradient id="paint23_linear" x1="719.866" y1="51.7946" x2="720.619" y2="37.2795" gradientUnits="userSpaceOnUse">
<stop offset="0.481859" stop-color="#32004A"/>
<stop offset="1" stop-color="#BB32FF"/>
</linearGradient>
<linearGradient id="paint24_linear" x1="798.4" y1="40.724" x2="801.386" y2="11.9252" gradientUnits="userSpaceOnUse">
<stop offset="0.481859" stop-color="#32004A"/>
<stop offset="1" stop-color="#BB32FF"/>
</linearGradient>
<linearGradient id="paint25_linear" x1="876.934" y1="19.5992" x2="876.94" y2="18.2841" gradientUnits="userSpaceOnUse">
<stop offset="0.481859" stop-color="#32004A"/>
<stop offset="1" stop-color="#BB32FF"/>
</linearGradient>
<linearGradient id="paint26_linear" x1="955.467" y1="18.5955" x2="956.207" y2="4.20714" gradientUnits="userSpaceOnUse">
<stop offset="0.481859" stop-color="#32004A"/>
<stop offset="1" stop-color="#BB32FF"/>
</linearGradient>
</defs>
</svg>
