<svg width="1036" height="59" viewBox="0 0 1036 59" fill="none" xmlns="http://www.w3.org/2000/svg">
<path d="M7.63033 25.6859C10.7399 25.6859 13.2607 23.1652 13.2607 20.0556C13.2607 16.9461 10.7399 14.4253 7.63033 14.4253C4.52078 14.4253 2 16.9461 2 20.0556C2 23.1652 4.52078 25.6859 7.63033 25.6859Z" stroke="url(#paint0_linear)" stroke-width="3" stroke-miterlimit="10"/>
<path d="M243.133 35.3935C246.243 35.3935 248.764 32.8727 248.764 29.7631C248.764 26.6536 246.243 24.1328 243.133 24.1328C240.024 24.1328 237.503 26.6536 237.503 29.7631C237.503 32.8727 240.024 35.3935 243.133 35.3935Z" stroke="url(#paint1_linear)" stroke-width="3" stroke-miterlimit="10"/>
<path d="M321.666 45.1005C324.776 45.1005 327.297 42.5797 327.297 39.4702C327.297 36.3606 324.776 33.8398 321.666 33.8398C318.557 33.8398 316.036 36.3606 316.036 39.4702C316.036 42.5797 318.557 45.1005 321.666 45.1005Z" stroke="url(#paint2_linear)" stroke-width="3" stroke-miterlimit="10"/>
<path d="M871.303 34.0346C874.413 34.0346 876.933 31.5138 876.933 28.4043C876.933 25.2947 874.413 22.7739 871.303 22.7739C868.194 22.7739 865.673 25.2947 865.673 28.4043C865.673 31.5138 868.194 34.0346 871.303 34.0346Z" stroke="url(#paint3_linear)" stroke-width="3" stroke-miterlimit="10"/>
<path d="M949.835 24.3271C952.945 24.3271 955.466 21.8063 955.466 18.6967C955.466 15.5872 952.945 13.0664 949.835 13.0664C946.726 13.0664 944.205 15.5872 944.205 18.6967C944.205 21.8063 946.726 24.3271 949.835 24.3271Z" stroke="url(#paint4_linear)" stroke-width="3" stroke-miterlimit="10"/>
<path d="M86.0668 22.9677C89.1764 22.9677 91.6972 20.4469 91.6972 17.3374C91.6972 14.2278 89.1764 11.707 86.0668 11.707C82.9573 11.707 80.4365 14.2278 80.4365 17.3374C80.4365 20.4469 82.9573 22.9677 86.0668 22.9677Z" stroke="url(#paint5_linear)" stroke-width="3" stroke-miterlimit="10"/>
<path d="M635.799 22.9677C638.909 22.9677 641.43 20.4469 641.43 17.3374C641.43 14.2278 638.909 11.707 635.799 11.707C632.69 11.707 630.169 14.2278 630.169 17.3374C630.169 20.4469 632.69 22.9677 635.799 22.9677Z" stroke="url(#paint6_linear)" stroke-width="3" stroke-miterlimit="10"/>
<path d="M1028.37 13.2607C1031.48 13.2607 1034 10.7399 1034 7.63033C1034 4.52078 1031.48 2 1028.37 2C1025.26 2 1022.74 4.52078 1022.74 7.63033C1022.74 10.7399 1025.26 13.2607 1028.37 13.2607Z" stroke="url(#paint7_linear)" stroke-width="3" stroke-miterlimit="10"/>
<path d="M400.201 27.0448C403.31 27.0448 405.831 24.524 405.831 21.4145C405.831 18.305 403.31 15.7842 400.201 15.7842C397.091 15.7842 394.57 18.305 394.57 21.4145C394.57 24.524 397.091 27.0448 400.201 27.0448Z" stroke="url(#paint8_linear)" stroke-width="3" stroke-miterlimit="10"/>
<path d="M557.267 46.4604C560.377 46.4604 562.897 43.9396 562.897 40.83C562.897 37.7205 560.377 35.1997 557.267 35.1997C554.157 35.1997 551.637 37.7205 551.637 40.83C551.637 43.9396 554.157 46.4604 557.267 46.4604Z" stroke="url(#paint9_linear)" stroke-width="3" stroke-miterlimit="10"/>
<path d="M792.769 56.1679C795.879 56.1679 798.399 53.6471 798.399 50.5376C798.399 47.428 795.879 44.9072 792.769 44.9072C789.659 44.9072 787.139 47.428 787.139 50.5376C787.139 53.6471 789.659 56.1679 792.769 56.1679Z" stroke="url(#paint10_linear)" stroke-width="3" stroke-miterlimit="10"/>
<path d="M164.6 47.7221C167.71 47.7221 170.23 45.2013 170.23 42.0918C170.23 38.9822 167.71 36.4614 164.6 36.4614C161.491 36.4614 158.97 38.9822 158.97 42.0918C158.97 45.2013 161.491 47.7221 164.6 47.7221Z" stroke="url(#paint11_linear)" stroke-width="3" stroke-miterlimit="10"/>
<path d="M478.733 38.0146C481.842 38.0146 484.363 35.4938 484.363 32.3842C484.363 29.2747 481.842 26.7539 478.733 26.7539C475.623 26.7539 473.103 29.2747 473.103 32.3842C473.103 35.4938 475.623 38.0146 478.733 38.0146Z" stroke="url(#paint12_linear)" stroke-width="3" stroke-miterlimit="10"/>
<path d="M714.237 57.4296C717.346 57.4296 719.867 54.9088 719.867 51.7993C719.867 48.6897 717.346 46.1689 714.237 46.1689C711.127 46.1689 708.606 48.6897 708.606 51.7993C708.606 54.9088 711.127 57.4296 714.237 57.4296Z" stroke="url(#paint13_linear)" stroke-width="3" stroke-miterlimit="10"/>
<path d="M12.6777 17.8229L80.5329 17.4346" stroke="url(#paint14_linear)" stroke-width="3" stroke-miterlimit="10"/>
<path d="M91.5996 18.0171L159.066 42.1887" stroke="url(#paint15_linear)" stroke-width="3" stroke-miterlimit="10"/>
<path d="M170.23 42.1887L237.6 29.7632" stroke="url(#paint16_linear)" stroke-width="3" stroke-miterlimit="10"/>
<path d="M248.764 29.7632L316.133 39.4706" stroke="url(#paint17_linear)" stroke-width="3" stroke-miterlimit="10"/>
<path d="M327.297 39.4709L394.57 21.415" stroke="url(#paint18_linear)" stroke-width="3" stroke-miterlimit="10"/>
<path d="M405.733 21.415L473.103 32.4815" stroke="url(#paint19_linear)" stroke-width="3" stroke-miterlimit="10"/>
<path d="M484.267 32.4814L551.636 40.8299" stroke="url(#paint20_linear)" stroke-width="3" stroke-miterlimit="10"/>
<path d="M562.8 40.8295L630.17 17.4346" stroke="url(#paint21_linear)" stroke-width="3" stroke-miterlimit="10"/>
<path d="M641.333 17.4346L708.703 51.8961" stroke="url(#paint22_linear)" stroke-width="3" stroke-miterlimit="10"/>
<path d="M719.866 51.8962L787.236 50.5371" stroke="url(#paint23_linear)" stroke-width="3" stroke-miterlimit="10"/>
<path d="M798.4 50.5373L865.77 28.4043" stroke="url(#paint24_linear)" stroke-width="3" stroke-miterlimit="10"/>
<path d="M876.934 28.4042L944.303 18.6968" stroke="url(#paint25_linear)" stroke-width="3" stroke-miterlimit="10"/>
<path d="M955.467 18.697L1022.74 7.72754" stroke="url(#paint26_linear)" stroke-width="3" stroke-miterlimit="10"/>
<defs>
<linearGradient id="paint0_linear" x1="2" y1="25.6816" x2="6.24988" y2="12.2131" gradientUnits="userSpaceOnUse">
<stop offset="0.481859" stop-color="#32004A"/>
<stop offset="1" stop-color="#BB32FF"/>
</linearGradient>
<linearGradient id="paint1_linear" x1="237.503" y1="35.3891" x2="241.753" y2="21.9206" gradientUnits="userSpaceOnUse">
<stop offset="0.481859" stop-color="#32004A"/>
<stop offset="1" stop-color="#BB32FF"/>
</linearGradient>
<linearGradient id="paint2_linear" x1="316.036" y1="45.0961" x2="320.286" y2="31.6276" gradientUnits="userSpaceOnUse">
<stop offset="0.481859" stop-color="#32004A"/>
<stop offset="1" stop-color="#BB32FF"/>
</linearGradient>
<linearGradient id="paint3_linear" x1="865.673" y1="34.0302" x2="869.923" y2="20.5617" gradientUnits="userSpaceOnUse">
<stop offset="0.481859" stop-color="#32004A"/>
<stop offset="1" stop-color="#BB32FF"/>
</linearGradient>
<linearGradient id="paint4_linear" x1="944.205" y1="24.3227" x2="948.455" y2="10.8542" gradientUnits="userSpaceOnUse">
<stop offset="0.481859" stop-color="#32004A"/>
<stop offset="1" stop-color="#BB32FF"/>
</linearGradient>
<linearGradient id="paint5_linear" x1="80.4365" y1="22.9633" x2="84.6864" y2="9.49483" gradientUnits="userSpaceOnUse">
<stop offset="0.481859" stop-color="#32004A"/>
<stop offset="1" stop-color="#BB32FF"/>
</linearGradient>
<linearGradient id="paint6_linear" x1="630.169" y1="22.9633" x2="634.419" y2="9.49482" gradientUnits="userSpaceOnUse">
<stop offset="0.481859" stop-color="#32004A"/>
<stop offset="1" stop-color="#BB32FF"/>
</linearGradient>
<linearGradient id="paint7_linear" x1="1022.74" y1="13.2563" x2="1026.99" y2="-0.212195" gradientUnits="userSpaceOnUse">
<stop offset="0.481859" stop-color="#32004A"/>
<stop offset="1" stop-color="#BB32FF"/>
</linearGradient>
<linearGradient id="paint8_linear" x1="394.57" y1="27.0404" x2="398.82" y2="13.572" gradientUnits="userSpaceOnUse">
<stop offset="0.481859" stop-color="#32004A"/>
<stop offset="1" stop-color="#BB32FF"/>
</linearGradient>
<linearGradient id="paint9_linear" x1="551.637" y1="46.456" x2="555.887" y2="32.9875" gradientUnits="userSpaceOnUse">
<stop offset="0.481859" stop-color="#32004A"/>
<stop offset="1" stop-color="#BB32FF"/>
</linearGradient>
<linearGradient id="paint10_linear" x1="787.139" y1="56.1635" x2="791.389" y2="42.695" gradientUnits="userSpaceOnUse">
<stop offset="0.481859" stop-color="#32004A"/>
<stop offset="1" stop-color="#BB32FF"/>
</linearGradient>
<linearGradient id="paint11_linear" x1="158.97" y1="47.7177" x2="163.22" y2="34.2492" gradientUnits="userSpaceOnUse">
<stop offset="0.481859" stop-color="#32004A"/>
<stop offset="1" stop-color="#BB32FF"/>
</linearGradient>
<linearGradient id="paint12_linear" x1="473.103" y1="38.0102" x2="477.352" y2="24.5417" gradientUnits="userSpaceOnUse">
<stop offset="0.481859" stop-color="#32004A"/>
<stop offset="1" stop-color="#BB32FF"/>
</linearGradient>
<linearGradient id="paint13_linear" x1="708.606" y1="57.4252" x2="712.856" y2="43.9568" gradientUnits="userSpaceOnUse">
<stop offset="0.481859" stop-color="#32004A"/>
<stop offset="1" stop-color="#BB32FF"/>
</linearGradient>
<linearGradient id="paint14_linear" x1="12.6777" y1="17.8227" x2="12.6787" y2="17.312" gradientUnits="userSpaceOnUse">
<stop offset="0.481859" stop-color="#32004A"/>
<stop offset="1" stop-color="#BB32FF"/>
</linearGradient>
<linearGradient id="paint15_linear" x1="91.5996" y1="42.1792" x2="95.1481" y2="10.7911" gradientUnits="userSpaceOnUse">
<stop offset="0.481859" stop-color="#32004A"/>
<stop offset="1" stop-color="#BB32FF"/>
</linearGradient>
<linearGradient id="paint16_linear" x1="170.23" y1="42.1839" x2="171.178" y2="25.8976" gradientUnits="userSpaceOnUse">
<stop offset="0.481859" stop-color="#32004A"/>
<stop offset="1" stop-color="#BB32FF"/>
</linearGradient>
<linearGradient id="paint17_linear" x1="248.764" y1="39.4669" x2="249.343" y2="26.7264" gradientUnits="userSpaceOnUse">
<stop offset="0.481859" stop-color="#32004A"/>
<stop offset="1" stop-color="#BB32FF"/>
</linearGradient>
<linearGradient id="paint18_linear" x1="327.297" y1="39.4639" x2="329.294" y2="15.8867" gradientUnits="userSpaceOnUse">
<stop offset="0.481859" stop-color="#32004A"/>
<stop offset="1" stop-color="#BB32FF"/>
</linearGradient>
<linearGradient id="paint19_linear" x1="405.733" y1="32.4772" x2="406.486" y2="17.9621" gradientUnits="userSpaceOnUse">
<stop offset="0.481859" stop-color="#32004A"/>
<stop offset="1" stop-color="#BB32FF"/>
</linearGradient>
<linearGradient id="paint20_linear" x1="484.267" y1="40.8266" x2="484.695" y2="29.8639" gradientUnits="userSpaceOnUse">
<stop offset="0.481859" stop-color="#32004A"/>
<stop offset="1" stop-color="#BB32FF"/>
</linearGradient>
<linearGradient id="paint21_linear" x1="562.8" y1="40.8204" x2="566.131" y2="10.4175" gradientUnits="userSpaceOnUse">
<stop offset="0.481859" stop-color="#32004A"/>
<stop offset="1" stop-color="#BB32FF"/>
</linearGradient>
<linearGradient id="paint22_linear" x1="641.333" y1="51.8826" x2="648.463" y2="7.71128" gradientUnits="userSpaceOnUse">
<stop offset="0.481859" stop-color="#32004A"/>
<stop offset="1" stop-color="#BB32FF"/>
</linearGradient>
<linearGradient id="paint23_linear" x1="719.866" y1="51.8956" x2="719.878" y2="50.1083" gradientUnits="userSpaceOnUse">
<stop offset="0.481859" stop-color="#32004A"/>
<stop offset="1" stop-color="#BB32FF"/>
</linearGradient>
<linearGradient id="paint24_linear" x1="798.4" y1="50.5287" x2="801.386" y2="21.7299" gradientUnits="userSpaceOnUse">
<stop offset="0.481859" stop-color="#32004A"/>
<stop offset="1" stop-color="#BB32FF"/>
</linearGradient>
<linearGradient id="paint25_linear" x1="876.934" y1="28.4005" x2="877.513" y2="15.66" gradientUnits="userSpaceOnUse">
<stop offset="0.481859" stop-color="#32004A"/>
<stop offset="1" stop-color="#BB32FF"/>
</linearGradient>
<linearGradient id="paint26_linear" x1="955.467" y1="18.6927" x2="956.207" y2="4.30431" gradientUnits="userSpaceOnUse">
<stop offset="0.481859" stop-color="#32004A"/>
<stop offset="1" stop-color="#BB32FF"/>
</linearGradient>
</defs>
</svg>
