<svg width="296" height="395" viewBox="0 0 296 395" fill="none" xmlns="http://www.w3.org/2000/svg">
<path d="M22.9838 305.26H21.5798V300.652H23.4698L22.9838 305.26ZM19.7798 305.26H18.3758V300.652H20.2658L19.7798 305.26ZM28.1861 313H26.2601V301.12H28.1861V313ZM33.9953 304H36.9113V305.512H34.0493V313H32.1233V305.512H30.4313V304H32.1233V302.704C32.1233 301.792 32.3993 301.084 32.9513 300.58C33.5033 300.076 34.2773 299.824 35.2733 299.824C35.6333 299.824 35.9633 299.866 36.2633 299.95C36.5633 300.022 36.7973 300.124 36.9653 300.256L36.6053 301.66C36.3293 301.48 35.9873 301.39 35.5793 301.39C34.5233 301.39 33.9953 301.876 33.9953 302.848V304ZM49.453 312.406C49.165 312.646 48.811 312.838 48.391 312.982C47.983 313.114 47.539 313.18 47.059 313.18C46.231 313.18 45.565 312.976 45.061 312.568C44.569 312.148 44.317 311.5 44.305 310.624V305.512H42.595V304H44.305V301.894L46.231 301.354V304H49.381V305.512H46.231V310.3C46.231 310.732 46.345 311.056 46.573 311.272C46.813 311.476 47.137 311.578 47.545 311.578C48.097 311.578 48.583 311.386 49.003 311.002L49.453 312.406ZM56.1622 303.82C57.1582 303.82 57.9682 304.108 58.5922 304.684C59.2282 305.26 59.5462 306.088 59.5462 307.168V313H57.6202V307.78C57.6202 306.196 56.9782 305.404 55.6942 305.404C55.0222 305.404 54.4462 305.638 53.9662 306.106C53.4862 306.574 53.2462 307.288 53.2462 308.248V313H51.3202V299.95H53.2462V305.44C53.5462 304.888 53.9422 304.48 54.4342 304.216C54.9382 303.952 55.5142 303.82 56.1622 303.82ZM70.5107 308.23C70.5107 308.578 70.4867 308.908 70.4387 309.22H63.8507C63.9587 310.012 64.2407 310.618 64.6967 311.038C65.1527 311.446 65.7407 311.65 66.4607 311.65C67.0487 311.65 67.5347 311.548 67.9187 311.344C68.3147 311.128 68.5847 310.822 68.7287 310.426L70.3307 311.092C69.6587 312.484 68.3687 313.18 66.4607 313.18C65.0447 313.18 63.9347 312.766 63.1307 311.938C62.3387 311.11 61.9427 309.964 61.9427 308.5C61.9427 307.024 62.3267 305.878 63.0947 305.062C63.8627 304.234 64.9427 303.82 66.3347 303.82C67.6547 303.82 68.6807 304.222 69.4127 305.026C70.1447 305.83 70.5107 306.898 70.5107 308.23ZM66.3347 305.35C65.6387 305.35 65.0747 305.554 64.6427 305.962C64.2227 306.37 63.9587 306.964 63.8507 307.744H68.7107C68.6147 306.988 68.3567 306.4 67.9367 305.98C67.5287 305.56 66.9947 305.35 66.3347 305.35ZM77.5677 303.82C77.9877 303.82 78.3177 303.88 78.5577 304L78.2517 305.764C77.9757 305.608 77.5977 305.53 77.1177 305.53C76.7337 305.53 76.3677 305.632 76.0197 305.836C75.6837 306.04 75.4017 306.346 75.1737 306.754C74.9577 307.162 74.8497 307.654 74.8497 308.23V313H72.9237V304H74.5617L74.7237 305.62C75.2277 304.42 76.1757 303.82 77.5677 303.82ZM88.1943 308.23C88.1943 308.578 88.1703 308.908 88.1223 309.22H81.5343C81.6423 310.012 81.9243 310.618 82.3803 311.038C82.8363 311.446 83.4243 311.65 84.1443 311.65C84.7323 311.65 85.2183 311.548 85.6023 311.344C85.9983 311.128 86.2683 310.822 86.4123 310.426L88.0143 311.092C87.3423 312.484 86.0523 313.18 84.1443 313.18C82.7283 313.18 81.6183 312.766 80.8143 311.938C80.0223 311.11 79.6263 309.964 79.6263 308.5C79.6263 307.024 80.0103 305.878 80.7783 305.062C81.5463 304.234 82.6263 303.82 84.0183 303.82C85.3383 303.82 86.3643 304.222 87.0963 305.026C87.8283 305.83 88.1943 306.898 88.1943 308.23ZM84.0183 305.35C83.3223 305.35 82.7583 305.554 82.3263 305.962C81.9063 306.37 81.6423 306.964 81.5343 307.744H86.3943C86.2983 306.988 86.0403 306.4 85.6203 305.98C85.2123 305.56 84.6783 305.35 84.0183 305.35ZM91.5865 305.26H90.1825V300.652H92.0725L91.5865 305.26ZM97.6797 313.18C96.7677 313.18 95.9577 313.024 95.2497 312.712C94.5537 312.4 94.0257 311.926 93.6657 311.29L94.9617 310.174C95.1897 310.69 95.5437 311.068 96.0237 311.308C96.5037 311.548 97.0797 311.668 97.7517 311.668C98.3637 311.668 98.8377 311.572 99.1737 311.38C99.5097 311.176 99.6777 310.912 99.6777 310.588C99.6777 310.3 99.5217 310.072 99.2097 309.904C98.8977 309.724 98.3577 309.556 97.5897 309.4C96.2577 309.148 95.3217 308.812 94.7817 308.392C94.2417 307.972 93.9717 307.378 93.9717 306.61C93.9717 306.118 94.1217 305.662 94.4217 305.242C94.7217 304.81 95.1537 304.468 95.7177 304.216C96.2937 303.952 96.9717 303.82 97.7517 303.82C98.7477 303.82 99.5457 303.988 100.146 304.324C100.746 304.648 101.208 305.158 101.532 305.854L100.164 306.862C99.9477 306.334 99.6417 305.95 99.2457 305.71C98.8617 305.458 98.3697 305.332 97.7697 305.332C97.2297 305.332 96.7797 305.446 96.4197 305.674C96.0717 305.89 95.8977 306.142 95.8977 306.43C95.8977 306.754 96.0537 307.012 96.3657 307.204C96.6897 307.396 97.2717 307.57 98.1117 307.726C99.3837 307.954 100.284 308.278 100.812 308.698C101.34 309.118 101.604 309.706 101.604 310.462C101.604 311.266 101.256 311.92 100.56 312.424C99.8637 312.928 98.9037 313.18 97.6797 313.18ZM115.353 312.406C115.065 312.646 114.711 312.838 114.291 312.982C113.883 313.114 113.439 313.18 112.959 313.18C112.131 313.18 111.465 312.976 110.961 312.568C110.469 312.148 110.217 311.5 110.205 310.624V305.512H108.495V304H110.205V301.894L112.131 301.354V304H115.281V305.512H112.131V310.3C112.131 310.732 112.245 311.056 112.473 311.272C112.713 311.476 113.037 311.578 113.445 311.578C113.997 311.578 114.483 311.386 114.903 311.002L115.353 312.406ZM130.83 304L127.824 313H125.718L123.45 306.196L121.29 313H119.184L116.178 304H118.266L120.3 311.2L122.55 304H124.458L126.69 311.2L128.742 304H130.83ZM136.526 303.82C137.93 303.82 139.028 304.234 139.82 305.062C140.612 305.89 141.008 307.036 141.008 308.5C141.008 309.964 140.612 311.11 139.82 311.938C139.028 312.766 137.93 313.18 136.526 313.18C135.122 313.18 134.024 312.766 133.232 311.938C132.44 311.11 132.044 309.964 132.044 308.5C132.044 307.036 132.44 305.89 133.232 305.062C134.024 304.234 135.122 303.82 136.526 303.82ZM136.526 305.332C135.71 305.332 135.08 305.608 134.636 306.16C134.204 306.7 133.988 307.48 133.988 308.5C133.988 309.52 134.204 310.306 134.636 310.858C135.08 311.398 135.71 311.668 136.526 311.668C137.342 311.668 137.972 311.392 138.416 310.84C138.86 310.288 139.082 309.508 139.082 308.5C139.082 307.492 138.86 306.712 138.416 306.16C137.972 305.608 137.342 305.332 136.526 305.332ZM153.296 303.82C154.7 303.82 155.798 304.234 156.59 305.062C157.382 305.89 157.778 307.036 157.778 308.5C157.778 309.964 157.382 311.11 156.59 311.938C155.798 312.766 154.7 313.18 153.296 313.18C151.892 313.18 150.794 312.766 150.002 311.938C149.21 311.11 148.814 309.964 148.814 308.5C148.814 307.036 149.21 305.89 150.002 305.062C150.794 304.234 151.892 303.82 153.296 303.82ZM153.296 305.332C152.48 305.332 151.85 305.608 151.406 306.16C150.974 306.7 150.758 307.48 150.758 308.5C150.758 309.52 150.974 310.306 151.406 310.858C151.85 311.398 152.48 311.668 153.296 311.668C154.112 311.668 154.742 311.392 155.186 310.84C155.63 310.288 155.852 309.508 155.852 308.5C155.852 307.492 155.63 306.712 155.186 306.16C154.742 305.608 154.112 305.332 153.296 305.332ZM162.685 304H165.601V305.512H162.739V313H160.813V305.512H159.121V304H160.813V302.704C160.813 301.792 161.089 301.084 161.641 300.58C162.193 300.076 162.967 299.824 163.963 299.824C164.323 299.824 164.653 299.866 164.953 299.95C165.253 300.022 165.487 300.124 165.655 300.256L165.295 301.66C165.019 301.48 164.677 301.39 164.269 301.39C163.213 301.39 162.685 301.876 162.685 302.848V304ZM180.746 304V313H179.036L178.964 311.542C178.352 312.634 177.284 313.18 175.76 313.18C174.788 313.18 174.002 312.916 173.402 312.388C172.814 311.848 172.52 311.026 172.52 309.922V304H174.446V309.418C174.446 310.21 174.602 310.774 174.914 311.11C175.226 311.434 175.688 311.596 176.3 311.596C177.032 311.596 177.632 311.368 178.1 310.912C178.58 310.444 178.82 309.76 178.82 308.86V304H180.746ZM186.994 313.18C186.082 313.18 185.272 313.024 184.564 312.712C183.868 312.4 183.34 311.926 182.98 311.29L184.276 310.174C184.504 310.69 184.858 311.068 185.338 311.308C185.818 311.548 186.394 311.668 187.066 311.668C187.678 311.668 188.152 311.572 188.488 311.38C188.824 311.176 188.992 310.912 188.992 310.588C188.992 310.3 188.836 310.072 188.524 309.904C188.212 309.724 187.672 309.556 186.904 309.4C185.572 309.148 184.636 308.812 184.096 308.392C183.556 307.972 183.286 307.378 183.286 306.61C183.286 306.118 183.436 305.662 183.736 305.242C184.036 304.81 184.468 304.468 185.032 304.216C185.608 303.952 186.286 303.82 187.066 303.82C188.062 303.82 188.86 303.988 189.46 304.324C190.06 304.648 190.522 305.158 190.846 305.854L189.478 306.862C189.262 306.334 188.956 305.95 188.56 305.71C188.176 305.458 187.684 305.332 187.084 305.332C186.544 305.332 186.094 305.446 185.734 305.674C185.386 305.89 185.212 306.142 185.212 306.43C185.212 306.754 185.368 307.012 185.68 307.204C186.004 307.396 186.586 307.57 187.426 307.726C188.698 307.954 189.598 308.278 190.126 308.698C190.654 309.118 190.918 309.706 190.918 310.462C190.918 311.266 190.57 311.92 189.874 312.424C189.178 312.928 188.218 313.18 186.994 313.18ZM194.218 310.57C194.698 310.57 195.07 310.75 195.334 311.11C195.61 311.458 195.748 311.914 195.748 312.478C195.748 313.162 195.568 313.786 195.208 314.35C194.848 314.926 194.32 315.376 193.624 315.7L192.688 314.908C193.18 314.74 193.594 314.488 193.93 314.152C194.266 313.828 194.488 313.462 194.596 313.054L194.506 313.018C194.41 313.114 194.242 313.162 194.002 313.162C193.702 313.162 193.432 313.054 193.192 312.838C192.964 312.61 192.85 312.298 192.85 311.902C192.85 311.518 192.982 311.2 193.246 310.948C193.51 310.696 193.834 310.57 194.218 310.57ZM217.315 304L214.309 313H212.203L209.935 306.196L207.775 313H205.669L202.663 304H204.751L206.785 311.2L209.035 304H210.943L213.175 311.2L215.227 304H217.315ZM227.097 308.23C227.097 308.578 227.073 308.908 227.025 309.22H220.437C220.545 310.012 220.827 310.618 221.283 311.038C221.739 311.446 222.327 311.65 223.047 311.65C223.635 311.65 224.121 311.548 224.505 311.344C224.901 311.128 225.171 310.822 225.315 310.426L226.917 311.092C226.245 312.484 224.955 313.18 223.047 313.18C221.631 313.18 220.521 312.766 219.717 311.938C218.925 311.11 218.529 309.964 218.529 308.5C218.529 307.024 218.913 305.878 219.681 305.062C220.449 304.234 221.529 303.82 222.921 303.82C224.241 303.82 225.267 304.222 225.999 305.026C226.731 305.83 227.097 306.898 227.097 308.23ZM222.921 305.35C222.225 305.35 221.661 305.554 221.229 305.962C220.809 306.37 220.545 306.964 220.437 307.744H225.297C225.201 306.988 224.943 306.4 224.523 305.98C224.115 305.56 223.581 305.35 222.921 305.35ZM230.489 305.26H229.085V300.652H230.975L230.489 305.26ZM235.389 310.372C235.389 310.816 235.455 311.128 235.587 311.308C235.719 311.476 235.965 311.56 236.325 311.56C236.553 311.56 236.745 311.548 236.901 311.524C237.069 311.488 237.273 311.422 237.513 311.326L237.297 312.874C236.889 313.078 236.391 313.18 235.803 313.18C234.999 313.18 234.405 312.976 234.021 312.568C233.649 312.16 233.463 311.518 233.463 310.642V299.95H235.389V310.372ZM240.997 310.372C240.997 310.816 241.063 311.128 241.195 311.308C241.327 311.476 241.573 311.56 241.933 311.56C242.161 311.56 242.353 311.548 242.509 311.524C242.677 311.488 242.881 311.422 243.121 311.326L242.905 312.874C242.497 313.078 241.999 313.18 241.411 313.18C240.607 313.18 240.013 312.976 239.629 312.568C239.257 312.16 239.071 311.518 239.071 310.642V299.95H240.997V310.372ZM253.316 313.18C252.404 313.18 251.594 313.024 250.886 312.712C250.19 312.4 249.662 311.926 249.302 311.29L250.598 310.174C250.826 310.69 251.18 311.068 251.66 311.308C252.14 311.548 252.716 311.668 253.388 311.668C254 311.668 254.474 311.572 254.81 311.38C255.146 311.176 255.314 310.912 255.314 310.588C255.314 310.3 255.158 310.072 254.846 309.904C254.534 309.724 253.994 309.556 253.226 309.4C251.894 309.148 250.958 308.812 250.418 308.392C249.878 307.972 249.608 307.378 249.608 306.61C249.608 306.118 249.758 305.662 250.058 305.242C250.358 304.81 250.79 304.468 251.354 304.216C251.93 303.952 252.608 303.82 253.388 303.82C254.384 303.82 255.182 303.988 255.782 304.324C256.382 304.648 256.844 305.158 257.168 305.854L255.8 306.862C255.584 306.334 255.278 305.95 254.882 305.71C254.498 305.458 254.006 305.332 253.406 305.332C252.866 305.332 252.416 305.446 252.056 305.674C251.708 305.89 251.534 306.142 251.534 306.43C251.534 306.754 251.69 307.012 252.002 307.204C252.326 307.396 252.908 307.57 253.748 307.726C255.02 307.954 255.92 308.278 256.448 308.698C256.976 309.118 257.24 309.706 257.24 310.462C257.24 311.266 256.892 311.92 256.196 312.424C255.5 312.928 254.54 313.18 253.316 313.18ZM267.614 308.23C267.614 308.578 267.59 308.908 267.542 309.22H260.954C261.062 310.012 261.344 310.618 261.8 311.038C262.256 311.446 262.844 311.65 263.564 311.65C264.152 311.65 264.638 311.548 265.022 311.344C265.418 311.128 265.688 310.822 265.832 310.426L267.434 311.092C266.762 312.484 265.472 313.18 263.564 313.18C262.148 313.18 261.038 312.766 260.234 311.938C259.442 311.11 259.046 309.964 259.046 308.5C259.046 307.024 259.43 305.878 260.198 305.062C260.966 304.234 262.046 303.82 263.438 303.82C264.758 303.82 265.784 304.222 266.516 305.026C267.248 305.83 267.614 306.898 267.614 308.23ZM263.438 305.35C262.742 305.35 262.178 305.554 261.746 305.962C261.326 306.37 261.062 306.964 260.954 307.744H265.814C265.718 306.988 265.46 306.4 265.04 305.98C264.632 305.56 264.098 305.35 263.438 305.35ZM278.073 308.23C278.073 308.578 278.049 308.908 278.001 309.22H271.413C271.521 310.012 271.803 310.618 272.259 311.038C272.715 311.446 273.303 311.65 274.023 311.65C274.611 311.65 275.097 311.548 275.481 311.344C275.877 311.128 276.147 310.822 276.291 310.426L277.893 311.092C277.221 312.484 275.931 313.18 274.023 313.18C272.607 313.18 271.497 312.766 270.693 311.938C269.901 311.11 269.505 309.964 269.505 308.5C269.505 307.024 269.889 305.878 270.657 305.062C271.425 304.234 272.505 303.82 273.897 303.82C275.217 303.82 276.243 304.222 276.975 305.026C277.707 305.83 278.073 306.898 278.073 308.23ZM273.897 305.35C273.201 305.35 272.637 305.554 272.205 305.962C271.785 306.37 271.521 306.964 271.413 307.744H276.273C276.177 306.988 275.919 306.4 275.499 305.98C275.091 305.56 274.557 305.35 273.897 305.35ZM23.2443 331.488C22.8363 331.488 22.5183 331.386 22.2903 331.182C22.0623 330.966 21.9483 330.666 21.9483 330.282C21.9483 329.898 22.0623 329.604 22.2903 329.4C22.5183 329.196 22.8363 329.094 23.2443 329.094C23.6523 329.094 23.9643 329.196 24.1803 329.4C24.4083 329.604 24.5223 329.898 24.5223 330.282C24.5223 330.666 24.4083 330.966 24.1803 331.182C23.9643 331.386 23.6523 331.488 23.2443 331.488ZM24.1983 342H22.2723V333H24.1983V342ZM33.0438 341.406C32.7558 341.646 32.4018 341.838 31.9818 341.982C31.5738 342.114 31.1298 342.18 30.6498 342.18C29.8218 342.18 29.1558 341.976 28.6518 341.568C28.1598 341.148 27.9078 340.5 27.8958 339.624V334.512H26.1858V333H27.8958V330.894L29.8218 330.354V333H32.9718V334.512H29.8218V339.3C29.8218 339.732 29.9358 340.056 30.1638 340.272C30.4038 340.476 30.7278 340.578 31.1358 340.578C31.6878 340.578 32.1738 340.386 32.5938 340.002L33.0438 341.406ZM48.4702 340.74C48.7342 340.74 48.9562 340.716 49.1362 340.668L49.0102 341.964C48.6862 342.108 48.3142 342.18 47.8942 342.18C47.3782 342.18 46.9642 342.078 46.6522 341.874C46.3522 341.67 46.1542 341.328 46.0582 340.848C45.7822 341.268 45.3742 341.598 44.8342 341.838C44.2942 342.066 43.6882 342.18 43.0162 342.18C42.1402 342.18 41.4322 341.976 40.8922 341.568C40.3522 341.16 40.0822 340.578 40.0822 339.822C40.0822 339.114 40.3762 338.52 40.9642 338.04C41.5522 337.548 42.4282 337.2 43.5922 336.996L45.8782 336.6V336.114C45.8782 335.562 45.7162 335.13 45.3922 334.818C45.0682 334.494 44.6182 334.332 44.0422 334.332C42.8542 334.332 42.0802 334.872 41.7202 335.952L40.2262 335.16C40.4422 334.44 40.8802 333.87 41.5402 333.45C42.2122 333.03 43.0342 332.82 44.0062 332.82C45.1702 332.82 46.0942 333.09 46.7782 333.63C47.4622 334.17 47.8042 334.962 47.8042 336.006V340.074C47.8042 340.302 47.8522 340.47 47.9482 340.578C48.0562 340.686 48.2302 340.74 48.4702 340.74ZM43.4302 340.722C44.0782 340.722 44.6482 340.566 45.1402 340.254C45.6322 339.942 45.8782 339.528 45.8782 339.012V337.932L43.9162 338.328C43.2922 338.448 42.8302 338.616 42.5302 338.832C42.2302 339.048 42.0802 339.336 42.0802 339.696C42.0802 340.032 42.1942 340.29 42.4222 340.47C42.6622 340.638 42.9982 340.722 43.4302 340.722ZM56.4403 341.406C56.1523 341.646 55.7983 341.838 55.3783 341.982C54.9703 342.114 54.5263 342.18 54.0463 342.18C53.2183 342.18 52.5523 341.976 52.0483 341.568C51.5563 341.148 51.3043 340.5 51.2923 339.624V334.512H49.5823V333H51.2923V330.894L53.2183 330.354V333H56.3683V334.512H53.2183V339.3C53.2183 339.732 53.3323 340.056 53.5603 340.272C53.8003 340.476 54.1243 340.578 54.5323 340.578C55.0843 340.578 55.5703 340.386 55.9903 340.002L56.4403 341.406ZM68.9327 332.82C69.9287 332.82 70.7387 333.108 71.3627 333.684C71.9987 334.26 72.3167 335.088 72.3167 336.168V342H70.3907V336.78C70.3907 335.196 69.7487 334.404 68.4647 334.404C67.7927 334.404 67.2167 334.638 66.7367 335.106C66.2567 335.574 66.0167 336.288 66.0167 337.248V342H64.0907V328.95H66.0167V334.44C66.3167 333.888 66.7127 333.48 67.2047 333.216C67.7087 332.952 68.2847 332.82 68.9327 332.82ZM79.1952 332.82C80.5992 332.82 81.6972 333.234 82.4892 334.062C83.2812 334.89 83.6772 336.036 83.6772 337.5C83.6772 338.964 83.2812 340.11 82.4892 340.938C81.6972 341.766 80.5992 342.18 79.1952 342.18C77.7912 342.18 76.6932 341.766 75.9012 340.938C75.1092 340.11 74.7132 338.964 74.7132 337.5C74.7132 336.036 75.1092 334.89 75.9012 334.062C76.6932 333.234 77.7912 332.82 79.1952 332.82ZM79.1952 334.332C78.3792 334.332 77.7492 334.608 77.3052 335.16C76.8732 335.7 76.6572 336.48 76.6572 337.5C76.6572 338.52 76.8732 339.306 77.3052 339.858C77.7492 340.398 78.3792 340.668 79.1952 340.668C80.0112 340.668 80.6412 340.392 81.0852 339.84C81.5292 339.288 81.7512 338.508 81.7512 337.5C81.7512 336.492 81.5292 335.712 81.0852 335.16C80.6412 334.608 80.0112 334.332 79.1952 334.332ZM97.0052 332.82C97.6052 332.82 98.1572 332.946 98.6612 333.198C99.1652 333.438 99.5672 333.81 99.8672 334.314C100.167 334.818 100.317 335.436 100.317 336.168V342H98.3912V336.474C98.3912 335.766 98.2232 335.244 97.8872 334.908C97.5512 334.572 97.1012 334.404 96.5372 334.404C95.8772 334.404 95.3192 334.644 94.8632 335.124C94.4192 335.604 94.1972 336.264 94.1972 337.104V342H92.2712V336.474C92.2712 335.766 92.1032 335.244 91.7672 334.908C91.4312 334.572 90.9812 334.404 90.4172 334.404C90.0332 334.404 89.6612 334.506 89.3012 334.71C88.9412 334.902 88.6472 335.208 88.4192 335.628C88.1912 336.048 88.0772 336.576 88.0772 337.212V342H86.1512V333H87.8612L87.9512 334.494C88.2512 333.942 88.6592 333.528 89.1752 333.252C89.6912 332.964 90.2552 332.82 90.8672 332.82C91.5392 332.82 92.1452 332.976 92.6852 333.288C93.2372 333.588 93.6452 334.032 93.9092 334.62C94.1852 334.032 94.6052 333.588 95.1692 333.288C95.7452 332.976 96.3572 332.82 97.0052 332.82ZM111.283 337.23C111.283 337.578 111.259 337.908 111.211 338.22H104.623C104.731 339.012 105.013 339.618 105.469 340.038C105.925 340.446 106.513 340.65 107.233 340.65C107.821 340.65 108.307 340.548 108.691 340.344C109.087 340.128 109.357 339.822 109.501 339.426L111.103 340.092C110.431 341.484 109.141 342.18 107.233 342.18C105.817 342.18 104.707 341.766 103.903 340.938C103.111 340.11 102.715 338.964 102.715 337.5C102.715 336.024 103.099 334.878 103.867 334.062C104.635 333.234 105.715 332.82 107.107 332.82C108.427 332.82 109.453 333.222 110.185 334.026C110.917 334.83 111.283 335.898 111.283 337.23ZM107.107 334.35C106.411 334.35 105.847 334.554 105.415 334.962C104.995 335.37 104.731 335.964 104.623 336.744H109.483C109.387 335.988 109.129 335.4 108.709 334.98C108.301 334.56 107.767 334.35 107.107 334.35ZM114.65 339.57C115.13 339.57 115.502 339.75 115.766 340.11C116.042 340.458 116.18 340.914 116.18 341.478C116.18 342.162 116 342.786 115.64 343.35C115.28 343.926 114.752 344.376 114.056 344.7L113.12 343.908C113.612 343.74 114.026 343.488 114.362 343.152C114.698 342.828 114.92 342.462 115.028 342.054L114.938 342.018C114.842 342.114 114.674 342.162 114.434 342.162C114.134 342.162 113.864 342.054 113.624 341.838C113.396 341.61 113.282 341.298 113.282 340.902C113.282 340.518 113.414 340.2 113.678 339.948C113.942 339.696 114.266 339.57 114.65 339.57ZM125.444 331.488C125.036 331.488 124.718 331.386 124.49 331.182C124.262 330.966 124.148 330.666 124.148 330.282C124.148 329.898 124.262 329.604 124.49 329.4C124.718 329.196 125.036 329.094 125.444 329.094C125.852 329.094 126.164 329.196 126.38 329.4C126.608 329.604 126.722 329.898 126.722 330.282C126.722 330.666 126.608 330.966 126.38 331.182C126.164 331.386 125.852 331.488 125.444 331.488ZM126.398 342H124.472V333H126.398V342ZM131.967 333H134.883V334.512H132.021V342H130.095V334.512H128.403V333H130.095V331.704C130.095 330.792 130.371 330.084 130.923 329.58C131.475 329.076 132.249 328.824 133.245 328.824C133.605 328.824 133.935 328.866 134.235 328.95C134.535 329.022 134.769 329.124 134.937 329.256L134.577 330.66C134.301 330.48 133.959 330.39 133.551 330.39C132.495 330.39 131.967 330.876 131.967 331.848V333ZM147.425 341.406C147.137 341.646 146.783 341.838 146.363 341.982C145.955 342.114 145.511 342.18 145.031 342.18C144.203 342.18 143.537 341.976 143.033 341.568C142.541 341.148 142.289 340.5 142.277 339.624V334.512H140.567V333H142.277V330.894L144.203 330.354V333H147.353V334.512H144.203V339.3C144.203 339.732 144.317 340.056 144.545 340.272C144.785 340.476 145.109 340.578 145.517 340.578C146.069 340.578 146.555 340.386 146.975 340.002L147.425 341.406ZM154.134 332.82C155.13 332.82 155.94 333.108 156.564 333.684C157.2 334.26 157.518 335.088 157.518 336.168V342H155.592V336.78C155.592 335.196 154.95 334.404 153.666 334.404C152.994 334.404 152.418 334.638 151.938 335.106C151.458 335.574 151.218 336.288 151.218 337.248V342H149.292V328.95H151.218V334.44C151.518 333.888 151.914 333.48 152.406 333.216C152.91 332.952 153.486 332.82 154.134 332.82ZM168.482 337.23C168.482 337.578 168.458 337.908 168.41 338.22H161.822C161.93 339.012 162.212 339.618 162.668 340.038C163.124 340.446 163.712 340.65 164.432 340.65C165.02 340.65 165.506 340.548 165.89 340.344C166.286 340.128 166.556 339.822 166.7 339.426L168.302 340.092C167.63 341.484 166.34 342.18 164.432 342.18C163.016 342.18 161.906 341.766 161.102 340.938C160.31 340.11 159.914 338.964 159.914 337.5C159.914 336.024 160.298 334.878 161.066 334.062C161.834 333.234 162.914 332.82 164.306 332.82C165.626 332.82 166.652 333.222 167.384 334.026C168.116 334.83 168.482 335.898 168.482 337.23ZM164.306 334.35C163.61 334.35 163.046 334.554 162.614 334.962C162.194 335.37 161.93 335.964 161.822 336.744H166.682C166.586 335.988 166.328 335.4 165.908 334.98C165.5 334.56 164.966 334.35 164.306 334.35ZM175.539 332.82C175.959 332.82 176.289 332.88 176.529 333L176.223 334.764C175.947 334.608 175.569 334.53 175.089 334.53C174.705 334.53 174.339 334.632 173.991 334.836C173.655 335.04 173.373 335.346 173.145 335.754C172.929 336.162 172.821 336.654 172.821 337.23V342H170.895V333H172.533L172.695 334.62C173.199 333.42 174.147 332.82 175.539 332.82ZM186.166 337.23C186.166 337.578 186.142 337.908 186.094 338.22H179.506C179.614 339.012 179.896 339.618 180.352 340.038C180.808 340.446 181.396 340.65 182.116 340.65C182.704 340.65 183.19 340.548 183.574 340.344C183.97 340.128 184.24 339.822 184.384 339.426L185.986 340.092C185.314 341.484 184.024 342.18 182.116 342.18C180.7 342.18 179.59 341.766 178.786 340.938C177.994 340.11 177.598 338.964 177.598 337.5C177.598 336.024 177.982 334.878 178.75 334.062C179.518 333.234 180.598 332.82 181.99 332.82C183.31 332.82 184.336 333.222 185.068 334.026C185.8 334.83 186.166 335.898 186.166 337.23ZM181.99 334.35C181.294 334.35 180.73 334.554 180.298 334.962C179.878 335.37 179.614 335.964 179.506 336.744H184.366C184.27 335.988 184.012 335.4 183.592 334.98C183.184 334.56 182.65 334.35 181.99 334.35ZM189.558 334.26H188.154V329.652H190.044L189.558 334.26ZM195.651 342.18C194.739 342.18 193.929 342.024 193.221 341.712C192.525 341.4 191.997 340.926 191.637 340.29L192.933 339.174C193.161 339.69 193.515 340.068 193.995 340.308C194.475 340.548 195.051 340.668 195.723 340.668C196.335 340.668 196.809 340.572 197.145 340.38C197.481 340.176 197.649 339.912 197.649 339.588C197.649 339.3 197.493 339.072 197.181 338.904C196.869 338.724 196.329 338.556 195.561 338.4C194.229 338.148 193.293 337.812 192.753 337.392C192.213 336.972 191.943 336.378 191.943 335.61C191.943 335.118 192.093 334.662 192.393 334.242C192.693 333.81 193.125 333.468 193.689 333.216C194.265 332.952 194.943 332.82 195.723 332.82C196.719 332.82 197.517 332.988 198.117 333.324C198.717 333.648 199.179 334.158 199.503 334.854L198.135 335.862C197.919 335.334 197.613 334.95 197.217 334.71C196.833 334.458 196.341 334.332 195.741 334.332C195.201 334.332 194.751 334.446 194.391 334.674C194.043 334.89 193.869 335.142 193.869 335.43C193.869 335.754 194.025 336.012 194.337 336.204C194.661 336.396 195.243 336.57 196.083 336.726C197.355 336.954 198.255 337.278 198.783 337.698C199.311 338.118 199.575 338.706 199.575 339.462C199.575 340.266 199.227 340.92 198.531 341.424C197.835 341.928 196.875 342.18 195.651 342.18ZM218.628 332.82C219.228 332.82 219.78 332.946 220.284 333.198C220.788 333.438 221.19 333.81 221.49 334.314C221.79 334.818 221.94 335.436 221.94 336.168V342H220.014V336.474C220.014 335.766 219.846 335.244 219.51 334.908C219.174 334.572 218.724 334.404 218.16 334.404C217.5 334.404 216.942 334.644 216.486 335.124C216.042 335.604 215.82 336.264 215.82 337.104V342H213.894V336.474C213.894 335.766 213.726 335.244 213.39 334.908C213.054 334.572 212.604 334.404 212.04 334.404C211.656 334.404 211.284 334.506 210.924 334.71C210.564 334.902 210.27 335.208 210.042 335.628C209.814 336.048 209.7 336.576 209.7 337.212V342H207.774V333H209.484L209.574 334.494C209.874 333.942 210.282 333.528 210.798 333.252C211.314 332.964 211.878 332.82 212.49 332.82C213.162 332.82 213.768 332.976 214.308 333.288C214.86 333.588 215.268 334.032 215.532 334.62C215.808 334.032 216.228 333.588 216.792 333.288C217.368 332.976 217.98 332.82 218.628 332.82ZM228.82 332.82C230.224 332.82 231.322 333.234 232.114 334.062C232.906 334.89 233.302 336.036 233.302 337.5C233.302 338.964 232.906 340.11 232.114 340.938C231.322 341.766 230.224 342.18 228.82 342.18C227.416 342.18 226.318 341.766 225.526 340.938C224.734 340.11 224.338 338.964 224.338 337.5C224.338 336.036 224.734 334.89 225.526 334.062C226.318 333.234 227.416 332.82 228.82 332.82ZM228.82 334.332C228.004 334.332 227.374 334.608 226.93 335.16C226.498 335.7 226.282 336.48 226.282 337.5C226.282 338.52 226.498 339.306 226.93 339.858C227.374 340.398 228.004 340.668 228.82 340.668C229.636 340.668 230.266 340.392 230.71 339.84C231.154 339.288 231.376 338.508 231.376 337.5C231.376 336.492 231.154 335.712 230.71 335.16C230.266 334.608 229.636 334.332 228.82 334.332ZM240.42 332.82C240.84 332.82 241.17 332.88 241.41 333L241.104 334.764C240.828 334.608 240.45 334.53 239.97 334.53C239.586 334.53 239.22 334.632 238.872 334.836C238.536 335.04 238.254 335.346 238.026 335.754C237.81 336.162 237.702 336.654 237.702 337.23V342H235.776V333H237.414L237.576 334.62C238.08 333.42 239.028 332.82 240.42 332.82ZM251.047 337.23C251.047 337.578 251.023 337.908 250.975 338.22H244.387C244.495 339.012 244.777 339.618 245.233 340.038C245.689 340.446 246.277 340.65 246.997 340.65C247.585 340.65 248.071 340.548 248.455 340.344C248.851 340.128 249.121 339.822 249.265 339.426L250.867 340.092C250.195 341.484 248.905 342.18 246.997 342.18C245.581 342.18 244.471 341.766 243.667 340.938C242.875 340.11 242.479 338.964 242.479 337.5C242.479 336.024 242.863 334.878 243.631 334.062C244.399 333.234 245.479 332.82 246.871 332.82C248.191 332.82 249.217 333.222 249.949 334.026C250.681 334.83 251.047 335.898 251.047 337.23ZM246.871 334.35C246.175 334.35 245.611 334.554 245.179 334.962C244.759 335.37 244.495 335.964 244.387 336.744H249.247C249.151 335.988 248.893 335.4 248.473 334.98C248.065 334.56 247.531 334.35 246.871 334.35ZM263.273 332.82C264.677 332.82 265.775 333.234 266.567 334.062C267.359 334.89 267.755 336.036 267.755 337.5C267.755 338.964 267.359 340.11 266.567 340.938C265.775 341.766 264.677 342.18 263.273 342.18C261.869 342.18 260.771 341.766 259.979 340.938C259.187 340.11 258.791 338.964 258.791 337.5C258.791 336.036 259.187 334.89 259.979 334.062C260.771 333.234 261.869 332.82 263.273 332.82ZM263.273 334.332C262.457 334.332 261.827 334.608 261.383 335.16C260.951 335.7 260.735 336.48 260.735 337.5C260.735 338.52 260.951 339.306 261.383 339.858C261.827 340.398 262.457 340.668 263.273 340.668C264.089 340.668 264.719 340.392 265.163 339.84C265.607 339.288 265.829 338.508 265.829 337.5C265.829 336.492 265.607 335.712 265.163 335.16C264.719 334.608 264.089 334.332 263.273 334.332ZM272.662 333H275.578V334.512H272.716V342H270.79V334.512H269.098V333H270.79V331.704C270.79 330.792 271.066 330.084 271.618 329.58C272.17 329.076 272.944 328.824 273.94 328.824C274.3 328.824 274.63 328.866 274.93 328.95C275.23 329.022 275.464 329.124 275.632 329.256L275.272 330.66C274.996 330.48 274.654 330.39 274.246 330.39C273.19 330.39 272.662 330.876 272.662 331.848V333ZM39.6636 363V372H37.9536L37.8816 370.542C37.2696 371.634 36.2016 372.18 34.6776 372.18C33.7056 372.18 32.9196 371.916 32.3196 371.388C31.7316 370.848 31.4376 370.026 31.4376 368.922V363H33.3636V368.418C33.3636 369.21 33.5196 369.774 33.8316 370.11C34.1436 370.434 34.6056 370.596 35.2176 370.596C35.9496 370.596 36.5496 370.368 37.0176 369.912C37.4976 369.444 37.7376 368.76 37.7376 367.86V363H39.6636ZM45.9122 372.18C45.0002 372.18 44.1902 372.024 43.4822 371.712C42.7862 371.4 42.2582 370.926 41.8982 370.29L43.1942 369.174C43.4222 369.69 43.7762 370.068 44.2562 370.308C44.7362 370.548 45.3122 370.668 45.9842 370.668C46.5962 370.668 47.0702 370.572 47.4062 370.38C47.7422 370.176 47.9102 369.912 47.9102 369.588C47.9102 369.3 47.7542 369.072 47.4422 368.904C47.1302 368.724 46.5902 368.556 45.8222 368.4C44.4902 368.148 43.5542 367.812 43.0142 367.392C42.4742 366.972 42.2042 366.378 42.2042 365.61C42.2042 365.118 42.3542 364.662 42.6542 364.242C42.9542 363.81 43.3862 363.468 43.9502 363.216C44.5262 362.952 45.2042 362.82 45.9842 362.82C46.9802 362.82 47.7782 362.988 48.3782 363.324C48.9782 363.648 49.4402 364.158 49.7642 364.854L48.3962 365.862C48.1802 365.334 47.8742 364.95 47.4782 364.71C47.0942 364.458 46.6022 364.332 46.0022 364.332C45.4622 364.332 45.0122 364.446 44.6522 364.674C44.3042 364.89 44.1302 365.142 44.1302 365.43C44.1302 365.754 44.2862 366.012 44.5982 366.204C44.9222 366.396 45.5042 366.57 46.3442 366.726C47.6162 366.954 48.5162 367.278 49.0442 367.698C49.5722 368.118 49.8362 368.706 49.8362 369.462C49.8362 370.266 49.4882 370.92 48.7922 371.424C48.0962 371.928 47.1362 372.18 45.9122 372.18ZM53.1355 369.57C53.6155 369.57 53.9875 369.75 54.2515 370.11C54.5275 370.458 54.6655 370.914 54.6655 371.478C54.6655 372.162 54.4855 372.786 54.1255 373.35C53.7655 373.926 53.2375 374.376 52.5415 374.7L51.6055 373.908C52.0975 373.74 52.5115 373.488 52.8475 373.152C53.1835 372.828 53.4055 372.462 53.5135 372.054L53.4235 372.018C53.3275 372.114 53.1595 372.162 52.9195 372.162C52.6195 372.162 52.3495 372.054 52.1095 371.838C51.8815 371.61 51.7675 371.298 51.7675 370.902C51.7675 370.518 51.8995 370.2 52.1635 369.948C52.4275 369.696 52.7515 369.57 53.1355 369.57ZM76.2326 363L73.2266 372H71.1206L68.8526 365.196L66.6926 372H64.5866L61.5806 363H63.6686L65.7026 370.2L67.9526 363H69.8606L72.0926 370.2L74.1446 363H76.2326ZM86.0146 367.23C86.0146 367.578 85.9906 367.908 85.9426 368.22H79.3546C79.4626 369.012 79.7446 369.618 80.2006 370.038C80.6566 370.446 81.2446 370.65 81.9646 370.65C82.5526 370.65 83.0386 370.548 83.4226 370.344C83.8186 370.128 84.0886 369.822 84.2326 369.426L85.8346 370.092C85.1626 371.484 83.8726 372.18 81.9646 372.18C80.5486 372.18 79.4386 371.766 78.6346 370.938C77.8426 370.11 77.4466 368.964 77.4466 367.5C77.4466 366.024 77.8306 364.878 78.5986 364.062C79.3666 363.234 80.4466 362.82 81.8386 362.82C83.1586 362.82 84.1846 363.222 84.9166 364.026C85.6486 364.83 86.0146 365.898 86.0146 367.23ZM81.8386 364.35C81.1426 364.35 80.5786 364.554 80.1466 364.962C79.7266 365.37 79.4626 365.964 79.3546 366.744H84.2146C84.1186 365.988 83.8606 365.4 83.4406 364.98C83.0326 364.56 82.4986 364.35 81.8386 364.35ZM89.4068 364.26H88.0028V359.652H89.8928L89.4068 364.26ZM94.3074 369.372C94.3074 369.816 94.3734 370.128 94.5054 370.308C94.6374 370.476 94.8834 370.56 95.2434 370.56C95.4714 370.56 95.6634 370.548 95.8194 370.524C95.9874 370.488 96.1914 370.422 96.4314 370.326L96.2154 371.874C95.8074 372.078 95.3094 372.18 94.7214 372.18C93.9174 372.18 93.3234 371.976 92.9394 371.568C92.5674 371.16 92.3814 370.518 92.3814 369.642V358.95H94.3074V369.372ZM99.9148 369.372C99.9148 369.816 99.9808 370.128 100.113 370.308C100.245 370.476 100.491 370.56 100.851 370.56C101.079 370.56 101.271 370.548 101.427 370.524C101.595 370.488 101.799 370.422 102.039 370.326L101.823 371.874C101.415 372.078 100.917 372.18 100.329 372.18C99.5248 372.18 98.9308 371.976 98.5468 371.568C98.1748 371.16 97.9888 370.518 97.9888 369.642V358.95H99.9148V369.372ZM114.214 370.596C115.126 370.596 115.834 370.8 116.338 371.208C116.842 371.616 117.094 372.18 117.094 372.9C117.094 373.512 116.89 374.04 116.482 374.484C116.086 374.928 115.534 375.27 114.826 375.51C114.13 375.75 113.344 375.87 112.468 375.87C111.04 375.87 109.966 375.66 109.246 375.24C108.538 374.82 108.184 374.262 108.184 373.566C108.184 373.158 108.322 372.798 108.598 372.486C108.886 372.186 109.282 371.97 109.786 371.838C109.402 371.658 109.096 371.43 108.868 371.154C108.64 370.866 108.526 370.524 108.526 370.128C108.526 369.252 108.994 368.652 109.93 368.328C109.474 368.064 109.126 367.722 108.886 367.302C108.658 366.882 108.544 366.402 108.544 365.862C108.544 365.262 108.706 364.734 109.03 364.278C109.354 363.81 109.81 363.45 110.398 363.198C110.998 362.946 111.682 362.82 112.45 362.82C113.11 362.82 113.716 362.916 114.268 363.108C114.436 362.448 114.736 361.95 115.168 361.614C115.612 361.266 116.194 361.098 116.914 361.11L117.238 362.604C116.662 362.592 116.194 362.664 115.834 362.82C115.486 362.976 115.246 363.21 115.114 363.522C115.51 363.798 115.816 364.134 116.032 364.53C116.248 364.926 116.356 365.37 116.356 365.862C116.356 366.786 115.996 367.524 115.276 368.076C114.568 368.628 113.626 368.904 112.45 368.904C111.898 368.904 111.4 368.85 110.956 368.742C110.656 368.814 110.434 368.934 110.29 369.102C110.158 369.258 110.092 369.468 110.092 369.732C110.092 370.008 110.188 370.224 110.38 370.38C110.584 370.524 110.86 370.596 111.208 370.596H114.214ZM112.45 364.17C111.898 364.17 111.436 364.332 111.064 364.656C110.692 364.968 110.506 365.37 110.506 365.862C110.506 366.366 110.692 366.78 111.064 367.104C111.436 367.416 111.898 367.572 112.45 367.572C113.014 367.572 113.476 367.416 113.836 367.104C114.208 366.78 114.394 366.366 114.394 365.862C114.394 365.358 114.208 364.95 113.836 364.638C113.476 364.326 113.014 364.17 112.45 364.17ZM112.648 374.43C113.524 374.43 114.208 374.304 114.7 374.052C115.192 373.8 115.438 373.488 115.438 373.116C115.438 372.816 115.318 372.588 115.078 372.432C114.838 372.276 114.436 372.198 113.872 372.198H111.442C110.902 372.198 110.494 372.282 110.218 372.45C109.954 372.618 109.822 372.852 109.822 373.152C109.822 373.56 110.056 373.872 110.524 374.088C111.004 374.316 111.712 374.43 112.648 374.43ZM122.903 362.82C124.307 362.82 125.405 363.234 126.197 364.062C126.989 364.89 127.385 366.036 127.385 367.5C127.385 368.964 126.989 370.11 126.197 370.938C125.405 371.766 124.307 372.18 122.903 372.18C121.499 372.18 120.401 371.766 119.609 370.938C118.817 370.11 118.421 368.964 118.421 367.5C118.421 366.036 118.817 364.89 119.609 364.062C120.401 363.234 121.499 362.82 122.903 362.82ZM122.903 364.332C122.087 364.332 121.457 364.608 121.013 365.16C120.581 365.7 120.365 366.48 120.365 367.5C120.365 368.52 120.581 369.306 121.013 369.858C121.457 370.398 122.087 370.668 122.903 370.668C123.719 370.668 124.349 370.392 124.793 369.84C125.237 369.288 125.459 368.508 125.459 367.5C125.459 366.492 125.237 365.712 124.793 365.16C124.349 364.608 123.719 364.332 122.903 364.332ZM141.264 371.406C140.976 371.646 140.622 371.838 140.202 371.982C139.794 372.114 139.35 372.18 138.87 372.18C138.042 372.18 137.376 371.976 136.872 371.568C136.38 371.148 136.128 370.5 136.116 369.624V364.512H134.406V363H136.116V360.894L138.042 360.354V363H141.192V364.512H138.042V369.3C138.042 369.732 138.156 370.056 138.384 370.272C138.624 370.476 138.948 370.578 139.356 370.578C139.908 370.578 140.394 370.386 140.814 370.002L141.264 371.406ZM147.02 362.82C148.424 362.82 149.522 363.234 150.314 364.062C151.106 364.89 151.502 366.036 151.502 367.5C151.502 368.964 151.106 370.11 150.314 370.938C149.522 371.766 148.424 372.18 147.02 372.18C145.616 372.18 144.518 371.766 143.726 370.938C142.934 370.11 142.538 368.964 142.538 367.5C142.538 366.036 142.934 364.89 143.726 364.062C144.518 363.234 145.616 362.82 147.02 362.82ZM147.02 364.332C146.204 364.332 145.574 364.608 145.13 365.16C144.698 365.7 144.482 366.48 144.482 367.5C144.482 368.52 144.698 369.306 145.13 369.858C145.574 370.398 146.204 370.668 147.02 370.668C147.836 370.668 148.466 370.392 148.91 369.84C149.354 369.288 149.576 368.508 149.576 367.5C149.576 366.492 149.354 365.712 148.91 365.16C148.466 364.608 147.836 364.332 147.02 364.332ZM165.381 371.406C165.093 371.646 164.739 371.838 164.319 371.982C163.911 372.114 163.467 372.18 162.987 372.18C162.159 372.18 161.493 371.976 160.989 371.568C160.497 371.148 160.245 370.5 160.233 369.624V364.512H158.523V363H160.233V360.894L162.159 360.354V363H165.309V364.512H162.159V369.3C162.159 369.732 162.273 370.056 162.501 370.272C162.741 370.476 163.065 370.578 163.473 370.578C164.025 370.578 164.511 370.386 164.931 370.002L165.381 371.406ZM172.09 362.82C173.086 362.82 173.896 363.108 174.52 363.684C175.156 364.26 175.474 365.088 175.474 366.168V372H173.548V366.78C173.548 365.196 172.906 364.404 171.622 364.404C170.95 364.404 170.374 364.638 169.894 365.106C169.414 365.574 169.174 366.288 169.174 367.248V372H167.248V358.95H169.174V364.44C169.474 363.888 169.87 363.48 170.362 363.216C170.866 362.952 171.442 362.82 172.09 362.82ZM186.438 367.23C186.438 367.578 186.414 367.908 186.366 368.22H179.778C179.886 369.012 180.168 369.618 180.624 370.038C181.08 370.446 181.668 370.65 182.388 370.65C182.976 370.65 183.462 370.548 183.846 370.344C184.242 370.128 184.512 369.822 184.656 369.426L186.258 370.092C185.586 371.484 184.296 372.18 182.388 372.18C180.972 372.18 179.862 371.766 179.058 370.938C178.266 370.11 177.87 368.964 177.87 367.5C177.87 366.024 178.254 364.878 179.022 364.062C179.79 363.234 180.87 362.82 182.262 362.82C183.582 362.82 184.608 363.222 185.34 364.026C186.072 364.83 186.438 365.898 186.438 367.23ZM182.262 364.35C181.566 364.35 181.002 364.554 180.57 364.962C180.15 365.37 179.886 365.964 179.778 366.744H184.638C184.542 365.988 184.284 365.4 183.864 364.98C183.456 364.56 182.922 364.35 182.262 364.35ZM205.559 362.82C206.159 362.82 206.711 362.946 207.215 363.198C207.719 363.438 208.121 363.81 208.421 364.314C208.721 364.818 208.871 365.436 208.871 366.168V372H206.945V366.474C206.945 365.766 206.777 365.244 206.441 364.908C206.105 364.572 205.655 364.404 205.091 364.404C204.431 364.404 203.873 364.644 203.417 365.124C202.973 365.604 202.751 366.264 202.751 367.104V372H200.825V366.474C200.825 365.766 200.657 365.244 200.321 364.908C199.985 364.572 199.535 364.404 198.971 364.404C198.587 364.404 198.215 364.506 197.855 364.71C197.495 364.902 197.201 365.208 196.973 365.628C196.745 366.048 196.631 366.576 196.631 367.212V372H194.705V363H196.415L196.505 364.494C196.805 363.942 197.213 363.528 197.729 363.252C198.245 362.964 198.809 362.82 199.421 362.82C200.093 362.82 200.699 362.976 201.239 363.288C201.791 363.588 202.199 364.032 202.463 364.62C202.739 364.032 203.159 363.588 203.723 363.288C204.299 362.976 204.911 362.82 205.559 362.82ZM215.751 362.82C217.155 362.82 218.253 363.234 219.045 364.062C219.837 364.89 220.233 366.036 220.233 367.5C220.233 368.964 219.837 370.11 219.045 370.938C218.253 371.766 217.155 372.18 215.751 372.18C214.347 372.18 213.249 371.766 212.457 370.938C211.665 370.11 211.269 368.964 211.269 367.5C211.269 366.036 211.665 364.89 212.457 364.062C213.249 363.234 214.347 362.82 215.751 362.82ZM215.751 364.332C214.935 364.332 214.305 364.608 213.861 365.16C213.429 365.7 213.213 366.48 213.213 367.5C213.213 368.52 213.429 369.306 213.861 369.858C214.305 370.398 214.935 370.668 215.751 370.668C216.567 370.668 217.197 370.392 217.641 369.84C218.085 369.288 218.307 368.508 218.307 367.5C218.307 366.492 218.085 365.712 217.641 365.16C217.197 364.608 216.567 364.332 215.751 364.332ZM230.592 363L227.01 372H224.904L221.304 363H223.428L225.966 370.434L228.576 363H230.592ZM233.206 361.488C232.798 361.488 232.48 361.386 232.252 361.182C232.024 360.966 231.91 360.666 231.91 360.282C231.91 359.898 232.024 359.604 232.252 359.4C232.48 359.196 232.798 359.094 233.206 359.094C233.614 359.094 233.926 359.196 234.142 359.4C234.37 359.604 234.484 359.898 234.484 360.282C234.484 360.666 234.37 360.966 234.142 361.182C233.926 361.386 233.614 361.488 233.206 361.488ZM234.16 372H232.234V363H234.16V372ZM245.22 367.23C245.22 367.578 245.196 367.908 245.148 368.22H238.56C238.668 369.012 238.95 369.618 239.406 370.038C239.862 370.446 240.45 370.65 241.17 370.65C241.758 370.65 242.244 370.548 242.628 370.344C243.024 370.128 243.294 369.822 243.438 369.426L245.04 370.092C244.368 371.484 243.078 372.18 241.17 372.18C239.754 372.18 238.644 371.766 237.84 370.938C237.048 370.11 236.652 368.964 236.652 367.5C236.652 366.024 237.036 364.878 237.804 364.062C238.572 363.234 239.652 362.82 241.044 362.82C242.364 362.82 243.39 363.222 244.122 364.026C244.854 364.83 245.22 365.898 245.22 367.23ZM241.044 364.35C240.348 364.35 239.784 364.554 239.352 364.962C238.932 365.37 238.668 365.964 238.56 366.744H243.42C243.324 365.988 243.066 365.4 242.646 364.98C242.238 364.56 241.704 364.35 241.044 364.35ZM250.891 372.18C249.979 372.18 249.169 372.024 248.461 371.712C247.765 371.4 247.237 370.926 246.877 370.29L248.173 369.174C248.401 369.69 248.755 370.068 249.235 370.308C249.715 370.548 250.291 370.668 250.963 370.668C251.575 370.668 252.049 370.572 252.385 370.38C252.721 370.176 252.889 369.912 252.889 369.588C252.889 369.3 252.733 369.072 252.421 368.904C252.109 368.724 251.569 368.556 250.801 368.4C249.469 368.148 248.533 367.812 247.993 367.392C247.453 366.972 247.183 366.378 247.183 365.61C247.183 365.118 247.333 364.662 247.633 364.242C247.933 363.81 248.365 363.468 248.929 363.216C249.505 362.952 250.183 362.82 250.963 362.82C251.959 362.82 252.757 362.988 253.357 363.324C253.957 363.648 254.419 364.158 254.743 364.854L253.375 365.862C253.159 365.334 252.853 364.95 252.457 364.71C252.073 364.458 251.581 364.332 250.981 364.332C250.441 364.332 249.991 364.446 249.631 364.674C249.283 364.89 249.109 365.142 249.109 365.43C249.109 365.754 249.265 366.012 249.577 366.204C249.901 366.396 250.483 366.57 251.323 366.726C252.595 366.954 253.495 367.278 254.023 367.698C254.551 368.118 254.815 368.706 254.815 369.462C254.815 370.266 254.467 370.92 253.771 371.424C253.075 371.928 252.115 372.18 250.891 372.18ZM258.132 369.57C258.54 369.57 258.864 369.69 259.104 369.93C259.356 370.158 259.482 370.47 259.482 370.866C259.482 371.262 259.356 371.58 259.104 371.82C258.864 372.06 258.54 372.18 258.132 372.18C257.724 372.18 257.394 372.06 257.142 371.82C256.89 371.58 256.764 371.262 256.764 370.866C256.764 370.47 256.884 370.158 257.124 369.93C257.376 369.69 257.712 369.57 258.132 369.57ZM264.472 364.26H263.068V359.652H264.958L264.472 364.26ZM261.268 364.26H259.864V359.652H261.754L261.268 364.26Z" fill="#220033"/>
<rect x="1" y="1" width="294" height="393" rx="9" stroke="url(#paint0_linear)" stroke-width="2"/>
<path d="M114.549 42.24C116.304 42.24 117.797 42.5013 119.029 43.024C120.28 43.5467 121.437 44.396 122.501 45.572L119.785 48.708C119.169 47.7747 118.441 47.0933 117.601 46.664C116.78 46.216 115.791 45.992 114.633 45.992C113.663 45.992 112.916 46.16 112.393 46.496C111.871 46.832 111.609 47.28 111.609 47.84C111.609 48.3067 111.88 48.6893 112.421 48.988C112.981 49.268 113.924 49.5293 115.249 49.772C117.807 50.2387 119.627 50.92 120.709 51.816C121.811 52.712 122.361 53.972 122.361 55.596C122.361 56.772 122.025 57.7893 121.353 58.648C120.681 59.5067 119.748 60.16 118.553 60.608C117.377 61.056 116.043 61.28 114.549 61.28C112.459 61.28 110.76 61.028 109.453 60.524C108.147 60.0013 107.017 59.208 106.065 58.144L108.529 54.784C109.257 55.792 110.079 56.5013 110.993 56.912C111.908 57.3227 113.009 57.528 114.297 57.528C115.324 57.528 116.089 57.388 116.593 57.108C117.116 56.8093 117.377 56.3893 117.377 55.848C117.377 55.4187 117.097 55.0733 116.537 54.812C115.996 54.532 115.081 54.2707 113.793 54.028C112.207 53.7107 110.891 53.3373 109.845 52.908C108.819 52.46 108.016 51.8627 107.437 51.116C106.877 50.3693 106.597 49.4173 106.597 48.26C106.597 47.1027 106.905 46.0667 107.521 45.152C108.156 44.2373 109.071 43.528 110.265 43.024C111.479 42.5013 112.907 42.24 114.549 42.24ZM131.729 46.72C134.062 46.72 135.873 47.364 137.161 48.652C138.467 49.9213 139.121 51.704 139.121 54C139.121 56.296 138.467 58.088 137.161 59.376C135.873 60.6453 134.062 61.28 131.729 61.28C129.395 61.28 127.575 60.6453 126.269 59.376C124.981 58.088 124.337 56.296 124.337 54C124.337 51.704 124.981 49.9213 126.269 48.652C127.575 47.364 129.395 46.72 131.729 46.72ZM131.729 50.108C130.833 50.108 130.17 50.416 129.741 51.032C129.311 51.648 129.097 52.6373 129.097 54C129.097 55.3627 129.311 56.352 129.741 56.968C130.17 57.584 130.833 57.892 131.729 57.892C132.625 57.892 133.287 57.584 133.717 56.968C134.146 56.352 134.361 55.3627 134.361 54C134.361 52.6373 134.146 51.648 133.717 51.032C133.287 50.416 132.625 50.108 131.729 50.108ZM148.545 46.72C150.654 46.72 152.241 47.1213 153.305 47.924C154.369 48.7267 155.031 49.772 155.293 51.06L150.869 52.516C150.682 50.9107 149.963 50.108 148.713 50.108C146.865 50.108 145.941 51.424 145.941 54.056C145.941 56.6133 146.865 57.892 148.713 57.892C150.038 57.892 150.813 57.136 151.037 55.624L155.321 56.996C155.115 58.2653 154.434 59.3013 153.277 60.104C152.138 60.888 150.626 61.28 148.741 61.28C146.314 61.28 144.447 60.6453 143.141 59.376C141.834 58.1067 141.181 56.3147 141.181 54C141.181 51.704 141.825 49.9213 143.113 48.652C144.419 47.364 146.23 46.72 148.545 46.72ZM160.229 45.376C159.258 45.376 158.549 45.1987 158.101 44.844C157.671 44.4707 157.457 43.892 157.457 43.108C157.457 42.3053 157.671 41.7267 158.101 41.372C158.549 40.9987 159.258 40.812 160.229 40.812C161.199 40.812 161.899 40.9987 162.329 41.372C162.777 41.7267 163.001 42.3053 163.001 43.108C163.001 43.892 162.777 44.4707 162.329 44.844C161.899 45.1987 161.199 45.376 160.229 45.376ZM162.609 61H157.849V47H162.609V61ZM179.521 58.284C179.876 58.284 180.165 58.2467 180.389 58.172L180.025 60.832C179.484 61.1307 178.849 61.28 178.121 61.28C176.105 61.28 174.901 60.5613 174.509 59.124C173.669 60.5613 172.008 61.28 169.525 61.28C168.125 61.28 167.052 60.9813 166.305 60.384C165.558 59.7867 165.185 58.9187 165.185 57.78C165.185 56.5853 165.605 55.624 166.445 54.896C167.304 54.1493 168.704 53.58 170.645 53.188L173.809 52.572V52.068C173.809 51.4333 173.632 50.9293 173.277 50.556C172.922 50.1827 172.437 49.996 171.821 49.996C171.112 49.996 170.533 50.164 170.085 50.5C169.637 50.836 169.348 51.3867 169.217 52.152L165.353 51.032C165.596 49.6693 166.268 48.6147 167.369 47.868C168.47 47.1027 169.954 46.72 171.821 46.72C174.005 46.72 175.666 47.168 176.805 48.064C177.944 48.96 178.513 50.304 178.513 52.096V57.192C178.513 57.92 178.849 58.284 179.521 58.284ZM171.261 58.2C171.914 58.2 172.502 58.0227 173.025 57.668C173.548 57.2947 173.809 56.8093 173.809 56.212V55.008L171.541 55.54C170.944 55.6893 170.514 55.876 170.253 56.1C170.01 56.3053 169.889 56.604 169.889 56.996C169.889 57.388 170.01 57.6867 170.253 57.892C170.496 58.0973 170.832 58.2 171.261 58.2ZM186.971 56.156C186.971 56.7907 187.064 57.2387 187.251 57.5C187.437 57.7613 187.773 57.892 188.259 57.892C188.707 57.892 189.183 57.808 189.687 57.64L189.379 60.58C189.043 60.7853 188.604 60.9533 188.063 61.084C187.521 61.2147 186.989 61.28 186.467 61.28C184.973 61.28 183.891 60.9347 183.219 60.244C182.547 59.5347 182.211 58.4053 182.211 56.856V41.064H186.971V56.156ZM69.668 85.244H63.648V100H58.832V85.244H52.784V81.52H69.668V85.244ZM83.1506 92.804C83.1506 93.4387 83.104 93.9613 83.0106 94.372H73.4626C73.612 95.2493 73.9293 95.8933 74.4146 96.304C74.9186 96.7147 75.5813 96.92 76.4026 96.92C77.0933 96.92 77.6533 96.7893 78.0826 96.528C78.5306 96.2667 78.8293 95.884 78.9786 95.38L82.8426 96.612C82.4506 97.8067 81.6853 98.7213 80.5466 99.356C79.4266 99.972 78.0453 100.28 76.4026 100.28C73.9573 100.28 72.0813 99.6453 70.7746 98.376C69.4866 97.1067 68.8426 95.3147 68.8426 93C68.8426 90.6853 69.4773 88.8933 70.7466 87.624C72.016 86.3547 73.8173 85.72 76.1506 85.72C78.4093 85.72 80.136 86.3453 81.3306 87.596C82.544 88.828 83.1506 90.564 83.1506 92.804ZM76.1226 89.052C74.6106 89.052 73.7146 89.9667 73.4346 91.796H78.6986C78.4746 89.9667 77.616 89.052 76.1226 89.052ZM92.5035 85.72C94.6128 85.72 96.1995 86.1213 97.2635 86.924C98.3275 87.7267 98.9902 88.772 99.2515 90.06L94.8275 91.516C94.6408 89.9107 93.9222 89.108 92.6715 89.108C90.8235 89.108 89.8995 90.424 89.8995 93.056C89.8995 95.6133 90.8235 96.892 92.6715 96.892C93.9968 96.892 94.7715 96.136 94.9955 94.624L99.2795 95.996C99.0742 97.2653 98.3928 98.3013 97.2355 99.104C96.0968 99.888 94.5848 100.28 92.6995 100.28C90.2728 100.28 88.4062 99.6453 87.0995 98.376C85.7928 97.1067 85.1395 95.3147 85.1395 93C85.1395 90.704 85.7835 88.9213 87.0715 87.652C88.3782 86.364 90.1888 85.72 92.5035 85.72ZM110.992 85.72C112.466 85.72 113.642 86.1493 114.52 87.008C115.397 87.8667 115.836 89.0893 115.836 90.676V100H111.076V91.992C111.076 90.2187 110.413 89.332 109.088 89.332C108.341 89.332 107.734 89.6027 107.268 90.144C106.801 90.6853 106.568 91.516 106.568 92.636V100H101.808V80.064H106.568V88.548C106.978 87.6147 107.557 86.9147 108.304 86.448C109.069 85.9627 109.965 85.72 110.992 85.72ZM128.355 85.72C129.83 85.72 131.006 86.1493 131.883 87.008C132.76 87.8667 133.199 89.0893 133.199 90.676V100H128.439V91.992C128.439 91.04 128.262 90.368 127.907 89.976C127.571 89.5653 127.086 89.36 126.451 89.36C125.704 89.36 125.098 89.6307 124.631 90.172C124.164 90.6947 123.931 91.5067 123.931 92.608V100H119.171V86H123.427L123.567 88.688C124.015 87.6987 124.65 86.9613 125.471 86.476C126.292 85.972 127.254 85.72 128.355 85.72ZM143.254 85.72C145.588 85.72 147.398 86.364 148.686 87.652C149.993 88.9213 150.646 90.704 150.646 93C150.646 95.296 149.993 97.088 148.686 98.376C147.398 99.6453 145.588 100.28 143.254 100.28C140.921 100.28 139.101 99.6453 137.794 98.376C136.506 97.088 135.862 95.296 135.862 93C135.862 90.704 136.506 88.9213 137.794 87.652C139.101 86.364 140.921 85.72 143.254 85.72ZM143.254 89.108C142.358 89.108 141.696 89.416 141.266 90.032C140.837 90.648 140.622 91.6373 140.622 93C140.622 94.3627 140.837 95.352 141.266 95.968C141.696 96.584 142.358 96.892 143.254 96.892C144.15 96.892 144.813 96.584 145.242 95.968C145.672 95.352 145.886 94.3627 145.886 93C145.886 91.6373 145.672 90.648 145.242 90.032C144.813 89.416 144.15 89.108 143.254 89.108ZM158.082 95.156C158.082 95.7907 158.175 96.2387 158.362 96.5C158.549 96.7613 158.885 96.892 159.37 96.892C159.818 96.892 160.294 96.808 160.798 96.64L160.49 99.58C160.154 99.7853 159.715 99.9533 159.174 100.084C158.633 100.215 158.101 100.28 157.578 100.28C156.085 100.28 155.002 99.9347 154.33 99.244C153.658 98.5347 153.322 97.4053 153.322 95.856V80.064H158.082V95.156ZM169.258 85.72C171.591 85.72 173.402 86.364 174.69 87.652C175.997 88.9213 176.65 90.704 176.65 93C176.65 95.296 175.997 97.088 174.69 98.376C173.402 99.6453 171.591 100.28 169.258 100.28C166.925 100.28 165.105 99.6453 163.798 98.376C162.51 97.088 161.866 95.296 161.866 93C161.866 90.704 162.51 88.9213 163.798 87.652C165.105 86.364 166.925 85.72 169.258 85.72ZM169.258 89.108C168.362 89.108 167.699 89.416 167.27 90.032C166.841 90.648 166.626 91.6373 166.626 93C166.626 94.3627 166.841 95.352 167.27 95.968C167.699 96.584 168.362 96.892 169.258 96.892C170.154 96.892 170.817 96.584 171.246 95.968C171.675 95.352 171.89 94.3627 171.89 93C171.89 91.6373 171.675 90.648 171.246 90.032C170.817 89.416 170.154 89.108 169.258 89.108ZM188.066 96.892C189.69 96.892 190.941 97.2467 191.818 97.956C192.714 98.6653 193.162 99.7107 193.162 101.092C193.162 102.679 192.453 103.892 191.034 104.732C189.634 105.591 187.721 106.02 185.294 106.02C182.849 106.02 181.038 105.731 179.862 105.152C178.705 104.573 178.126 103.761 178.126 102.716C178.126 102.1 178.341 101.559 178.77 101.092C179.2 100.625 179.853 100.289 180.73 100.084C179.293 99.468 178.574 98.4973 178.574 97.172C178.574 96.5187 178.78 95.94 179.19 95.436C179.601 94.932 180.161 94.5587 180.87 94.316C179.34 93.4947 178.574 92.216 178.574 90.48C178.574 88.968 179.172 87.8013 180.366 86.98C181.561 86.14 183.241 85.72 185.406 85.72C186.414 85.72 187.348 85.8227 188.206 86.028C188.393 84.908 188.813 83.9933 189.466 83.284C190.12 82.5747 191.025 82.22 192.182 82.22L192.63 82.248L193.162 85.412C192.789 85.3747 192.528 85.356 192.378 85.356C191.744 85.356 191.212 85.468 190.782 85.692C190.372 85.916 190.073 86.224 189.886 86.616C191.454 87.4373 192.238 88.7253 192.238 90.48C192.238 91.992 191.641 93.1587 190.446 93.98C189.252 94.8013 187.572 95.212 185.406 95.212C184.398 95.212 183.502 95.128 182.718 94.96C182.14 95.1093 181.85 95.436 181.85 95.94C181.85 96.5747 182.336 96.892 183.306 96.892H188.066ZM185.406 88.436C184.79 88.436 184.286 88.6227 183.894 88.996C183.521 89.3693 183.334 89.864 183.334 90.48C183.334 91.096 183.521 91.5907 183.894 91.964C184.286 92.3187 184.79 92.496 185.406 92.496C186.022 92.496 186.517 92.3187 186.89 91.964C187.282 91.5907 187.478 91.096 187.478 90.48C187.478 89.864 187.282 89.3693 186.89 88.996C186.517 88.6227 186.022 88.436 185.406 88.436ZM185.63 102.94C186.862 102.94 187.796 102.809 188.43 102.548C189.084 102.305 189.41 101.979 189.41 101.568C189.41 101.269 189.28 101.045 189.018 100.896C188.757 100.747 188.318 100.672 187.702 100.672H183.866C183.101 100.672 182.55 100.747 182.214 100.896C181.897 101.064 181.738 101.316 181.738 101.652C181.738 102.511 183.036 102.94 185.63 102.94ZM197.43 84.376C196.459 84.376 195.75 84.1987 195.302 83.844C194.872 83.4707 194.658 82.892 194.658 82.108C194.658 81.3053 194.872 80.7267 195.302 80.372C195.75 79.9987 196.459 79.812 197.43 79.812C198.4 79.812 199.1 79.9987 199.53 80.372C199.978 80.7267 200.202 81.3053 200.202 82.108C200.202 82.892 199.978 83.4707 199.53 83.844C199.1 84.1987 198.4 84.376 197.43 84.376ZM199.81 100H195.05V86H199.81V100ZM209.89 85.72C212 85.72 213.586 86.1213 214.65 86.924C215.714 87.7267 216.377 88.772 216.638 90.06L212.214 91.516C212.028 89.9107 211.309 89.108 210.058 89.108C208.21 89.108 207.286 90.424 207.286 93.056C207.286 95.6133 208.21 96.892 210.058 96.892C211.384 96.892 212.158 96.136 212.382 94.624L216.666 95.996C216.461 97.2653 215.78 98.3013 214.622 99.104C213.484 99.888 211.972 100.28 210.086 100.28C207.66 100.28 205.793 99.6453 204.486 98.376C203.18 97.1067 202.526 95.3147 202.526 93C202.526 90.704 203.17 88.9213 204.458 87.652C205.765 86.364 207.576 85.72 209.89 85.72ZM232.718 97.284C233.073 97.284 233.362 97.2467 233.586 97.172L233.222 99.832C232.681 100.131 232.046 100.28 231.318 100.28C229.302 100.28 228.098 99.5613 227.706 98.124C226.866 99.5613 225.205 100.28 222.722 100.28C221.322 100.28 220.249 99.9813 219.502 99.384C218.756 98.7867 218.382 97.9187 218.382 96.78C218.382 95.5853 218.802 94.624 219.642 93.896C220.501 93.1493 221.901 92.58 223.842 92.188L227.006 91.572V91.068C227.006 90.4333 226.829 89.9293 226.474 89.556C226.12 89.1827 225.634 88.996 225.018 88.996C224.309 88.996 223.73 89.164 223.282 89.5C222.834 89.836 222.545 90.3867 222.414 91.152L218.55 90.032C218.793 88.6693 219.465 87.6147 220.566 86.868C221.668 86.1027 223.152 85.72 225.018 85.72C227.202 85.72 228.864 86.168 230.002 87.064C231.141 87.96 231.71 89.304 231.71 91.096V96.192C231.71 96.92 232.046 97.284 232.718 97.284ZM224.458 97.2C225.112 97.2 225.7 97.0227 226.222 96.668C226.745 96.2947 227.006 95.8093 227.006 95.212V94.008L224.738 94.54C224.141 94.6893 223.712 94.876 223.45 95.1C223.208 95.3053 223.086 95.604 223.086 95.996C223.086 96.388 223.208 96.6867 223.45 96.892C223.693 97.0973 224.029 97.2 224.458 97.2ZM240.168 95.156C240.168 95.7907 240.261 96.2387 240.448 96.5C240.635 96.7613 240.971 96.892 241.456 96.892C241.904 96.892 242.38 96.808 242.884 96.64L242.576 99.58C242.24 99.7853 241.801 99.9533 241.26 100.084C240.719 100.215 240.187 100.28 239.664 100.28C238.171 100.28 237.088 99.9347 236.416 99.244C235.744 98.5347 235.408 97.4053 235.408 95.856V80.064H240.168V95.156Z" fill="#32004A"/>
<path d="M219.8 193.825H184.9V188.925H194.3C195.5 188.925 196.5 187.925 196.5 186.725C196.5 185.525 195.5 184.525 194.3 184.525H184.9V179.625H191.4C193.8 179.625 196.1 178.725 197.8 176.925L212.1 162.625C213 163.125 214.1 163.325 215.1 163.325C216.9 163.325 218.6 162.625 219.9 161.325C221.2 160.025 221.9 158.325 221.9 156.525C221.9 154.725 221.2 153.025 219.9 151.725C218.6 150.425 216.9 149.725 215.1 149.725C213.3 149.725 211.6 150.425 210.3 151.725C209 153.025 208.3 154.725 208.3 156.525C208.3 157.625 208.5 158.625 209 159.525L194.7 173.825C193.8 174.725 192.6 175.225 191.3 175.225H184.8V170.425C184.8 164.125 179.7 159.025 173.4 159.025H168.6V139.925C171.3 139.025 173.2 136.425 173.2 133.525C173.2 129.725 170.1 126.725 166.4 126.725C162.7 126.725 159.6 129.825 159.6 133.525C159.6 136.525 161.5 139.025 164.2 139.925V159.125H159.3V149.725C159.3 148.525 158.3 147.525 157.1 147.525C155.9 147.525 154.9 148.525 154.9 149.725V159.125H150V124.225C150.2 123.025 149.2 122.025 148 122.025C146.8 122.025 145.8 123.025 145.8 124.225V159.125H140.9V149.725C140.9 148.525 139.9 147.525 138.7 147.525C137.5 147.525 136.5 148.525 136.5 149.725V159.125H131.6V152.625C131.6 150.225 130.7 147.925 128.9 146.225L114.7 131.825C116 129.325 115.5 126.125 113.4 124.025C110.7 121.325 106.4 121.325 103.8 124.025C101.1 126.725 101.1 131.025 103.8 133.625C105.1 134.925 106.9 135.625 108.6 135.625C109.6 135.625 110.7 135.425 111.6 134.925L125.9 149.225C126.8 150.125 127.3 151.325 127.3 152.625V159.125H122.5C121.5 159.125 120.6 159.225 119.6 159.525C118.4 159.825 117.7 161.025 118 162.125C118.3 163.225 119.5 164.025 120.6 163.725C121.2 163.625 121.8 163.525 122.4 163.525H173.4C177.3 163.525 180.5 166.725 180.5 170.625V221.625C180.5 222.225 180.4 222.825 180.3 223.425C180 224.625 180.7 225.725 181.9 226.025C182.1 226.025 182.3 226.125 182.4 226.125C183.4 226.125 184.2 225.425 184.5 224.525C184.7 223.625 184.9 222.625 184.9 221.625V216.825H204.1C205 219.525 207.6 221.425 210.5 221.425C214.3 221.425 217.3 218.325 217.3 214.625C217.3 210.925 214.2 207.825 210.5 207.825C207.5 207.825 205 209.725 204.1 212.425H184.9V207.525H194.3C195.5 207.525 196.5 206.525 196.5 205.325C196.5 204.125 195.5 203.125 194.3 203.125H184.9V198.225H219.8C221 198.225 222 197.225 222 196.025C222 194.825 221 193.825 219.8 193.825ZM213.5 154.925C214 154.425 214.6 154.225 215.2 154.225C215.8 154.225 216.5 154.525 216.9 154.925C217.4 155.425 217.6 156.025 217.6 156.625C217.6 157.225 217.3 157.925 216.9 158.325C216.4 158.825 215.8 159.025 215.2 159.025C214.6 159.025 213.9 158.725 213.5 158.325C213 157.825 212.8 157.225 212.8 156.625C212.8 156.025 213 155.325 213.5 154.925ZM110.4 130.525C109.4 131.525 107.9 131.525 106.9 130.525C105.9 129.525 105.9 128.025 106.9 127.025C107.4 126.525 108 126.325 108.6 126.325C109.2 126.325 109.9 126.525 110.3 127.025C111.3 128.025 111.3 129.625 110.4 130.525ZM166.5 135.925C165.1 135.925 164 134.825 164 133.425C164 132.025 165.2 131.025 166.5 131.025C167.9 131.025 169 132.125 169 133.525C169 134.925 167.9 135.925 166.5 135.925ZM210.6 212.125C212 212.125 213.1 213.225 213.1 214.625C213.1 216.025 212 217.125 210.6 217.125C209.2 217.125 208.1 216.025 208.1 214.625C208.1 213.225 209.2 212.125 210.6 212.125Z" fill="url(#paint1_linear)"/>
<path d="M192.2 258.425C190.1 256.325 186.9 255.925 184.4 257.125L170.1 242.825C169.2 241.925 168.7 240.725 168.7 239.425V232.925H173.5C174.5 232.925 175.4 232.825 176.4 232.525C177.6 232.225 178.3 231.025 178 229.925C177.7 228.725 176.5 228.025 175.4 228.325C174.8 228.425 174.2 228.525 173.6 228.525H122.6C118.7 228.525 115.5 225.325 115.5 221.425V170.425C115.5 169.825 115.6 169.225 115.7 168.625C116 167.425 115.3 166.325 114.1 166.025C112.9 165.725 111.8 166.425 111.5 167.625C111.3 168.525 111.1 169.525 111.1 170.525V175.325H91.9C91 172.625 88.4 170.725 85.5 170.725C81.7 170.725 78.7 173.825 78.7 177.525C78.7 181.325 81.8 184.325 85.5 184.325C88.5 184.325 91 182.425 91.9 179.725H111.1V184.625H101.7C100.5 184.625 99.5 185.625 99.5 186.825C99.5 188.025 100.5 189.025 101.7 189.025H111.1V193.925H76.2C75 193.825 74 194.825 74 196.025C74 197.225 75 198.225 76.2 198.225H111.1V203.125H101.7C100.5 203.125 99.5 204.125 99.5 205.325C99.5 206.525 100.5 207.525 101.7 207.525H111.1V212.425H104.6C102.2 212.425 99.9 213.325 98.2 215.125L83.8 229.325C82.9 228.825 81.8 228.625 80.8 228.625C79 228.625 77.3 229.325 76 230.625C74.7 231.925 74 233.625 74 235.425C74 237.225 74.7 238.925 76 240.225C77.3 241.525 79 242.225 80.8 242.225C82.6 242.225 84.3 241.525 85.6 240.225C86.9 238.925 87.6 237.225 87.6 235.425C87.6 234.325 87.4 233.325 86.9 232.425L101.2 218.125C102.1 217.225 103.3 216.725 104.6 216.725H111.1V221.525C111.1 227.825 116.2 232.925 122.5 232.925H127.3V252.125C124.6 253.025 122.7 255.625 122.7 258.525C122.7 262.325 125.8 265.325 129.5 265.325C133.2 265.325 136.3 262.225 136.3 258.525C136.3 255.525 134.4 253.025 131.7 252.125V232.925H136.6V242.325C136.6 243.525 137.6 244.525 138.8 244.525C140 244.525 141 243.525 141 242.325V232.925H145.9V267.825C145.9 269.025 146.9 270.025 148.1 270.025C149.3 270.025 150.3 269.025 150.3 267.825V232.925H155.2V242.325C155.2 243.525 156.2 244.525 157.4 244.525C158.6 244.525 159.6 243.525 159.6 242.325V232.925H164.5V239.425C164.5 241.825 165.4 244.125 167.2 245.825L181.5 260.125C180.2 262.625 180.7 265.825 182.8 267.925C184.1 269.225 185.9 269.925 187.6 269.925C189.3 269.925 191.1 269.225 192.4 267.925C194.9 265.425 194.9 261.025 192.2 258.425ZM85.4 179.925C84 179.925 82.9 178.825 82.9 177.425C82.9 176.025 84 174.925 85.4 174.925C86.8 174.925 87.9 176.025 87.9 177.425C87.9 178.825 86.8 179.925 85.4 179.925ZM82.5 237.125C82 237.625 81.4 237.825 80.8 237.825C80.2 237.825 79.5 237.525 79.1 237.125C78.6 236.625 78.4 236.025 78.4 235.425C78.4 234.725 78.7 234.125 79.1 233.725C79.5 233.325 80.2 233.025 80.8 233.025C81.4 233.025 82.1 233.325 82.5 233.725C82.9 234.125 83.2 234.825 83.2 235.425C83.3 236.025 83 236.725 82.5 237.125ZM131.9 258.625C131.9 260.025 130.8 261.125 129.4 261.125C128 261.125 126.9 260.025 126.9 258.625C126.9 257.225 128 256.125 129.4 256.125C130.8 256.125 131.9 257.225 131.9 258.625ZM189.1 264.925C188.1 265.925 186.6 265.925 185.6 264.925C184.6 263.925 184.6 262.425 185.6 261.425C186.1 260.925 186.7 260.725 187.3 260.725C187.9 260.725 188.6 260.925 189 261.425C190.1 262.425 190.1 264.025 189.1 264.925Z" fill="url(#paint2_linear)"/>
<path d="M171 190.225C171 185.625 167.6 181.625 163 180.425C163.1 179.825 163.2 179.325 163.2 178.725C163.2 174.325 159.3 170.725 154.5 170.725C151.9 170.725 149.6 171.725 148 173.425C146.4 171.725 144.1 170.725 141.5 170.725C136.7 170.725 132.8 174.325 132.8 178.725C132.8 179.325 132.9 179.925 133 180.425C128.4 181.725 125 185.625 125 190.225C125 192.525 125.8 194.625 127.3 196.425C125.8 198.325 125 200.525 125 203.025C125 206.725 127 210.125 130.2 212.325C130.2 217.325 134.7 221.425 140.2 221.425C143.4 221.425 146.2 220.025 148 217.925C149.8 220.025 152.7 221.425 155.8 221.425C161.1 221.425 165.4 217.625 165.8 212.825C169 210.925 171 207.725 171 204.125C171 201.525 169.9 199.025 168 197.125C169.9 195.325 171 192.825 171 190.225ZM163.3 199.125C165.4 200.225 166.6 202.125 166.6 204.125C166.6 205.625 165.9 207.125 164.7 208.225C163.6 206.125 161.5 204.425 159 203.625C157.9 203.225 156.6 203.925 156.3 205.025C155.9 206.125 156.6 207.425 157.7 207.725C159.9 208.425 161.4 210.225 161.4 212.225C161.4 214.825 158.9 217.025 155.7 217.025C152.6 217.025 150 214.925 150 212.225V198.325C150 195.725 152.5 193.525 155.7 193.525C156.9 193.525 157.9 192.525 157.9 191.325C157.9 190.125 156.9 189.125 155.7 189.125C153.6 189.125 151.7 189.725 150 190.725V188.025C150 186.825 149 185.825 147.8 185.825C146.6 185.825 145.6 186.825 145.6 188.025V200.025C144.9 199.525 144.1 199.225 143.2 198.925C142.1 198.525 140.8 199.225 140.5 200.325C140.1 201.425 140.8 202.725 141.9 203.025C144.1 203.725 145.6 205.525 145.6 207.525V212.125C145.6 214.725 143.1 216.925 139.9 216.925C136.8 216.925 134.2 214.825 134.2 212.125C134.2 211.025 134.7 209.925 135.5 209.025C136.3 208.225 136.4 206.825 135.5 205.925C134.7 205.125 133.3 205.025 132.4 205.925C131.9 206.425 131.4 207.025 131.1 207.625C129.7 206.325 128.9 204.625 128.9 202.825C128.9 199.625 131.4 196.825 135 195.925C136.2 195.625 136.9 194.525 136.6 193.325C136.3 192.125 135.2 191.425 134 191.725C132.5 192.025 131.2 192.625 130 193.325C129.2 192.325 128.8 191.225 128.8 190.025C128.8 186.725 131.9 184.125 135.7 184.125C135.7 184.125 135.7 184.125 135.8 184.125C136.3 184.125 136.8 183.925 137.2 183.625C138 182.925 138.2 181.725 137.6 180.825V180.725L137.5 180.625C137.1 180.225 136.7 179.525 136.7 178.525C136.7 176.525 138.7 174.925 141 174.925C143.4 174.925 145.3 176.525 145.3 178.525C145.3 179.725 146.3 180.725 147.5 180.725C148.7 180.725 149.7 179.725 149.7 178.525C149.7 176.525 151.7 174.925 154 174.925C156.3 174.925 158.3 176.525 158.3 178.525C158.3 179.025 158.2 179.525 158 179.925C156.8 180.025 155.6 180.325 154.4 180.825C153.3 181.325 152.8 182.525 153.2 183.625C153.7 184.725 154.9 185.225 156 184.825C156.9 184.425 157.9 184.225 159 184.225C159 184.225 159 184.225 159.1 184.225C159.1 184.225 159.1 184.225 159.2 184.225C163 184.225 166.1 186.925 166.1 190.125C166.1 192.125 164.9 194.025 162.8 195.125C162.1 195.525 161.6 196.225 161.6 197.025C162.2 198.025 162.6 198.725 163.3 199.125Z" fill="url(#paint3_linear)"/>
<defs>
<linearGradient id="paint0_linear" x1="3.42172e-05" y1="394.846" x2="185.801" y2="-46.4027" gradientUnits="userSpaceOnUse">
<stop offset="0.481859" stop-color="#32004A"/>
<stop offset="1" stop-color="#BB32FF"/>
</linearGradient>
<linearGradient id="paint1_linear" x1="101.775" y1="226.084" x2="136.599" y2="98.6608" gradientUnits="userSpaceOnUse">
<stop offset="0.481859" stop-color="#32004A"/>
<stop offset="1" stop-color="#BB32FF"/>
</linearGradient>
<linearGradient id="paint2_linear" x1="74" y1="269.985" x2="108.782" y2="142.616" gradientUnits="userSpaceOnUse">
<stop offset="0.481859" stop-color="#32004A"/>
<stop offset="1" stop-color="#BB32FF"/>
</linearGradient>
<linearGradient id="paint3_linear" x1="125" y1="221.405" x2="145.687" y2="161.921" gradientUnits="userSpaceOnUse">
<stop offset="0.481859" stop-color="#32004A"/>
<stop offset="1" stop-color="#BB32FF"/>
</linearGradient>
</defs>
</svg>
