<svg width="296" height="395" viewBox="0 0 296 395" fill="none" xmlns="http://www.w3.org/2000/svg">
<path d="M33.0824 305.26H31.6784V300.652H33.5684L33.0824 305.26ZM29.8784 305.26H28.4744V300.652H30.3644L29.8784 305.26ZM38.2847 313H36.3587V301.12H38.2847V313ZM49.2635 310.372C49.2635 310.816 49.3295 311.128 49.4615 311.308C49.5935 311.476 49.8395 311.56 50.1995 311.56C50.4275 311.56 50.6195 311.548 50.7755 311.524C50.9435 311.488 51.1475 311.422 51.3875 311.326L51.1715 312.874C50.7635 313.078 50.2655 313.18 49.6775 313.18C48.8735 313.18 48.2795 312.976 47.8955 312.568C47.5235 312.16 47.3375 311.518 47.3375 310.642V299.95H49.2635V310.372ZM56.9589 303.82C58.3629 303.82 59.4609 304.234 60.2529 305.062C61.0449 305.89 61.4409 307.036 61.4409 308.5C61.4409 309.964 61.0449 311.11 60.2529 311.938C59.4609 312.766 58.3629 313.18 56.9589 313.18C55.5549 313.18 54.4569 312.766 53.6649 311.938C52.8729 311.11 52.4769 309.964 52.4769 308.5C52.4769 307.036 52.8729 305.89 53.6649 305.062C54.4569 304.234 55.5549 303.82 56.9589 303.82ZM56.9589 305.332C56.1429 305.332 55.5129 305.608 55.0689 306.16C54.6369 306.7 54.4209 307.48 54.4209 308.5C54.4209 309.52 54.6369 310.306 55.0689 310.858C55.5129 311.398 56.1429 311.668 56.9589 311.668C57.7749 311.668 58.4049 311.392 58.8489 310.84C59.2929 310.288 59.5149 309.508 59.5149 308.5C59.5149 307.492 59.2929 306.712 58.8489 306.16C58.4049 305.608 57.7749 305.332 56.9589 305.332ZM67.8749 303.82C69.2789 303.82 70.3769 304.234 71.1689 305.062C71.9609 305.89 72.3569 307.036 72.3569 308.5C72.3569 309.964 71.9609 311.11 71.1689 311.938C70.3769 312.766 69.2789 313.18 67.8749 313.18C66.4709 313.18 65.3729 312.766 64.5809 311.938C63.7889 311.11 63.3929 309.964 63.3929 308.5C63.3929 307.036 63.7889 305.89 64.5809 305.062C65.3729 304.234 66.4709 303.82 67.8749 303.82ZM67.8749 305.332C67.0589 305.332 66.4289 305.608 65.9849 306.16C65.5529 306.7 65.3369 307.48 65.3369 308.5C65.3369 309.52 65.5529 310.306 65.9849 310.858C66.4289 311.398 67.0589 311.668 67.8749 311.668C68.6909 311.668 69.3209 311.392 69.7649 310.84C70.2089 310.288 70.4309 309.508 70.4309 308.5C70.4309 307.492 70.2089 306.712 69.7649 306.16C69.3209 305.608 68.6909 305.332 67.8749 305.332ZM78.5389 308.77L76.7569 310.606V313H74.8309V299.95H76.7569V308.41L81.0589 304H83.3269L79.8889 307.528L83.5429 313H81.3109L78.5389 308.77ZM101.681 303.82C102.281 303.82 102.833 303.946 103.337 304.198C103.841 304.438 104.243 304.81 104.543 305.314C104.843 305.818 104.993 306.436 104.993 307.168V313H103.067V307.474C103.067 306.766 102.899 306.244 102.563 305.908C102.227 305.572 101.777 305.404 101.213 305.404C100.553 305.404 99.995 305.644 99.539 306.124C99.095 306.604 98.873 307.264 98.873 308.104V313H96.947V307.474C96.947 306.766 96.779 306.244 96.443 305.908C96.107 305.572 95.657 305.404 95.093 305.404C94.709 305.404 94.337 305.506 93.977 305.71C93.617 305.902 93.323 306.208 93.095 306.628C92.867 307.048 92.753 307.576 92.753 308.212V313H90.827V304H92.537L92.627 305.494C92.927 304.942 93.335 304.528 93.851 304.252C94.367 303.964 94.931 303.82 95.543 303.82C96.215 303.82 96.821 303.976 97.361 304.288C97.913 304.588 98.321 305.032 98.585 305.62C98.861 305.032 99.281 304.588 99.845 304.288C100.421 303.976 101.033 303.82 101.681 303.82ZM111.873 303.82C113.277 303.82 114.375 304.234 115.167 305.062C115.959 305.89 116.355 307.036 116.355 308.5C116.355 309.964 115.959 311.11 115.167 311.938C114.375 312.766 113.277 313.18 111.873 313.18C110.469 313.18 109.371 312.766 108.579 311.938C107.787 311.11 107.391 309.964 107.391 308.5C107.391 307.036 107.787 305.89 108.579 305.062C109.371 304.234 110.469 303.82 111.873 303.82ZM111.873 305.332C111.057 305.332 110.427 305.608 109.983 306.16C109.551 306.7 109.335 307.48 109.335 308.5C109.335 309.52 109.551 310.306 109.983 310.858C110.427 311.398 111.057 311.668 111.873 311.668C112.689 311.668 113.319 311.392 113.763 310.84C114.207 310.288 114.429 309.508 114.429 308.5C114.429 307.492 114.207 306.712 113.763 306.16C113.319 305.608 112.689 305.332 111.873 305.332ZM123.473 303.82C123.893 303.82 124.223 303.88 124.463 304L124.157 305.764C123.881 305.608 123.503 305.53 123.023 305.53C122.639 305.53 122.273 305.632 121.925 305.836C121.589 306.04 121.307 306.346 121.079 306.754C120.863 307.162 120.755 307.654 120.755 308.23V313H118.829V304H120.467L120.629 305.62C121.133 304.42 122.081 303.82 123.473 303.82ZM134.1 308.23C134.1 308.578 134.076 308.908 134.028 309.22H127.44C127.548 310.012 127.83 310.618 128.286 311.038C128.742 311.446 129.33 311.65 130.05 311.65C130.638 311.65 131.124 311.548 131.508 311.344C131.904 311.128 132.174 310.822 132.318 310.426L133.92 311.092C133.248 312.484 131.958 313.18 130.05 313.18C128.634 313.18 127.524 312.766 126.72 311.938C125.928 311.11 125.532 309.964 125.532 308.5C125.532 307.024 125.916 305.878 126.684 305.062C127.452 304.234 128.532 303.82 129.924 303.82C131.244 303.82 132.27 304.222 133.002 305.026C133.734 305.83 134.1 306.898 134.1 308.23ZM129.924 305.35C129.228 305.35 128.664 305.554 128.232 305.962C127.812 306.37 127.548 306.964 127.44 307.744H132.3C132.204 306.988 131.946 306.4 131.526 305.98C131.118 305.56 130.584 305.35 129.924 305.35ZM150.142 311.74C150.406 311.74 150.628 311.716 150.808 311.668L150.682 312.964C150.358 313.108 149.986 313.18 149.566 313.18C149.05 313.18 148.636 313.078 148.324 312.874C148.024 312.67 147.826 312.328 147.73 311.848C147.454 312.268 147.046 312.598 146.506 312.838C145.966 313.066 145.36 313.18 144.688 313.18C143.812 313.18 143.104 312.976 142.564 312.568C142.024 312.16 141.754 311.578 141.754 310.822C141.754 310.114 142.048 309.52 142.636 309.04C143.224 308.548 144.1 308.2 145.264 307.996L147.55 307.6V307.114C147.55 306.562 147.388 306.13 147.064 305.818C146.74 305.494 146.29 305.332 145.714 305.332C144.526 305.332 143.752 305.872 143.392 306.952L141.898 306.16C142.114 305.44 142.552 304.87 143.212 304.45C143.884 304.03 144.706 303.82 145.678 303.82C146.842 303.82 147.766 304.09 148.45 304.63C149.134 305.17 149.476 305.962 149.476 307.006V311.074C149.476 311.302 149.524 311.47 149.62 311.578C149.728 311.686 149.902 311.74 150.142 311.74ZM145.102 311.722C145.75 311.722 146.32 311.566 146.812 311.254C147.304 310.942 147.55 310.528 147.55 310.012V308.932L145.588 309.328C144.964 309.448 144.502 309.616 144.202 309.832C143.902 310.048 143.752 310.336 143.752 310.696C143.752 311.032 143.866 311.29 144.094 311.47C144.334 311.638 144.67 311.722 145.102 311.722ZM158.112 312.406C157.824 312.646 157.47 312.838 157.05 312.982C156.642 313.114 156.198 313.18 155.718 313.18C154.89 313.18 154.224 312.976 153.72 312.568C153.228 312.148 152.976 311.5 152.964 310.624V305.512H151.254V304H152.964V301.894L154.89 301.354V304H158.04V305.512H154.89V310.3C154.89 310.732 155.004 311.056 155.232 311.272C155.472 311.476 155.796 311.578 156.204 311.578C156.756 311.578 157.242 311.386 157.662 311.002L158.112 312.406ZM171.313 312.406C171.025 312.646 170.671 312.838 170.251 312.982C169.843 313.114 169.399 313.18 168.919 313.18C168.091 313.18 167.425 312.976 166.921 312.568C166.429 312.148 166.177 311.5 166.165 310.624V305.512H164.455V304H166.165V301.894L168.091 301.354V304H171.241V305.512H168.091V310.3C168.091 310.732 168.205 311.056 168.433 311.272C168.673 311.476 168.997 311.578 169.405 311.578C169.957 311.578 170.443 311.386 170.863 311.002L171.313 312.406ZM178.023 303.82C179.019 303.82 179.829 304.108 180.453 304.684C181.089 305.26 181.407 306.088 181.407 307.168V313H179.481V307.78C179.481 306.196 178.839 305.404 177.555 305.404C176.883 305.404 176.307 305.638 175.827 306.106C175.347 306.574 175.107 307.288 175.107 308.248V313H173.181V299.95H175.107V305.44C175.407 304.888 175.803 304.48 176.295 304.216C176.799 303.952 177.375 303.82 178.023 303.82ZM192.371 308.23C192.371 308.578 192.347 308.908 192.299 309.22H185.711C185.819 310.012 186.101 310.618 186.557 311.038C187.013 311.446 187.601 311.65 188.321 311.65C188.909 311.65 189.395 311.548 189.779 311.344C190.175 311.128 190.445 310.822 190.589 310.426L192.191 311.092C191.519 312.484 190.229 313.18 188.321 313.18C186.905 313.18 185.795 312.766 184.991 311.938C184.199 311.11 183.803 309.964 183.803 308.5C183.803 307.024 184.187 305.878 184.955 305.062C185.723 304.234 186.803 303.82 188.195 303.82C189.515 303.82 190.541 304.222 191.273 305.026C192.005 305.83 192.371 306.898 192.371 308.23ZM188.195 305.35C187.499 305.35 186.935 305.554 186.503 305.962C186.083 306.37 185.819 306.964 185.711 307.744H190.571C190.475 306.988 190.217 306.4 189.797 305.98C189.389 305.56 188.855 305.35 188.195 305.35ZM208.972 299.95V313H207.28L207.172 311.398C206.908 311.938 206.506 312.37 205.966 312.694C205.438 313.018 204.832 313.18 204.148 313.18C202.912 313.18 201.934 312.772 201.214 311.956C200.506 311.128 200.152 309.982 200.152 308.518C200.152 307.054 200.506 305.908 201.214 305.08C201.934 304.24 202.912 303.82 204.148 303.82C204.808 303.82 205.39 303.97 205.894 304.27C206.398 304.558 206.782 304.954 207.046 305.458V299.95H208.972ZM204.58 311.632C205.336 311.632 205.936 311.362 206.38 310.822C206.824 310.282 207.046 309.544 207.046 308.608V308.392C207.046 307.456 206.824 306.724 206.38 306.196C205.936 305.656 205.336 305.386 204.58 305.386C203.8 305.386 203.188 305.662 202.744 306.214C202.312 306.754 202.096 307.516 202.096 308.5C202.096 309.484 202.312 310.252 202.744 310.804C203.188 311.356 203.8 311.632 204.58 311.632ZM212.93 302.488C212.522 302.488 212.204 302.386 211.976 302.182C211.748 301.966 211.634 301.666 211.634 301.282C211.634 300.898 211.748 300.604 211.976 300.4C212.204 300.196 212.522 300.094 212.93 300.094C213.338 300.094 213.65 300.196 213.866 300.4C214.094 300.604 214.208 300.898 214.208 301.282C214.208 301.666 214.094 301.966 213.866 302.182C213.65 302.386 213.338 302.488 212.93 302.488ZM213.884 313H211.958V304H213.884V313ZM221.541 303.82C221.961 303.82 222.291 303.88 222.531 304L222.225 305.764C221.949 305.608 221.571 305.53 221.091 305.53C220.707 305.53 220.341 305.632 219.993 305.836C219.657 306.04 219.375 306.346 219.147 306.754C218.931 307.162 218.823 307.654 218.823 308.23V313H216.897V304H218.535L218.697 305.62C219.201 304.42 220.149 303.82 221.541 303.82ZM232.168 308.23C232.168 308.578 232.144 308.908 232.096 309.22H225.508C225.616 310.012 225.898 310.618 226.354 311.038C226.81 311.446 227.398 311.65 228.118 311.65C228.706 311.65 229.192 311.548 229.576 311.344C229.972 311.128 230.242 310.822 230.386 310.426L231.988 311.092C231.316 312.484 230.026 313.18 228.118 313.18C226.702 313.18 225.592 312.766 224.788 311.938C223.996 311.11 223.6 309.964 223.6 308.5C223.6 307.024 223.984 305.878 224.752 305.062C225.52 304.234 226.6 303.82 227.992 303.82C229.312 303.82 230.338 304.222 231.07 305.026C231.802 305.83 232.168 306.898 232.168 308.23ZM227.992 305.35C227.296 305.35 226.732 305.554 226.3 305.962C225.88 306.37 225.616 306.964 225.508 307.744H230.368C230.272 306.988 230.014 306.4 229.594 305.98C229.186 305.56 228.652 305.35 227.992 305.35ZM238.541 303.82C240.509 303.82 241.811 304.66 242.447 306.34L240.647 307.06C240.335 305.92 239.633 305.35 238.541 305.35C237.737 305.35 237.113 305.626 236.669 306.178C236.225 306.73 236.003 307.51 236.003 308.518C236.003 309.526 236.225 310.3 236.669 310.84C237.113 311.38 237.737 311.65 238.541 311.65C239.153 311.65 239.645 311.5 240.017 311.2C240.389 310.9 240.635 310.468 240.755 309.904L242.519 310.498C242.255 311.338 241.787 311.998 241.115 312.478C240.443 312.946 239.597 313.18 238.577 313.18C237.161 313.18 236.051 312.766 235.247 311.938C234.455 311.11 234.059 309.964 234.059 308.5C234.059 307.036 234.455 305.89 235.247 305.062C236.039 304.234 237.137 303.82 238.541 303.82ZM250.608 312.406C250.32 312.646 249.966 312.838 249.546 312.982C249.138 313.114 248.694 313.18 248.214 313.18C247.386 313.18 246.72 312.976 246.216 312.568C245.724 312.148 245.472 311.5 245.46 310.624V305.512H243.75V304H245.46V301.894L247.386 301.354V304H250.536V305.512H247.386V310.3C247.386 310.732 247.5 311.056 247.728 311.272C247.968 311.476 248.292 311.578 248.7 311.578C249.252 311.578 249.738 311.386 250.158 311.002L250.608 312.406ZM256.365 303.82C257.769 303.82 258.867 304.234 259.659 305.062C260.451 305.89 260.847 307.036 260.847 308.5C260.847 309.964 260.451 311.11 259.659 311.938C258.867 312.766 257.769 313.18 256.365 313.18C254.961 313.18 253.863 312.766 253.071 311.938C252.279 311.11 251.883 309.964 251.883 308.5C251.883 307.036 252.279 305.89 253.071 305.062C253.863 304.234 254.961 303.82 256.365 303.82ZM256.365 305.332C255.549 305.332 254.919 305.608 254.475 306.16C254.043 306.7 253.827 307.48 253.827 308.5C253.827 309.52 254.043 310.306 254.475 310.858C254.919 311.398 255.549 311.668 256.365 311.668C257.181 311.668 257.811 311.392 258.255 310.84C258.699 310.288 258.921 309.508 258.921 308.5C258.921 307.492 258.699 306.712 258.255 306.16C257.811 305.608 257.181 305.332 256.365 305.332ZM267.965 303.82C268.385 303.82 268.715 303.88 268.955 304L268.649 305.764C268.373 305.608 267.995 305.53 267.515 305.53C267.131 305.53 266.765 305.632 266.417 305.836C266.081 306.04 265.799 306.346 265.571 306.754C265.355 307.162 265.247 307.654 265.247 308.23V313H263.321V304H264.959L265.121 305.62C265.625 304.42 266.573 303.82 267.965 303.82ZM37.0811 332.82C38.3171 332.82 39.2891 333.24 39.9971 334.08C40.7051 334.908 41.0591 336.054 41.0591 337.518C41.0591 338.982 40.7051 340.128 39.9971 340.956C39.2891 341.772 38.3171 342.18 37.0811 342.18C36.3731 342.18 35.7491 342.012 35.2091 341.676C34.6811 341.34 34.2851 340.89 34.0211 340.326L33.9311 342H32.2391V328.95H34.1651V334.44C34.4411 333.936 34.8311 333.54 35.3351 333.252C35.8511 332.964 36.4331 332.82 37.0811 332.82ZM36.6491 340.632C37.4291 340.632 38.0351 340.356 38.4671 339.804C38.9111 339.252 39.1331 338.484 39.1331 337.5C39.1331 336.516 38.9111 335.754 38.4671 335.214C38.0351 334.662 37.4291 334.386 36.6491 334.386C35.9171 334.386 35.3291 334.632 34.8851 335.124C34.4531 335.616 34.2131 336.294 34.1651 337.158V337.842C34.2131 338.718 34.4531 339.402 34.8851 339.894C35.3291 340.386 35.9171 340.632 36.6491 340.632ZM51.6054 337.23C51.6054 337.578 51.5814 337.908 51.5334 338.22H44.9454C45.0534 339.012 45.3354 339.618 45.7914 340.038C46.2474 340.446 46.8354 340.65 47.5554 340.65C48.1434 340.65 48.6294 340.548 49.0134 340.344C49.4094 340.128 49.6794 339.822 49.8234 339.426L51.4254 340.092C50.7534 341.484 49.4634 342.18 47.5554 342.18C46.1394 342.18 45.0294 341.766 44.2254 340.938C43.4334 340.11 43.0374 338.964 43.0374 337.5C43.0374 336.024 43.4214 334.878 44.1894 334.062C44.9574 333.234 46.0374 332.82 47.4294 332.82C48.7494 332.82 49.7754 333.222 50.5074 334.026C51.2394 334.83 51.6054 335.898 51.6054 337.23ZM47.4294 334.35C46.7334 334.35 46.1694 334.554 45.7374 334.962C45.3174 335.37 45.0534 335.964 44.9454 336.744H49.8054C49.7094 335.988 49.4514 335.4 49.0314 334.98C48.6234 334.56 48.0894 334.35 47.4294 334.35ZM57.9784 332.82C59.9464 332.82 61.2484 333.66 61.8844 335.34L60.0844 336.06C59.7724 334.92 59.0704 334.35 57.9784 334.35C57.1744 334.35 56.5504 334.626 56.1064 335.178C55.6624 335.73 55.4404 336.51 55.4404 337.518C55.4404 338.526 55.6624 339.3 56.1064 339.84C56.5504 340.38 57.1744 340.65 57.9784 340.65C58.5904 340.65 59.0824 340.5 59.4544 340.2C59.8264 339.9 60.0724 339.468 60.1924 338.904L61.9564 339.498C61.6924 340.338 61.2244 340.998 60.5524 341.478C59.8804 341.946 59.0344 342.18 58.0144 342.18C56.5984 342.18 55.4884 341.766 54.6844 340.938C53.8924 340.11 53.4964 338.964 53.4964 337.5C53.4964 336.036 53.8924 334.89 54.6844 334.062C55.4764 333.234 56.5744 332.82 57.9784 332.82ZM71.9897 340.74C72.2537 340.74 72.4757 340.716 72.6557 340.668L72.5297 341.964C72.2057 342.108 71.8337 342.18 71.4137 342.18C70.8977 342.18 70.4837 342.078 70.1717 341.874C69.8717 341.67 69.6737 341.328 69.5777 340.848C69.3017 341.268 68.8937 341.598 68.3537 341.838C67.8137 342.066 67.2077 342.18 66.5357 342.18C65.6597 342.18 64.9517 341.976 64.4117 341.568C63.8717 341.16 63.6017 340.578 63.6017 339.822C63.6017 339.114 63.8957 338.52 64.4837 338.04C65.0717 337.548 65.9477 337.2 67.1117 336.996L69.3977 336.6V336.114C69.3977 335.562 69.2357 335.13 68.9117 334.818C68.5877 334.494 68.1377 334.332 67.5617 334.332C66.3737 334.332 65.5997 334.872 65.2397 335.952L63.7457 335.16C63.9617 334.44 64.3997 333.87 65.0597 333.45C65.7317 333.03 66.5537 332.82 67.5257 332.82C68.6897 332.82 69.6137 333.09 70.2977 333.63C70.9817 334.17 71.3237 334.962 71.3237 336.006V340.074C71.3237 340.302 71.3717 340.47 71.4677 340.578C71.5757 340.686 71.7497 340.74 71.9897 340.74ZM66.9497 340.722C67.5977 340.722 68.1677 340.566 68.6597 340.254C69.1517 339.942 69.3977 339.528 69.3977 339.012V337.932L67.4357 338.328C66.8117 338.448 66.3497 338.616 66.0497 338.832C65.7497 339.048 65.5997 339.336 65.5997 339.696C65.5997 340.032 65.7137 340.29 65.9417 340.47C66.1817 340.638 66.5177 340.722 66.9497 340.722ZM82.6334 333V342H80.9234L80.8514 340.542C80.2394 341.634 79.1714 342.18 77.6474 342.18C76.6754 342.18 75.8894 341.916 75.2894 341.388C74.7014 340.848 74.4074 340.026 74.4074 338.922V333H76.3334V338.418C76.3334 339.21 76.4894 339.774 76.8014 340.11C77.1134 340.434 77.5754 340.596 78.1874 340.596C78.9194 340.596 79.5194 340.368 79.9874 339.912C80.4674 339.444 80.7074 338.76 80.7074 337.86V333H82.6334ZM88.8819 342.18C87.9699 342.18 87.1599 342.024 86.4519 341.712C85.7559 341.4 85.2279 340.926 84.8679 340.29L86.1639 339.174C86.3919 339.69 86.7459 340.068 87.2259 340.308C87.7059 340.548 88.2819 340.668 88.9539 340.668C89.5659 340.668 90.0399 340.572 90.3759 340.38C90.7119 340.176 90.8799 339.912 90.8799 339.588C90.8799 339.3 90.7239 339.072 90.4119 338.904C90.0999 338.724 89.5599 338.556 88.7919 338.4C87.4599 338.148 86.5239 337.812 85.9839 337.392C85.4439 336.972 85.1739 336.378 85.1739 335.61C85.1739 335.118 85.3239 334.662 85.6239 334.242C85.9239 333.81 86.3559 333.468 86.9199 333.216C87.4959 332.952 88.1739 332.82 88.9539 332.82C89.9499 332.82 90.7479 332.988 91.3479 333.324C91.9479 333.648 92.4099 334.158 92.7339 334.854L91.3659 335.862C91.1499 335.334 90.8439 334.95 90.4479 334.71C90.0639 334.458 89.5719 334.332 88.9719 334.332C88.4319 334.332 87.9819 334.446 87.6219 334.674C87.2739 334.89 87.0999 335.142 87.0999 335.43C87.0999 335.754 87.2559 336.012 87.5679 336.204C87.8919 336.396 88.4739 336.57 89.3139 336.726C90.5859 336.954 91.4859 337.278 92.0139 337.698C92.5419 338.118 92.8059 338.706 92.8059 339.462C92.8059 340.266 92.4579 340.92 91.7619 341.424C91.0659 341.928 90.1059 342.18 88.8819 342.18ZM103.18 337.23C103.18 337.578 103.156 337.908 103.108 338.22H96.5196C96.6276 339.012 96.9096 339.618 97.3656 340.038C97.8216 340.446 98.4096 340.65 99.1296 340.65C99.7176 340.65 100.204 340.548 100.588 340.344C100.984 340.128 101.254 339.822 101.398 339.426L103 340.092C102.328 341.484 101.038 342.18 99.1296 342.18C97.7136 342.18 96.6036 341.766 95.7996 340.938C95.0076 340.11 94.6116 338.964 94.6116 337.5C94.6116 336.024 94.9956 334.878 95.7636 334.062C96.5316 333.234 97.6116 332.82 99.0036 332.82C100.324 332.82 101.35 333.222 102.082 334.026C102.814 334.83 103.18 335.898 103.18 337.23ZM99.0036 334.35C98.3076 334.35 97.7436 334.554 97.3116 334.962C96.8916 335.37 96.6276 335.964 96.5196 336.744H101.38C101.284 335.988 101.026 335.4 100.606 334.98C100.198 334.56 99.6636 334.35 99.0036 334.35ZM116.997 341.406C116.709 341.646 116.355 341.838 115.935 341.982C115.527 342.114 115.083 342.18 114.603 342.18C113.775 342.18 113.109 341.976 112.605 341.568C112.113 341.148 111.861 340.5 111.849 339.624V334.512H110.139V333H111.849V330.894L113.775 330.354V333H116.925V334.512H113.775V339.3C113.775 339.732 113.889 340.056 114.117 340.272C114.357 340.476 114.681 340.578 115.089 340.578C115.641 340.578 116.127 340.386 116.547 340.002L116.997 341.406ZM123.706 332.82C124.702 332.82 125.512 333.108 126.136 333.684C126.772 334.26 127.09 335.088 127.09 336.168V342H125.164V336.78C125.164 335.196 124.522 334.404 123.238 334.404C122.566 334.404 121.99 334.638 121.51 335.106C121.03 335.574 120.79 336.288 120.79 337.248V342H118.864V328.95H120.79V334.44C121.09 333.888 121.486 333.48 121.978 333.216C122.482 332.952 123.058 332.82 123.706 332.82ZM138.055 337.23C138.055 337.578 138.031 337.908 137.983 338.22H131.395C131.503 339.012 131.785 339.618 132.241 340.038C132.697 340.446 133.285 340.65 134.005 340.65C134.593 340.65 135.079 340.548 135.463 340.344C135.859 340.128 136.129 339.822 136.273 339.426L137.875 340.092C137.203 341.484 135.913 342.18 134.005 342.18C132.589 342.18 131.479 341.766 130.675 340.938C129.883 340.11 129.487 338.964 129.487 337.5C129.487 336.024 129.871 334.878 130.639 334.062C131.407 333.234 132.487 332.82 133.879 332.82C135.199 332.82 136.225 333.222 136.957 334.026C137.689 334.83 138.055 335.898 138.055 337.23ZM133.879 334.35C133.183 334.35 132.619 334.554 132.187 334.962C131.767 335.37 131.503 335.964 131.395 336.744H136.255C136.159 335.988 135.901 335.4 135.481 334.98C135.073 334.56 134.539 334.35 133.879 334.35ZM144.221 343.062C143.825 344.094 143.375 344.82 142.871 345.24C142.367 345.66 141.707 345.87 140.891 345.87C140.423 345.87 140.015 345.81 139.667 345.69C139.331 345.582 139.031 345.402 138.767 345.15L139.325 343.674C139.685 344.106 140.177 344.322 140.801 344.322C141.161 344.322 141.461 344.226 141.701 344.034C141.953 343.854 142.175 343.518 142.367 343.026L142.763 342.054L141.827 339.822L139.019 333H141.179L143.159 338.652L143.681 340.344L144.293 338.49L146.165 333H148.163L144.221 343.062ZM163.08 340.74C163.344 340.74 163.566 340.716 163.746 340.668L163.62 341.964C163.296 342.108 162.924 342.18 162.504 342.18C161.988 342.18 161.574 342.078 161.262 341.874C160.962 341.67 160.764 341.328 160.668 340.848C160.392 341.268 159.984 341.598 159.444 341.838C158.904 342.066 158.298 342.18 157.626 342.18C156.75 342.18 156.042 341.976 155.502 341.568C154.962 341.16 154.692 340.578 154.692 339.822C154.692 339.114 154.986 338.52 155.574 338.04C156.162 337.548 157.038 337.2 158.202 336.996L160.488 336.6V336.114C160.488 335.562 160.326 335.13 160.002 334.818C159.678 334.494 159.228 334.332 158.652 334.332C157.464 334.332 156.69 334.872 156.33 335.952L154.836 335.16C155.052 334.44 155.49 333.87 156.15 333.45C156.822 333.03 157.644 332.82 158.616 332.82C159.78 332.82 160.704 333.09 161.388 333.63C162.072 334.17 162.414 334.962 162.414 336.006V340.074C162.414 340.302 162.462 340.47 162.558 340.578C162.666 340.686 162.84 340.74 163.08 340.74ZM158.04 340.722C158.688 340.722 159.258 340.566 159.75 340.254C160.242 339.942 160.488 339.528 160.488 339.012V337.932L158.526 338.328C157.902 338.448 157.44 338.616 157.14 338.832C156.84 339.048 156.69 339.336 156.69 339.696C156.69 340.032 156.804 340.29 157.032 340.47C157.272 340.638 157.608 340.722 158.04 340.722ZM167.441 339.372C167.441 339.816 167.507 340.128 167.639 340.308C167.771 340.476 168.017 340.56 168.377 340.56C168.605 340.56 168.797 340.548 168.953 340.524C169.121 340.488 169.325 340.422 169.565 340.326L169.349 341.874C168.941 342.078 168.443 342.18 167.855 342.18C167.051 342.18 166.457 341.976 166.073 341.568C165.701 341.16 165.515 340.518 165.515 339.642V328.95H167.441V339.372ZM175.821 332.82C176.241 332.82 176.571 332.88 176.811 333L176.505 334.764C176.229 334.608 175.851 334.53 175.371 334.53C174.987 334.53 174.621 334.632 174.273 334.836C173.937 335.04 173.655 335.346 173.427 335.754C173.211 336.162 173.103 336.654 173.103 337.23V342H171.177V333H172.815L172.977 334.62C173.481 333.42 174.429 332.82 175.821 332.82ZM186.447 337.23C186.447 337.578 186.423 337.908 186.375 338.22H179.787C179.895 339.012 180.177 339.618 180.633 340.038C181.089 340.446 181.677 340.65 182.397 340.65C182.985 340.65 183.471 340.548 183.855 340.344C184.251 340.128 184.521 339.822 184.665 339.426L186.267 340.092C185.595 341.484 184.305 342.18 182.397 342.18C180.981 342.18 179.871 341.766 179.067 340.938C178.275 340.11 177.879 338.964 177.879 337.5C177.879 336.024 178.263 334.878 179.031 334.062C179.799 333.234 180.879 332.82 182.271 332.82C183.591 332.82 184.617 333.222 185.349 334.026C186.081 334.83 186.447 335.898 186.447 337.23ZM182.271 334.35C181.575 334.35 181.011 334.554 180.579 334.962C180.159 335.37 179.895 335.964 179.787 336.744H184.647C184.551 335.988 184.293 335.4 183.873 334.98C183.465 334.56 182.931 334.35 182.271 334.35ZM196.636 340.74C196.9 340.74 197.122 340.716 197.302 340.668L197.176 341.964C196.852 342.108 196.48 342.18 196.06 342.18C195.544 342.18 195.13 342.078 194.818 341.874C194.518 341.67 194.32 341.328 194.224 340.848C193.948 341.268 193.54 341.598 193 341.838C192.46 342.066 191.854 342.18 191.182 342.18C190.306 342.18 189.598 341.976 189.058 341.568C188.518 341.16 188.248 340.578 188.248 339.822C188.248 339.114 188.542 338.52 189.13 338.04C189.718 337.548 190.594 337.2 191.758 336.996L194.044 336.6V336.114C194.044 335.562 193.882 335.13 193.558 334.818C193.234 334.494 192.784 334.332 192.208 334.332C191.02 334.332 190.246 334.872 189.886 335.952L188.392 335.16C188.608 334.44 189.046 333.87 189.706 333.45C190.378 333.03 191.2 332.82 192.172 332.82C193.336 332.82 194.26 333.09 194.944 333.63C195.628 334.17 195.97 334.962 195.97 336.006V340.074C195.97 340.302 196.018 340.47 196.114 340.578C196.222 340.686 196.396 340.74 196.636 340.74ZM191.596 340.722C192.244 340.722 192.814 340.566 193.306 340.254C193.798 339.942 194.044 339.528 194.044 339.012V337.932L192.082 338.328C191.458 338.448 190.996 338.616 190.696 338.832C190.396 339.048 190.246 339.336 190.246 339.696C190.246 340.032 190.36 340.29 190.588 340.47C190.828 340.638 191.164 340.722 191.596 340.722ZM207.442 328.95V342H205.75L205.642 340.398C205.378 340.938 204.976 341.37 204.436 341.694C203.908 342.018 203.302 342.18 202.618 342.18C201.382 342.18 200.404 341.772 199.684 340.956C198.976 340.128 198.622 338.982 198.622 337.518C198.622 336.054 198.976 334.908 199.684 334.08C200.404 333.24 201.382 332.82 202.618 332.82C203.278 332.82 203.86 332.97 204.364 333.27C204.868 333.558 205.252 333.954 205.516 334.458V328.95H207.442ZM203.05 340.632C203.806 340.632 204.406 340.362 204.85 339.822C205.294 339.282 205.516 338.544 205.516 337.608V337.392C205.516 336.456 205.294 335.724 204.85 335.196C204.406 334.656 203.806 334.386 203.05 334.386C202.27 334.386 201.658 334.662 201.214 335.214C200.782 335.754 200.566 336.516 200.566 337.5C200.566 338.484 200.782 339.252 201.214 339.804C201.658 340.356 202.27 340.632 203.05 340.632ZM214.587 343.062C214.191 344.094 213.741 344.82 213.237 345.24C212.733 345.66 212.073 345.87 211.257 345.87C210.789 345.87 210.381 345.81 210.033 345.69C209.697 345.582 209.397 345.402 209.133 345.15L209.691 343.674C210.051 344.106 210.543 344.322 211.167 344.322C211.527 344.322 211.827 344.226 212.067 344.034C212.319 343.854 212.541 343.518 212.733 343.026L213.129 342.054L212.193 339.822L209.385 333H211.545L213.525 338.652L214.047 340.344L214.659 338.49L216.531 333H218.529L214.587 343.062ZM230.511 332.82C231.507 332.82 232.317 333.108 232.941 333.684C233.577 334.26 233.895 335.088 233.895 336.168V342H231.969V336.78C231.969 335.196 231.327 334.404 230.043 334.404C229.371 334.404 228.795 334.638 228.315 335.106C227.835 335.574 227.595 336.288 227.595 337.248V342H225.669V328.95H227.595V334.44C227.895 333.888 228.291 333.48 228.783 333.216C229.287 332.952 229.863 332.82 230.511 332.82ZM244.589 340.74C244.853 340.74 245.075 340.716 245.255 340.668L245.129 341.964C244.805 342.108 244.433 342.18 244.013 342.18C243.497 342.18 243.083 342.078 242.771 341.874C242.471 341.67 242.273 341.328 242.177 340.848C241.901 341.268 241.493 341.598 240.953 341.838C240.413 342.066 239.807 342.18 239.135 342.18C238.259 342.18 237.551 341.976 237.011 341.568C236.471 341.16 236.201 340.578 236.201 339.822C236.201 339.114 236.495 338.52 237.083 338.04C237.671 337.548 238.547 337.2 239.711 336.996L241.997 336.6V336.114C241.997 335.562 241.835 335.13 241.511 334.818C241.187 334.494 240.737 334.332 240.161 334.332C238.973 334.332 238.199 334.872 237.839 335.952L236.345 335.16C236.561 334.44 236.999 333.87 237.659 333.45C238.331 333.03 239.153 332.82 240.125 332.82C241.289 332.82 242.213 333.09 242.897 333.63C243.581 334.17 243.923 334.962 243.923 336.006V340.074C243.923 340.302 243.971 340.47 244.067 340.578C244.175 340.686 244.349 340.74 244.589 340.74ZM239.549 340.722C240.197 340.722 240.767 340.566 241.259 340.254C241.751 339.942 241.997 339.528 241.997 339.012V337.932L240.035 338.328C239.411 338.448 238.949 338.616 238.649 338.832C238.349 339.048 238.199 339.336 238.199 339.696C238.199 340.032 238.313 340.29 238.541 340.47C238.781 340.638 239.117 340.722 239.549 340.722ZM254.701 333L251.119 342H249.013L245.413 333H247.537L250.075 340.434L252.685 333H254.701ZM264.336 337.23C264.336 337.578 264.312 337.908 264.264 338.22H257.676C257.784 339.012 258.066 339.618 258.522 340.038C258.978 340.446 259.566 340.65 260.286 340.65C260.874 340.65 261.36 340.548 261.744 340.344C262.14 340.128 262.41 339.822 262.554 339.426L264.156 340.092C263.484 341.484 262.194 342.18 260.286 342.18C258.87 342.18 257.76 341.766 256.956 340.938C256.164 340.11 255.768 338.964 255.768 337.5C255.768 336.024 256.152 334.878 256.92 334.062C257.688 333.234 258.768 332.82 260.16 332.82C261.48 332.82 262.506 333.222 263.238 334.026C263.97 334.83 264.336 335.898 264.336 337.23ZM260.16 334.35C259.464 334.35 258.9 334.554 258.468 334.962C258.048 335.37 257.784 335.964 257.676 336.744H262.536C262.44 335.988 262.182 335.4 261.762 334.98C261.354 334.56 260.82 334.35 260.16 334.35ZM88.9263 370.74C89.1903 370.74 89.4123 370.716 89.5923 370.668L89.4663 371.964C89.1423 372.108 88.7703 372.18 88.3503 372.18C87.8343 372.18 87.4203 372.078 87.1083 371.874C86.8083 371.67 86.6103 371.328 86.5143 370.848C86.2383 371.268 85.8303 371.598 85.2903 371.838C84.7503 372.066 84.1443 372.18 83.4723 372.18C82.5963 372.18 81.8883 371.976 81.3483 371.568C80.8083 371.16 80.5383 370.578 80.5383 369.822C80.5383 369.114 80.8323 368.52 81.4203 368.04C82.0083 367.548 82.8843 367.2 84.0483 366.996L86.3343 366.6V366.114C86.3343 365.562 86.1723 365.13 85.8483 364.818C85.5243 364.494 85.0743 364.332 84.4983 364.332C83.3103 364.332 82.5363 364.872 82.1763 365.952L80.6823 365.16C80.8983 364.44 81.3363 363.87 81.9963 363.45C82.6683 363.03 83.4903 362.82 84.4623 362.82C85.6263 362.82 86.5503 363.09 87.2343 363.63C87.9183 364.17 88.2603 364.962 88.2603 366.006V370.074C88.2603 370.302 88.3083 370.47 88.4043 370.578C88.5123 370.686 88.6863 370.74 88.9263 370.74ZM83.8863 370.722C84.5343 370.722 85.1043 370.566 85.5963 370.254C86.0883 369.942 86.3343 369.528 86.3343 369.012V367.932L84.3723 368.328C83.7483 368.448 83.2863 368.616 82.9863 368.832C82.6863 369.048 82.5363 369.336 82.5363 369.696C82.5363 370.032 82.6503 370.29 82.8783 370.47C83.1183 370.638 83.4543 370.722 83.8863 370.722ZM100.895 362.82C102.863 362.82 104.165 363.66 104.801 365.34L103.001 366.06C102.689 364.92 101.987 364.35 100.895 364.35C100.091 364.35 99.4674 364.626 99.0234 365.178C98.5794 365.73 98.3574 366.51 98.3574 367.518C98.3574 368.526 98.5794 369.3 99.0234 369.84C99.4674 370.38 100.091 370.65 100.895 370.65C101.507 370.65 101.999 370.5 102.371 370.2C102.743 369.9 102.989 369.468 103.109 368.904L104.873 369.498C104.609 370.338 104.141 370.998 103.469 371.478C102.797 371.946 101.951 372.18 100.931 372.18C99.5154 372.18 98.4054 371.766 97.6014 370.938C96.8094 370.11 96.4134 368.964 96.4134 367.5C96.4134 366.036 96.8094 364.89 97.6014 364.062C98.3934 363.234 99.4914 362.82 100.895 362.82ZM115.177 367.23C115.177 367.578 115.153 367.908 115.105 368.22H108.517C108.625 369.012 108.907 369.618 109.363 370.038C109.819 370.446 110.407 370.65 111.127 370.65C111.715 370.65 112.201 370.548 112.585 370.344C112.981 370.128 113.251 369.822 113.395 369.426L114.997 370.092C114.325 371.484 113.035 372.18 111.127 372.18C109.711 372.18 108.601 371.766 107.797 370.938C107.005 370.11 106.609 368.964 106.609 367.5C106.609 366.024 106.993 364.878 107.761 364.062C108.529 363.234 109.609 362.82 111.001 362.82C112.321 362.82 113.347 363.222 114.079 364.026C114.811 364.83 115.177 365.898 115.177 367.23ZM111.001 364.35C110.305 364.35 109.741 364.554 109.309 364.962C108.889 365.37 108.625 365.964 108.517 366.744H113.377C113.281 365.988 113.023 365.4 112.603 364.98C112.195 364.56 111.661 364.35 111.001 364.35ZM122.234 362.82C122.654 362.82 122.984 362.88 123.224 363L122.918 364.764C122.642 364.608 122.264 364.53 121.784 364.53C121.4 364.53 121.034 364.632 120.686 364.836C120.35 365.04 120.068 365.346 119.84 365.754C119.624 366.162 119.516 366.654 119.516 367.23V372H117.59V363H119.228L119.39 364.62C119.894 363.42 120.842 362.82 122.234 362.82ZM130.418 371.406C130.13 371.646 129.776 371.838 129.356 371.982C128.948 372.114 128.504 372.18 128.024 372.18C127.196 372.18 126.53 371.976 126.026 371.568C125.534 371.148 125.282 370.5 125.27 369.624V364.512H123.56V363H125.27V360.894L127.196 360.354V363H130.346V364.512H127.196V369.3C127.196 369.732 127.31 370.056 127.538 370.272C127.778 370.476 128.102 370.578 128.51 370.578C129.062 370.578 129.548 370.386 129.968 370.002L130.418 371.406ZM140.043 370.74C140.307 370.74 140.529 370.716 140.709 370.668L140.583 371.964C140.259 372.108 139.887 372.18 139.467 372.18C138.951 372.18 138.537 372.078 138.225 371.874C137.925 371.67 137.727 371.328 137.631 370.848C137.355 371.268 136.947 371.598 136.407 371.838C135.867 372.066 135.261 372.18 134.589 372.18C133.713 372.18 133.005 371.976 132.465 371.568C131.925 371.16 131.655 370.578 131.655 369.822C131.655 369.114 131.949 368.52 132.537 368.04C133.125 367.548 134.001 367.2 135.165 366.996L137.451 366.6V366.114C137.451 365.562 137.289 365.13 136.965 364.818C136.641 364.494 136.191 364.332 135.615 364.332C134.427 364.332 133.653 364.872 133.293 365.952L131.799 365.16C132.015 364.44 132.453 363.87 133.113 363.45C133.785 363.03 134.607 362.82 135.579 362.82C136.743 362.82 137.667 363.09 138.351 363.63C139.035 364.17 139.377 364.962 139.377 366.006V370.074C139.377 370.302 139.425 370.47 139.521 370.578C139.629 370.686 139.803 370.74 140.043 370.74ZM135.003 370.722C135.651 370.722 136.221 370.566 136.713 370.254C137.205 369.942 137.451 369.528 137.451 369.012V367.932L135.489 368.328C134.865 368.448 134.403 368.616 134.103 368.832C133.803 369.048 133.653 369.336 133.653 369.696C133.653 370.032 133.767 370.29 133.995 370.47C134.235 370.638 134.571 370.722 135.003 370.722ZM143.505 361.488C143.097 361.488 142.779 361.386 142.551 361.182C142.323 360.966 142.209 360.666 142.209 360.282C142.209 359.898 142.323 359.604 142.551 359.4C142.779 359.196 143.097 359.094 143.505 359.094C143.913 359.094 144.225 359.196 144.441 359.4C144.669 359.604 144.783 359.898 144.783 360.282C144.783 360.666 144.669 360.966 144.441 361.182C144.225 361.386 143.913 361.488 143.505 361.488ZM144.459 372H142.533V363H144.459V372ZM152.315 362.82C153.311 362.82 154.121 363.108 154.745 363.684C155.381 364.26 155.699 365.088 155.699 366.168V372H153.773V366.78C153.773 365.196 153.131 364.404 151.847 364.404C151.175 364.404 150.599 364.638 150.119 365.106C149.639 365.562 149.399 366.27 149.399 367.23V372H147.473V363H149.183L149.273 364.494C149.573 363.93 149.987 363.51 150.515 363.234C151.043 362.958 151.643 362.82 152.315 362.82ZM167.729 372.18C166.817 372.18 166.007 372.024 165.299 371.712C164.603 371.4 164.075 370.926 163.715 370.29L165.011 369.174C165.239 369.69 165.593 370.068 166.073 370.308C166.553 370.548 167.129 370.668 167.801 370.668C168.413 370.668 168.887 370.572 169.223 370.38C169.559 370.176 169.727 369.912 169.727 369.588C169.727 369.3 169.571 369.072 169.259 368.904C168.947 368.724 168.407 368.556 167.639 368.4C166.307 368.148 165.371 367.812 164.831 367.392C164.291 366.972 164.021 366.378 164.021 365.61C164.021 365.118 164.171 364.662 164.471 364.242C164.771 363.81 165.203 363.468 165.767 363.216C166.343 362.952 167.021 362.82 167.801 362.82C168.797 362.82 169.595 362.988 170.195 363.324C170.795 363.648 171.257 364.158 171.581 364.854L170.213 365.862C169.997 365.334 169.691 364.95 169.295 364.71C168.911 364.458 168.419 364.332 167.819 364.332C167.279 364.332 166.829 364.446 166.469 364.674C166.121 364.89 165.947 365.142 165.947 365.43C165.947 365.754 166.103 366.012 166.415 366.204C166.739 366.396 167.321 366.57 168.161 366.726C169.433 366.954 170.333 367.278 170.861 367.698C171.389 368.118 171.653 368.706 171.653 369.462C171.653 370.266 171.305 370.92 170.609 371.424C169.913 371.928 168.953 372.18 167.729 372.18ZM179.83 371.406C179.542 371.646 179.188 371.838 178.768 371.982C178.36 372.114 177.916 372.18 177.436 372.18C176.608 372.18 175.942 371.976 175.438 371.568C174.946 371.148 174.694 370.5 174.682 369.624V364.512H172.972V363H174.682V360.894L176.608 360.354V363H179.758V364.512H176.608V369.3C176.608 369.732 176.722 370.056 176.95 370.272C177.19 370.476 177.514 370.578 177.922 370.578C178.474 370.578 178.96 370.386 179.38 370.002L179.83 371.406ZM185.785 373.062C185.389 374.094 184.939 374.82 184.435 375.24C183.931 375.66 183.271 375.87 182.455 375.87C181.987 375.87 181.579 375.81 181.231 375.69C180.895 375.582 180.595 375.402 180.331 375.15L180.889 373.674C181.249 374.106 181.741 374.322 182.365 374.322C182.725 374.322 183.025 374.226 183.265 374.034C183.517 373.854 183.739 373.518 183.931 373.026L184.327 372.054L183.391 369.822L180.583 363H182.743L184.723 368.652L185.245 370.344L185.857 368.49L187.729 363H189.727L185.785 373.062ZM193.325 369.372C193.325 369.816 193.391 370.128 193.523 370.308C193.655 370.476 193.901 370.56 194.261 370.56C194.489 370.56 194.681 370.548 194.837 370.524C195.005 370.488 195.209 370.422 195.449 370.326L195.233 371.874C194.825 372.078 194.327 372.18 193.739 372.18C192.935 372.18 192.341 371.976 191.957 371.568C191.585 371.16 191.399 370.518 191.399 369.642V358.95H193.325V369.372ZM205.106 367.23C205.106 367.578 205.082 367.908 205.034 368.22H198.446C198.554 369.012 198.836 369.618 199.292 370.038C199.748 370.446 200.336 370.65 201.056 370.65C201.644 370.65 202.13 370.548 202.514 370.344C202.91 370.128 203.18 369.822 203.324 369.426L204.926 370.092C204.254 371.484 202.964 372.18 201.056 372.18C199.64 372.18 198.53 371.766 197.726 370.938C196.934 370.11 196.538 368.964 196.538 367.5C196.538 366.024 196.922 364.878 197.69 364.062C198.458 363.234 199.538 362.82 200.93 362.82C202.25 362.82 203.276 363.222 204.008 364.026C204.74 364.83 205.106 365.898 205.106 367.23ZM200.93 364.35C200.234 364.35 199.67 364.554 199.238 364.962C198.818 365.37 198.554 365.964 198.446 366.744H203.306C203.21 365.988 202.952 365.4 202.532 364.98C202.124 364.56 201.59 364.35 200.93 364.35ZM208.491 369.57C208.899 369.57 209.223 369.69 209.463 369.93C209.715 370.158 209.841 370.47 209.841 370.866C209.841 371.262 209.715 371.58 209.463 371.82C209.223 372.06 208.899 372.18 208.491 372.18C208.083 372.18 207.753 372.06 207.501 371.82C207.249 371.58 207.123 371.262 207.123 370.866C207.123 370.47 207.243 370.158 207.483 369.93C207.735 369.69 208.071 369.57 208.491 369.57ZM214.831 364.26H213.427V359.652H215.317L214.831 364.26ZM211.627 364.26H210.223V359.652H212.113L211.627 364.26Z" fill="#220033"/>
<rect x="1" y="1" width="294" height="393" rx="9" stroke="url(#paint0_linear)" stroke-width="2"/>
<path d="M86.584 48.244H80.564V63H75.748V48.244H69.7V44.52H86.584V48.244ZM97.9662 48.72C99.4409 48.72 100.617 49.1493 101.494 50.008C102.372 50.8667 102.81 52.0893 102.81 53.676V63H98.0502V54.992C98.0502 53.2187 97.3876 52.332 96.0622 52.332C95.3156 52.332 94.7089 52.6027 94.2422 53.144C93.7756 53.6853 93.5422 54.516 93.5422 55.636V63H88.7822V43.064H93.5422V51.548C93.9529 50.6147 94.5316 49.9147 95.2782 49.448C96.0436 48.9627 96.9396 48.72 97.9662 48.72ZM119.782 55.804C119.782 56.4387 119.735 56.9613 119.642 57.372H110.094C110.243 58.2493 110.56 58.8933 111.046 59.304C111.55 59.7147 112.212 59.92 113.034 59.92C113.724 59.92 114.284 59.7893 114.714 59.528C115.162 59.2667 115.46 58.884 115.61 58.38L119.474 59.612C119.082 60.8067 118.316 61.7213 117.178 62.356C116.058 62.972 114.676 63.28 113.034 63.28C110.588 63.28 108.712 62.6453 107.406 61.376C106.118 60.1067 105.474 58.3147 105.474 56C105.474 53.6853 106.108 51.8933 107.378 50.624C108.647 49.3547 110.448 48.72 112.782 48.72C115.04 48.72 116.767 49.3453 117.962 50.596C119.175 51.828 119.782 53.564 119.782 55.804ZM112.754 52.052C111.242 52.052 110.346 52.9667 110.066 54.796H115.33C115.106 52.9667 114.247 52.052 112.754 52.052ZM136.25 63.28C133.039 63.28 130.762 62.4587 129.418 60.816L131.882 58.128C132.685 59.4533 134.066 60.116 136.026 60.116C136.679 60.116 137.193 60.032 137.566 59.864C137.939 59.6773 138.126 59.4347 138.126 59.136C138.126 58.8747 137.93 58.6507 137.538 58.464C137.165 58.2587 136.511 58.0627 135.578 57.876C133.487 57.4653 131.994 56.9053 131.098 56.196C130.221 55.4867 129.782 54.544 129.782 53.368C129.782 52.5653 130.034 51.8093 130.538 51.1C131.042 50.3907 131.798 49.8213 132.806 49.392C133.833 48.944 135.074 48.72 136.53 48.72C138.135 48.72 139.442 48.944 140.45 49.392C141.477 49.8213 142.307 50.4747 142.942 51.352L140.478 53.76C140.03 53.1067 139.498 52.6307 138.882 52.332C138.266 52.0333 137.529 51.884 136.67 51.884C135.998 51.884 135.475 51.9867 135.102 52.192C134.729 52.3973 134.542 52.6493 134.542 52.948C134.542 53.228 134.729 53.4707 135.102 53.676C135.494 53.8627 136.166 54.0493 137.118 54.236C139.171 54.5907 140.646 55.1227 141.542 55.832C142.457 56.5227 142.914 57.4747 142.914 58.688C142.914 60.0507 142.345 61.1613 141.206 62.02C140.067 62.86 138.415 63.28 136.25 63.28ZM163.612 48.72C165.03 48.72 166.178 49.1493 167.056 50.008C167.952 50.8667 168.4 52.0893 168.4 53.676V63H163.64V54.768C163.64 53.1627 163.005 52.36 161.736 52.36C160.989 52.36 160.392 52.6307 159.944 53.172C159.496 53.7133 159.272 54.4973 159.272 55.524V63H154.512V54.768C154.512 53.1627 153.877 52.36 152.608 52.36C151.898 52.36 151.31 52.6307 150.844 53.172C150.377 53.7133 150.144 54.5253 150.144 55.608V63H145.384V49H149.64L149.78 51.688C150.228 50.7173 150.853 49.98 151.656 49.476C152.458 48.972 153.401 48.72 154.484 48.72C155.548 48.72 156.462 48.9627 157.228 49.448C158.012 49.9333 158.572 50.6333 158.908 51.548C159.356 50.6333 159.99 49.9333 160.812 49.448C161.652 48.9627 162.585 48.72 163.612 48.72ZM185.267 60.284C185.622 60.284 185.911 60.2467 186.135 60.172L185.771 62.832C185.23 63.1307 184.595 63.28 183.867 63.28C181.851 63.28 180.647 62.5613 180.255 61.124C179.415 62.5613 177.754 63.28 175.271 63.28C173.871 63.28 172.798 62.9813 172.051 62.384C171.304 61.7867 170.931 60.9187 170.931 59.78C170.931 58.5853 171.351 57.624 172.191 56.896C173.05 56.1493 174.45 55.58 176.391 55.188L179.555 54.572V54.068C179.555 53.4333 179.378 52.9293 179.023 52.556C178.668 52.1827 178.183 51.996 177.567 51.996C176.858 51.996 176.279 52.164 175.831 52.5C175.383 52.836 175.094 53.3867 174.963 54.152L171.099 53.032C171.342 51.6693 172.014 50.6147 173.115 49.868C174.216 49.1027 175.7 48.72 177.567 48.72C179.751 48.72 181.412 49.168 182.551 50.064C183.69 50.96 184.259 52.304 184.259 54.096V59.192C184.259 59.92 184.595 60.284 185.267 60.284ZM177.007 60.2C177.66 60.2 178.248 60.0227 178.771 59.668C179.294 59.2947 179.555 58.8093 179.555 58.212V57.008L177.287 57.54C176.69 57.6893 176.26 57.876 175.999 58.1C175.756 58.3053 175.635 58.604 175.635 58.996C175.635 59.388 175.756 59.6867 175.999 59.892C176.242 60.0973 176.578 60.2 177.007 60.2ZM196.665 48.72C197.299 48.72 197.803 48.8227 198.177 49.028L197.673 53.06C197.486 52.948 197.234 52.8547 196.917 52.78C196.599 52.6867 196.263 52.64 195.909 52.64C195.013 52.64 194.266 52.9293 193.669 53.508C193.071 54.068 192.773 54.88 192.773 55.944V63H188.013V49H192.213L192.409 52.024C192.745 50.96 193.267 50.148 193.977 49.588C194.705 49.0093 195.601 48.72 196.665 48.72ZM209.88 62.216C209.413 62.5333 208.816 62.7947 208.088 63C207.378 63.1867 206.66 63.28 205.932 63.28C204.27 63.28 203.001 62.9253 202.124 62.216C201.246 61.5067 200.798 60.368 200.78 58.8V52.388H198.372V49H200.78V45.864L205.54 44.548V49H209.74V52.388H205.54V58.016C205.54 59.2667 206.156 59.892 207.388 59.892C208.153 59.892 208.825 59.6867 209.404 59.276L209.88 62.216ZM221.012 63C220.489 64.4933 219.92 65.6787 219.304 66.556C218.688 67.4333 217.96 68.0587 217.12 68.432C216.28 68.824 215.262 69.02 214.068 69.02C212.481 69.02 211.212 68.6747 210.26 67.984L211.268 64.792C211.566 65.072 211.893 65.2587 212.248 65.352C212.621 65.464 213.097 65.52 213.676 65.52C214.254 65.52 214.712 65.4173 215.048 65.212C215.384 65.0253 215.654 64.68 215.86 64.176L216.196 63.308L214.572 59.5L210.4 49H215.636L217.792 56.98L218.464 59.948L219.22 56.868L221.376 49H226.136L221.012 63Z" fill="#32004A"/>
<path d="M215.709 199.808L197.255 141.417C194.709 132.949 185.545 128.146 177.018 130.674C174.982 131.306 173.836 133.454 174.473 135.477C175.109 137.499 177.273 138.636 179.309 138.004C183.764 136.614 188.6 139.142 190 143.692L203.236 185.527C199.036 183.125 194.2 181.861 188.982 181.861C174.091 181.861 161.873 192.983 160.218 207.265H135.655C133.745 193.236 121.655 182.367 106.891 182.367C101.673 182.367 96.8364 183.757 92.6364 186.032L106 143.692C107.4 139.268 112.109 136.741 116.691 138.004C118.727 138.636 120.891 137.499 121.527 135.477C122.164 133.454 121.018 131.306 118.982 130.674C110.455 128.146 101.291 132.949 98.7455 141.417L80.2909 199.935C80.2909 200.061 80.1636 200.188 80.1636 200.44C78.7636 203.726 78 207.392 78 211.183C78 226.982 90.9818 240 107.018 240C121.655 240 133.873 229.131 135.782 215.101H160.345C162.509 228.878 174.473 239.494 188.982 239.494C204.891 239.494 218 226.603 218 210.678C217.873 206.76 217.109 203.221 215.709 199.808ZM107.018 232.29C95.3091 232.29 85.7636 222.811 85.7636 211.183C85.7636 199.556 95.3091 190.076 107.018 190.076C118.727 190.076 128.273 199.556 128.273 211.183C128.273 222.811 118.727 232.29 107.018 232.29ZM188.855 231.658C177.145 231.658 167.6 222.179 167.6 210.551C167.6 198.924 177.145 189.445 188.855 189.445C200.564 189.445 210.109 198.924 210.109 210.551C210.109 222.179 200.564 231.658 188.855 231.658Z" fill="url(#paint1_linear)"/>
<defs>
<linearGradient id="paint0_linear" x1="3.42172e-05" y1="394.846" x2="185.801" y2="-46.4027" gradientUnits="userSpaceOnUse">
<stop offset="0.481859" stop-color="#32004A"/>
<stop offset="1" stop-color="#BB32FF"/>
</linearGradient>
<linearGradient id="paint1_linear" x1="78" y1="239.957" x2="111.79" y2="103.668" gradientUnits="userSpaceOnUse">
<stop offset="0.481859" stop-color="#32004A"/>
<stop offset="1" stop-color="#BB32FF"/>
</linearGradient>
</defs>
</svg>
